<svg width="140" height="27" viewBox="0 0 140 27" fill="none" xmlns="http://www.w3.org/2000/svg">
<g clip-path="url(#clip0_1468_1905)">
<path d="M13.2308 0.5H6.04387L6.0301 0.525328L5.03822 2.3567H13.2308C19.2994 2.3567 24.2221 7.34477 24.2221 13.4979C24.2221 19.6511 19.3009 24.6392 13.2308 24.6392C7.1607 24.6392 2.23902 19.6506 2.23902 13.4979C2.23852 12.334 2.41835 11.1772 2.77193 10.0699H4.87044C3.38283 13.7959 4.4711 18.0698 7.55197 20.6007C10.6328 23.1316 14.9833 23.3257 18.2716 21.079C21.56 18.8322 23.0145 14.6718 21.8557 10.8277C20.6968 6.98351 17.1965 4.35771 13.2308 4.35761H3.95505L2.94991 6.2138H13.2308C16.4604 6.21446 19.2928 8.39906 20.1543 11.5539C21.0159 14.7088 19.695 18.0587 16.9255 19.7425C14.1559 21.4264 10.6183 21.0305 8.2779 18.7747C5.93752 16.519 5.36949 12.9577 6.88939 10.0693H9.26685C7.67995 11.9576 7.60319 14.7107 9.08234 16.6867C10.5615 18.6628 13.198 19.3293 15.4194 18.2888C17.6409 17.2483 18.8487 14.7811 18.3225 12.3587C17.7963 9.93625 15.678 8.21133 13.2308 8.21264H1.86675L0.861096 10.0699C0.560071 11.187 0.407435 12.3399 0.407227 13.4979C0.407227 20.6761 6.14841 26.4959 13.2308 26.4959C20.3132 26.4959 26.0544 20.6761 26.0544 13.4979C26.0544 6.31976 20.3127 0.5 13.2308 0.5ZM13.2308 10.0699C15.0987 10.0699 16.6129 11.6047 16.6129 13.4979C16.6129 15.3912 15.0987 16.926 13.2308 16.926C11.3629 16.926 9.84872 15.3912 9.84872 13.4979C9.84872 11.6047 11.3629 10.0699 13.2308 10.0699ZM31.691 13.7724C31.691 10.1614 34.0812 7.62441 37.6658 7.62441C39.8755 7.62441 41.6792 8.60652 42.6262 10.2528L40.5522 11.7384C39.8979 10.6865 38.906 10.1841 37.7336 10.1841C35.7957 10.1841 34.5096 11.5797 34.5096 13.7724C34.5096 15.9434 35.7947 17.3602 37.7336 17.3602C38.9065 17.3602 39.8979 16.8345 40.5522 15.7831L42.6262 17.2687C41.6792 18.9373 39.8755 19.8971 37.6658 19.8971C34.0812 19.8971 31.691 17.3602 31.691 13.7724ZM43.0158 13.7724C43.0158 10.3898 45.3836 7.62441 49.0589 7.62441C52.7567 7.62441 55.1015 10.3898 55.1015 13.7724C55.1015 17.1322 52.7557 19.8971 49.0589 19.8971C45.3862 19.8971 43.0158 17.1317 43.0158 13.7724ZM52.2829 13.7724C52.2829 11.6469 51.0427 10.1614 49.0589 10.1614C47.0752 10.1614 45.8344 11.6469 45.8344 13.7724C45.8344 15.8746 47.0746 17.3602 49.0589 17.3602C51.0432 17.3602 52.2829 15.8746 52.2829 13.7724ZM73.1573 7.94334L69.6386 19.5761H66.6675L64.1804 11.3714L61.6714 19.5761H58.6962L55.1979 7.94334H57.9272L60.3042 16.3305L62.857 7.94334H65.4982L68.0515 16.3305L70.4061 7.94334H73.1573ZM111.81 7.94334L108.288 19.5761H105.317L102.83 11.3714L100.321 19.5761H97.3516L93.8522 7.94592H96.5816L98.9585 16.3331L101.509 7.94334H104.15L106.703 16.3305L109.058 7.94334H111.81ZM81.3897 7.89889V10.5041C80.9722 10.4339 80.5501 10.3958 80.127 10.3898C78.1203 10.3898 77.0606 11.4184 77.0606 13.8406V19.5782H74.3114V7.94334H77.0142V9.88688C77.5782 8.53881 78.8179 7.73865 80.3963 7.73865C80.7342 7.73196 81.0705 7.78622 81.3897 7.89889ZM92.8022 7.94334V18.4105C92.8022 22.3188 90.6603 24.4665 86.8718 24.4665C84.9105 24.4665 83.1067 23.8726 82.0241 22.844L83.2643 20.81C84.2333 21.5853 85.4964 21.9756 86.7142 21.9756C88.8337 21.9756 90.0963 20.7645 90.0963 18.409V17.4057C89.4425 18.6855 88.0447 19.4624 86.3532 19.4624C83.9181 19.4624 82.3851 17.9086 82.3851 15.0745V7.94334H85.1359V14.3663C85.1359 16.1491 85.8575 16.926 87.3002 16.926C88.9688 16.926 90.0739 15.8979 90.0739 14.2061V7.94334H92.8022ZM112.533 4.26509C112.533 3.2592 113.232 2.52779 114.292 2.52779C115.329 2.52779 116.026 3.2592 116.026 4.26509C116.026 5.27097 115.327 6.00187 114.292 6.00187C113.232 6.00187 112.533 5.27046 112.533 4.26509ZM112.917 7.94437H115.667V19.5772H112.917V7.94437ZM117.052 17.6802L118.54 15.9201C119.441 16.926 120.84 17.5199 122.305 17.5199C123.613 17.5199 124.334 17.0175 124.334 16.2861C124.334 15.6689 123.883 15.2807 122.734 15.0062L120.862 14.572C118.472 14.0009 117.457 12.8808 117.457 11.281C117.457 9.13272 119.216 7.62441 122.193 7.62441C124.222 7.62441 125.913 8.33256 126.905 9.47594L125.439 11.281C124.447 10.4126 123.32 10.0011 122.124 10.0011C120.839 10.0011 120.208 10.4813 120.208 11.19C120.208 11.7384 120.591 12.0811 121.809 12.3551L123.793 12.8353C126.205 13.3837 127.085 14.5033 127.085 16.1031C127.085 18.4116 125.326 19.8971 122.282 19.8971C120.005 19.8971 118.089 19.0287 117.052 17.6802ZM139.301 14.5948H130.754C131.048 16.4691 132.265 17.4744 134.136 17.4744C135.422 17.4744 136.504 16.9947 137.338 16.0116L138.984 17.6574C137.902 19.0742 136.166 19.8971 134.046 19.8971C130.393 19.8971 127.958 17.4744 127.958 13.8179C127.958 10.2068 130.304 7.62441 133.776 7.62441C137.113 7.62441 139.367 9.97837 139.367 13.5207C139.367 13.8797 139.345 14.2385 139.301 14.5948ZM130.754 12.6988H136.619C136.484 10.9843 135.446 10.0476 133.801 10.0476C132.108 10.0471 131.049 11.0297 130.754 12.6988Z" fill="#0066F5"/>
</g>
<defs>
<clipPath id="clip0_1468_1905">
<rect width="138.965" height="26" fill="white" transform="translate(0.407227 0.5)"/>
</clipPath>
</defs>
</svg>
