<svg width="317" height="285" viewBox="0 0 317 285" fill="none" xmlns="http://www.w3.org/2000/svg">
<path d="M158.5 284.147C245.964 284.147 316.868 243.954 316.868 194.373C316.868 144.793 245.964 104.6 158.5 104.6C71.035 104.6 0.130859 144.793 0.130859 194.373C0.130859 243.954 71.035 284.147 158.5 284.147Z" fill="#F5F5F5"/>
<path d="M186.543 154.378L183.673 152.811C182.583 152.285 181.377 152.01 180.153 152.01C178.929 152.01 177.723 152.285 176.632 152.811L25.1494 235.647C23.2119 236.709 23.2119 238.442 25.1494 239.484L28.0118 241.05C29.103 241.574 30.3091 241.847 31.5324 241.847C32.7556 241.847 33.9617 241.574 35.0529 241.05L81.0737 215.921L101.549 227.118C106.828 230.001 115.463 230.001 120.742 227.118L152.471 209.758C156.98 207.289 156.98 203.255 152.471 200.806L130.618 188.81L186.543 158.227C188.48 157.166 188.48 155.433 186.543 154.378Z" fill="#E0E0E0"/>
<path d="M241.67 256.096C257.48 264.741 283.107 264.741 298.91 256.096C314.714 247.451 314.721 233.442 298.91 224.797C283.1 216.152 257.48 216.152 241.67 224.797C225.859 233.442 225.866 247.451 241.67 256.096Z" fill="#E0E0E0"/>
<path d="M86.8181 29.5068L89.3632 28.0489C89.3412 27.8814 89.3299 27.7127 89.3294 27.5438V26.3545C89.3964 25.2016 89.7492 24.0798 90.359 23.08C90.9689 22.0803 91.8188 21.2306 92.8399 20.5998C93.1443 20.4073 93.4862 20.2743 93.8455 20.2084C94.2048 20.1425 94.5744 20.1452 94.9327 20.2161C95.2499 17.2045 97.4575 13.822 100.144 12.3258C103.04 10.74 105.397 12.0252 105.397 15.1967V16.9807C105.385 17.8496 105.235 18.7119 104.951 19.5383L108.542 17.5562C109.623 16.9679 110.493 17.4411 110.493 18.6176C110.457 19.2584 110.261 19.882 109.922 20.4376C109.583 20.9932 109.111 21.465 108.542 21.8147L86.8046 33.7653C85.7312 34.3536 84.8604 33.8804 84.8604 32.7039C84.8985 32.0627 85.0956 31.4392 85.4358 30.8837C85.7759 30.3282 86.2495 29.8565 86.8181 29.5068V29.5068Z" fill="#EBEBEB"/>
<path d="M65.0267 24.6471L62.3264 25.619V20.0561C62.3264 15.6442 58.6134 14.5892 54.5764 16.7887C50.5798 18.9819 47.3124 24.3594 47.3124 28.7713V29.577C46.7466 29.4127 46.1488 29.3722 45.5641 29.4586C44.9794 29.545 44.423 29.756 43.937 30.0757V30.0757C42.407 31.0195 41.1339 32.292 40.2213 33.7897C39.3086 35.2875 38.7822 36.9682 38.6848 38.695V39.0595L34.9583 41.0928C33.9503 41.7147 33.1114 42.5529 32.5096 43.5395C31.9079 44.526 31.5603 45.6331 31.4951 46.7708C31.4951 48.8617 33.0478 49.7057 34.9583 48.6891L65.0267 32.2178C66.0331 31.5949 66.8704 30.7562 67.4709 29.7698C68.0714 28.7833 68.4182 27.6768 68.4832 26.5398C68.4832 24.4489 66.9372 23.5985 65.0267 24.6471Z" fill="#EBEBEB"/>
<path d="M121.106 222.635L147.374 208.248C150.074 206.765 151.425 204.828 151.425 202.89C151.425 200.953 151.425 199.425 151.425 199.425L126.71 186.144C125.949 185.673 125.316 185.04 124.862 184.294C124.408 183.549 124.146 182.713 124.097 181.853V151.162L78.2451 176.278V206.97C78.2951 207.829 78.5583 208.664 79.0135 209.409C79.4686 210.153 80.1028 210.785 80.8645 211.254L101.509 222.635C106.916 225.596 115.692 225.596 121.106 222.635Z" fill="#263238"/>
<path opacity="0.15" d="M89.2559 212.398V215.845L80.8645 211.254C80.1036 210.784 79.4705 210.15 79.0165 209.404C78.5626 208.659 78.3007 207.823 78.252 206.963V176.278L86.9943 171.501C87.1699 173.605 87.3724 175.779 87.5479 177.896L81.4249 181.253V205.218C81.4712 206.076 81.7315 206.912 82.1844 207.656C82.6373 208.401 83.27 209.033 84.0307 209.502L89.2559 212.398Z" fill="black"/>
<path d="M81.4049 205.237C81.4543 206.097 81.7173 206.934 82.1724 207.679C82.6276 208.425 83.262 209.058 84.0242 209.528L101.495 219.176C106.896 222.143 115.672 222.143 121.107 219.176L147.381 204.796C152.782 201.835 152.782 197.033 147.381 194.073L129.89 184.411C129.128 183.943 128.495 183.311 128.041 182.566C127.587 181.822 127.325 180.986 127.277 180.127V156.168L81.3711 181.272L81.4049 205.237Z" fill="#455A64"/>
<path opacity="0.3" d="M135.223 187.333L129.896 184.418C129.135 183.949 128.502 183.317 128.048 182.572C127.594 181.828 127.332 180.992 127.284 180.134V156.168L81.3779 181.272V205.237C81.4274 206.097 81.6904 206.934 82.1455 207.679C82.6006 208.425 83.2351 209.058 83.9973 209.528L89.2292 212.392L135.223 187.333Z" fill="black"/>
<path d="M26.7631 224.151C27.7535 224.605 28.8429 224.832 29.943 224.813C31.0431 224.794 32.1231 224.53 33.0955 224.042L184.025 141.507C184.975 140.919 185.766 140.128 186.332 139.197C186.899 138.266 187.225 137.221 187.285 136.148V5.91258C187.247 4.87076 186.95 3.85223 186.417 2.93998C185.884 2.02772 185.132 1.24754 184.221 0.66299C183.23 0.208958 182.141 -0.0177947 181.041 0.00108993C179.941 0.0199745 178.861 0.283967 177.888 0.771692L26.9657 83.3008C26.0129 83.8906 25.2205 84.685 24.6528 85.6193C24.0851 86.5537 23.758 87.6017 23.6982 88.6783V218.901C23.7376 219.943 24.0356 220.961 24.5681 221.873C25.1006 222.785 25.8526 223.565 26.7631 224.151V224.151Z" fill="#455A64"/>
<path d="M33.0955 224.036L184.025 141.507C184.976 140.918 185.767 140.126 186.335 139.194C186.902 138.262 187.23 137.216 187.292 136.142V5.90626C187.292 3.93048 185.827 3.13121 184.025 4.1223L33.0955 86.6514C32.1451 87.239 31.3541 88.0302 30.7864 88.9611C30.2188 89.8919 29.8905 90.9363 29.8281 92.0097V222.252C29.8281 224.234 31.2931 225.02 33.0955 224.036Z" fill="#19636D"/>
<path d="M34.1484 201.925V93.3908C34.1864 92.7292 34.3899 92.0857 34.742 91.5131C35.0941 90.9406 35.5848 90.4555 36.1737 90.0979L180.953 10.9129C182.067 10.2735 182.978 10.7978 182.978 12.0127V120.547C182.94 121.209 182.736 121.853 182.384 122.427C182.032 123 181.542 123.487 180.953 123.846L36.1534 203.025C35.0463 203.632 34.1484 203.133 34.1484 201.925Z" fill="#2594A3"/>
<path opacity="0.7" d="M34.1484 201.925V93.3908C34.1864 92.7292 34.3899 92.0857 34.742 91.5131C35.0941 90.9406 35.5848 90.4555 36.1737 90.0979L180.953 10.9129C182.067 10.2735 182.978 10.7978 182.978 12.0127V120.547C182.94 121.209 182.736 121.853 182.384 122.427C182.032 123 181.542 123.487 180.953 123.846L36.1534 203.025C35.0463 203.632 34.1484 203.133 34.1484 201.925Z" fill="white"/>
<path d="M24.6634 85.6025L30.7865 88.9467C30.2071 89.8783 29.8758 90.9295 29.8211 92.0095V222.252C29.8211 224.048 31.1105 225.059 33.0885 224.042C32.1177 224.534 31.0372 224.801 29.9362 224.82C28.8352 224.838 27.7453 224.609 26.7562 224.151C25.8556 223.644 25.1028 222.933 24.5664 222.081C24.03 221.229 23.7268 220.263 23.6846 219.272V88.6781C23.7274 87.5904 24.0645 86.5314 24.6634 85.6025V85.6025Z" fill="#263238"/>
<path d="M105.694 176.112L113.086 172.09C113.761 171.732 114.288 171.988 114.288 172.665C114.257 173.047 114.132 173.416 113.924 173.744C113.715 174.071 113.428 174.348 113.086 174.552L105.694 178.567C105.019 178.932 104.499 178.676 104.499 177.992C104.527 177.611 104.651 177.243 104.858 176.916C105.066 176.589 105.352 176.314 105.694 176.112V176.112Z" fill="#2594A3"/>
<path d="M69.3276 244.561L74.4785 241.741C74.4785 241.741 77.5502 229.662 76.3282 218.792C74.6068 203.517 63.9877 197.768 59.9371 199.086C55.8866 200.403 54.7322 204.84 61.4088 213.952C65.3378 219.317 70.212 230.5 69.3276 244.561Z" fill="#2594A3"/>
<g opacity="0.3">
<path d="M69.3276 244.561L74.4785 241.741C74.4785 241.741 77.5502 229.662 76.3282 218.792C74.6068 203.517 63.9877 197.768 59.9371 199.086C55.8866 200.403 54.7322 204.84 61.4088 213.952C65.3378 219.317 70.212 230.5 69.3276 244.561Z" fill="white"/>
</g>
<path d="M71.4604 238.627H71.4131C71.3666 238.619 71.3222 238.603 71.2826 238.579C71.2429 238.554 71.2088 238.523 71.1824 238.486C71.1559 238.449 71.1376 238.407 71.1285 238.363C71.1194 238.319 71.1198 238.274 71.1296 238.231C73.9514 224.164 68.7533 208.306 62.3534 201.714C62.3195 201.683 62.2925 201.647 62.2741 201.606C62.2556 201.565 62.2461 201.521 62.2461 201.477C62.2461 201.433 62.2556 201.389 62.2741 201.348C62.2925 201.308 62.3195 201.271 62.3534 201.241C62.3867 201.209 62.4261 201.184 62.4696 201.167C62.513 201.15 62.5596 201.141 62.6066 201.141C62.6536 201.141 62.7002 201.15 62.7436 201.167C62.7871 201.184 62.8265 201.209 62.8598 201.241C69.4148 207.948 74.7075 224.042 71.8452 238.327C71.8333 238.414 71.787 238.493 71.7155 238.549C71.644 238.605 71.5528 238.633 71.4604 238.627Z" fill="white"/>
<path d="M56.3452 251.658C55.5756 252.029 53.5301 250.379 52.9697 249.964C51.9864 249.258 51.2121 248.324 50.7217 247.253C50.172 246.044 50.0351 244.702 50.3302 243.416C50.4844 242.736 50.6897 242.067 50.9445 241.415L51.6196 239.496C51.8956 238.875 52.0357 238.207 52.0314 237.533C51.9166 236.178 50.6812 235.174 49.6078 234.336C48.3859 233.377 47.1302 232.124 47.2247 230.5C47.3853 229.249 47.9788 228.085 48.9125 227.188C49.7833 226.248 50.796 225.423 51.6128 224.425C52.2317 223.732 52.5819 222.859 52.6052 221.951C52.5524 221.393 52.385 220.85 52.1124 220.352C51.4759 219.31 50.9317 218.219 50.4854 217.091C50.1276 215.94 50.2626 214.534 51.2348 213.766C51.6676 213.492 52.1538 213.302 52.6649 213.208C53.1761 213.113 53.702 213.116 54.2119 213.217C55.1825 213.37 56.1049 213.726 56.9123 214.259C59.5518 215.819 60.9628 218.933 63.7576 220.167C64.8801 220.561 66.0278 220.888 67.1938 221.145C67.7787 221.276 68.3281 221.521 68.8061 221.866C69.2842 222.211 69.6802 222.647 69.9684 223.147C70.9203 225.193 68.8275 227.565 69.4621 229.72C70.0157 231.638 71.9059 232.437 72.8983 234.196C73.2969 234.964 73.427 235.833 73.2696 236.677C73.104 238.111 72.6576 239.503 71.9532 240.782C71.1685 242.094 70.3006 243.36 69.3541 244.573C69.3541 244.573 56.4667 251.601 56.3452 251.658Z" fill="#2594A3"/>
<g opacity="0.65">
<path d="M56.3452 251.658C55.5756 252.029 53.5301 250.379 52.9697 249.964C51.9864 249.258 51.2121 248.324 50.7217 247.253C50.172 246.044 50.0351 244.702 50.3302 243.416C50.4844 242.736 50.6897 242.067 50.9445 241.415L51.6196 239.496C51.8956 238.875 52.0357 238.207 52.0314 237.533C51.9166 236.178 50.6812 235.174 49.6078 234.336C48.3859 233.377 47.1302 232.124 47.2247 230.5C47.3853 229.249 47.9788 228.085 48.9125 227.188C49.7833 226.248 50.796 225.423 51.6128 224.425C52.2317 223.732 52.5819 222.859 52.6052 221.951C52.5524 221.393 52.385 220.85 52.1124 220.352C51.4759 219.31 50.9317 218.219 50.4854 217.091C50.1276 215.94 50.2626 214.534 51.2348 213.766C51.6676 213.492 52.1538 213.302 52.6649 213.208C53.1761 213.113 53.702 213.116 54.2119 213.217C55.1825 213.37 56.1049 213.726 56.9123 214.259C59.5518 215.819 60.9628 218.933 63.7576 220.167C64.8801 220.561 66.0278 220.888 67.1938 221.145C67.7787 221.276 68.3281 221.521 68.8061 221.866C69.2842 222.211 69.6802 222.647 69.9684 223.147C70.9203 225.193 68.8275 227.565 69.4621 229.72C70.0157 231.638 71.9059 232.437 72.8983 234.196C73.2969 234.964 73.427 235.833 73.2696 236.677C73.104 238.111 72.6576 239.503 71.9532 240.782C71.1685 242.094 70.3006 243.36 69.3541 244.573C69.3541 244.573 56.4667 251.601 56.3452 251.658Z" fill="white"/>
</g>
<path d="M63.8113 247.975C63.7663 247.972 63.7224 247.96 63.6823 247.941C63.6422 247.921 63.6066 247.894 63.5776 247.861C63.5487 247.829 63.5269 247.791 63.5137 247.75C63.5005 247.709 63.4961 247.666 63.5008 247.624C64.7294 234.95 59.16 220.627 54.7854 216.331C54.7538 216.301 54.7286 216.266 54.7115 216.227C54.6944 216.188 54.6855 216.146 54.6855 216.104C54.6855 216.061 54.6944 216.02 54.7115 215.981C54.7286 215.942 54.7538 215.906 54.7854 215.877C54.8496 215.818 54.9356 215.785 55.025 215.785C55.1145 215.785 55.2005 215.818 55.2647 215.877C59.727 220.257 65.391 234.822 64.1624 247.675C64.1571 247.758 64.1174 247.837 64.0517 247.893C63.9861 247.949 63.8997 247.979 63.8113 247.975V247.975Z" fill="white"/>
<path d="M62.4818 232.341C62.4484 232.347 62.414 232.347 62.3806 232.341C59.2471 231.375 56.0127 230.732 52.7336 230.423C52.6892 230.42 52.6459 230.408 52.6063 230.389C52.5666 230.37 52.5313 230.344 52.5025 230.312C52.4736 230.28 52.4517 230.242 52.4381 230.202C52.4245 230.162 52.4193 230.12 52.423 230.078C52.4263 230.035 52.4387 229.994 52.4594 229.956C52.4801 229.919 52.5087 229.885 52.5435 229.858C52.5782 229.832 52.6183 229.812 52.6615 229.8C52.7046 229.788 52.7498 229.785 52.7943 229.79C56.1355 230.107 59.4295 230.772 62.6169 231.772C62.7004 231.804 62.768 231.864 62.8057 231.942C62.8433 232.019 62.8482 232.107 62.8194 232.188C62.7861 232.243 62.736 232.287 62.6757 232.314C62.6155 232.342 62.5479 232.351 62.4818 232.341V232.341Z" fill="white"/>
<path d="M244.952 9.02653C244.944 8.90723 244.921 8.78923 244.884 8.67485C244.891 8.663 244.894 8.64984 244.894 8.63649C244.894 8.62313 244.891 8.60997 244.884 8.59812C244.868 8.48183 244.836 8.36796 244.79 8.25923C244.738 8.08678 244.658 7.9229 244.553 7.77328C244.522 7.69985 244.476 7.63263 244.418 7.57506C244.388 7.52294 244.349 7.4755 244.304 7.43439C244.226 7.34196 244.138 7.25828 244.04 7.18502V7.18502C243.933 7.11234 243.817 7.05022 243.696 6.99959C243.252 6.84184 242.774 6.78909 242.303 6.84591C241.833 6.90274 241.384 7.06742 240.996 7.32569L103.575 82.4248C101.354 83.6333 99.5244 86.6002 99.5244 90.8459V210.755C99.5236 211.215 99.6512 211.668 99.8941 212.067C100.137 212.465 100.487 212.796 100.908 213.026C101.329 213.256 101.807 213.376 102.293 213.375C102.779 213.373 103.256 213.25 103.676 213.019L240.948 137.913C242.125 137.19 243.105 136.215 243.809 135.066C244.512 133.917 244.92 132.628 244.999 131.302V9.49969C244.972 9.33984 244.965 9.1736 244.952 9.02653Z" fill="#FAFAFA"/>
<path d="M242.731 7.4026C242.964 7.39631 243.195 7.44232 243.406 7.53687C243.471 7.56107 243.532 7.59333 243.588 7.63279V7.63279H243.629C243.679 7.67048 243.724 7.71338 243.764 7.76067L243.818 7.83101L243.865 7.89495L243.899 7.93331V7.98446L243.946 8.0548C244.013 8.15096 244.063 8.25677 244.094 8.36811V8.36811C244.108 8.40156 244.119 8.43572 244.128 8.47042V8.52157L244.209 8.76455C244.23 8.83134 244.243 8.89987 244.25 8.96916C244.25 9.10344 244.25 9.2505 244.25 9.39117V131.283C244.171 132.498 243.795 133.679 243.152 134.733C242.509 135.787 241.616 136.686 240.543 137.357L103.298 212.488C102.978 212.67 102.612 212.766 102.238 212.763C101.677 212.761 101.138 212.549 100.741 212.173C100.344 211.797 100.12 211.287 100.118 210.755V90.8461C100.118 86.5236 102.036 83.934 103.825 82.9557L241.266 7.83101C241.707 7.57087 242.212 7.42328 242.731 7.4026V7.4026ZM242.731 6.76318C242.099 6.78453 241.484 6.96317 240.948 7.28111L103.575 82.425C101.354 83.6335 99.5244 86.6004 99.5244 90.8461V210.755C99.5244 211.1 99.596 211.44 99.7351 211.759C99.8742 212.077 100.078 212.366 100.335 212.609C100.592 212.852 100.897 213.046 101.233 213.177C101.569 213.309 101.929 213.377 102.292 213.377C102.768 213.372 103.234 213.249 103.642 213.019L240.948 137.913C242.125 137.19 243.105 136.215 243.809 135.066C244.512 133.918 244.92 132.628 244.999 131.302V9.49987C244.999 9.34002 244.999 9.17377 244.999 9.02671C244.991 8.90741 244.968 8.78941 244.931 8.67503C244.938 8.66318 244.941 8.65002 244.941 8.63667C244.941 8.62331 244.938 8.61015 244.931 8.5983C244.915 8.48201 244.884 8.36814 244.837 8.25941C244.785 8.08696 244.705 7.92308 244.601 7.77346C244.569 7.70003 244.523 7.63281 244.466 7.57524C244.435 7.52311 244.396 7.47568 244.351 7.43457C244.274 7.34214 244.185 7.25846 244.088 7.1852V7.1852C243.98 7.11252 243.864 7.05039 243.743 6.99977C243.455 6.86953 243.138 6.8039 242.818 6.80794L242.731 6.76318Z" fill="#E0E0E0"/>
<path d="M139.246 80.0333L230.896 29.9097V33.938L139.246 84.0552C138.382 84.5284 137.68 84.1383 137.68 83.1984V82.6037C137.707 82.0884 137.863 81.5865 138.135 81.1396C138.408 80.6927 138.788 80.3135 139.246 80.0333V80.0333Z" fill="#E0E0E0"/>
<path d="M238.254 25.8879L232.705 28.9187V32.947L238.254 29.9098C238.709 29.6294 239.087 29.2518 239.359 28.8076C239.631 28.3634 239.789 27.8648 239.82 27.3521V26.7575C239.82 25.7984 239.118 25.4147 238.254 25.8879Z" fill="#E0E0E0"/>
<path d="M235.554 30.364C235.444 30.3653 235.336 30.3365 235.243 30.2809C235.107 30.1882 234.999 30.0631 234.93 29.9183C234.862 29.7735 234.834 29.614 234.852 29.456C234.857 29.1097 234.949 28.7695 235.119 28.4629C235.289 28.1563 235.533 27.892 235.831 27.6912C235.941 27.6208 236.069 27.5796 236.202 27.5717C236.335 27.5638 236.468 27.5896 236.587 27.6465C236.722 27.74 236.829 27.8652 236.898 28.0098C236.966 28.1544 236.994 28.3135 236.978 28.4713C236.974 28.8179 236.884 29.1587 236.713 29.4655C236.543 29.7723 236.298 30.0365 235.999 30.2361C235.865 30.3145 235.712 30.3586 235.554 30.364V30.364ZM236.269 27.8831C236.174 27.888 236.082 27.9143 235.999 27.9598C235.751 28.1332 235.547 28.3582 235.405 28.6175C235.262 28.8768 235.184 29.1637 235.176 29.456C235.163 29.5594 235.178 29.6642 235.218 29.7611C235.258 29.8581 235.322 29.9443 235.405 30.0123C235.474 30.0418 235.55 30.0532 235.624 30.0453C235.699 30.0374 235.77 30.0106 235.831 29.9675C236.079 29.7941 236.283 29.5691 236.425 29.3098C236.568 29.0505 236.646 28.7637 236.654 28.4713C236.667 28.3679 236.652 28.2632 236.612 28.1662C236.572 28.0693 236.508 27.9831 236.425 27.915C236.377 27.8918 236.323 27.8808 236.269 27.8831V27.8831Z" fill="#FAFAFA"/>
<path d="M237.276 30.0952C237.243 30.1033 237.208 30.1033 237.175 30.0952L236.452 29.5773C236.423 29.5477 236.407 29.5089 236.407 29.4686C236.407 29.4283 236.423 29.3894 236.452 29.3599C236.464 29.3435 236.48 29.3296 236.498 29.3191C236.516 29.3085 236.536 29.3015 236.556 29.2985C236.577 29.2955 236.599 29.2966 236.619 29.3017C236.639 29.3067 236.658 29.3156 236.675 29.3279L237.404 29.8458C237.433 29.8754 237.449 29.9142 237.449 29.9545C237.449 29.9948 237.433 30.0337 237.404 30.0632C237.387 30.0776 237.366 30.088 237.344 30.0935C237.322 30.0991 237.298 30.0996 237.276 30.0952V30.0952Z" fill="#FAFAFA"/>
<path d="M103.575 82.4246C101.354 83.6331 99.5244 86.6 99.5244 90.8457V210.755C99.5236 211.215 99.6512 211.668 99.8941 212.066C100.137 212.465 100.487 212.796 100.908 213.026C101.329 213.255 101.807 213.376 102.293 213.374C102.779 213.373 103.256 213.25 103.676 213.018L134.197 196.33V77.3093L134.244 65.6592L103.575 82.4246Z" fill="#F0F0F0"/>
<path d="M133.575 66.727L133.521 77.3093V195.978L103.358 212.488C103.039 212.67 102.672 212.765 102.298 212.763C101.737 212.761 101.199 212.549 100.802 212.173C100.404 211.797 100.18 211.287 100.179 210.755V90.8457C100.179 86.5232 102.096 83.9336 103.885 82.9553L133.589 66.727H133.575ZM134.264 65.6592L103.608 82.4246C101.387 83.6331 99.5576 86.6 99.5576 90.8457V210.755C99.5576 211.099 99.6292 211.44 99.7683 211.758C99.9074 212.076 100.111 212.365 100.368 212.609C100.625 212.852 100.93 213.045 101.266 213.177C101.602 213.309 101.962 213.376 102.325 213.376C102.801 213.372 103.267 213.248 103.676 213.018L134.196 196.33V77.3093L134.244 65.6592H134.264Z" fill="#E0E0E0"/>
<path d="M111.669 96.6132L127.776 87.8084C128.343 87.5015 128.802 87.7509 128.802 88.3711V89.6499C128.783 89.987 128.68 90.315 128.502 90.6073C128.324 90.8995 128.075 91.1477 127.776 91.3316L111.669 100.124C111.102 100.43 110.643 100.181 110.643 99.5609V98.282C110.664 97.9472 110.768 97.6217 110.946 97.3318C111.124 97.042 111.372 96.7958 111.669 96.6132V96.6132Z" fill="#E0E0E0"/>
<path d="M107.436 100.053V101.332C107.416 101.669 107.313 101.997 107.135 102.289C106.956 102.581 106.708 102.83 106.41 103.014L105.998 103.251C105.431 103.564 104.972 103.308 104.972 102.688V101.409C104.991 101.071 105.094 100.743 105.273 100.449C105.451 100.156 105.699 99.9066 105.998 99.721L106.41 99.4844C106.977 99.1775 107.436 99.4332 107.436 100.053Z" fill="#2594A3"/>
<path d="M111.669 103.609L127.776 94.804C128.343 94.4971 128.802 94.7465 128.802 95.3667V96.6456C128.783 96.9826 128.68 97.3106 128.502 97.6029C128.324 97.8951 128.075 98.1433 127.776 98.3272L111.669 107.132C111.102 107.439 110.643 107.189 110.643 106.569V105.29C110.662 104.953 110.765 104.625 110.943 104.333C111.121 104.041 111.37 103.793 111.669 103.609V103.609Z" fill="#E0E0E0"/>
<path d="M107.436 107.049V108.328C107.417 108.665 107.314 108.993 107.135 109.285C106.957 109.577 106.708 109.825 106.41 110.009L105.998 110.246C105.431 110.559 104.972 110.31 104.972 109.69V108.411C104.991 108.073 105.094 107.744 105.273 107.451C105.451 107.158 105.699 106.908 105.998 106.723L106.41 106.486C106.977 106.173 107.436 106.428 107.436 107.049Z" fill="#2594A3"/>
<path d="M111.669 110.604L127.776 101.799C128.343 101.492 128.802 101.742 128.802 102.362V103.641C128.783 103.978 128.68 104.306 128.502 104.598C128.324 104.89 128.075 105.138 127.776 105.322L111.669 114.127C111.102 114.434 110.643 114.185 110.643 113.564V112.286C110.662 111.948 110.765 111.62 110.943 111.328C111.121 111.036 111.37 110.788 111.669 110.604Z" fill="#E0E0E0"/>
<path d="M107.436 114.044V115.323C107.417 115.66 107.314 115.988 107.135 116.28C106.957 116.572 106.708 116.821 106.41 117.004L105.998 117.241C105.431 117.554 104.972 117.305 104.972 116.685V115.406C104.991 115.068 105.094 114.739 105.273 114.446C105.451 114.153 105.699 113.904 105.998 113.718L106.41 113.481C106.977 113.174 107.436 113.424 107.436 114.044Z" fill="#2594A3"/>
<path d="M111.669 133.802L127.776 124.997C128.343 124.69 128.802 124.939 128.802 125.56V126.838C128.783 127.175 128.68 127.504 128.502 127.796C128.324 128.088 128.075 128.336 127.776 128.52L111.669 137.325C111.102 137.632 110.643 137.382 110.643 136.762V135.483C110.662 135.146 110.765 134.818 110.943 134.526C111.121 134.234 111.37 133.986 111.669 133.802V133.802Z" fill="#E0E0E0"/>
<path d="M107.436 137.273V138.552C107.417 138.889 107.314 139.217 107.135 139.51C106.957 139.802 106.708 140.05 106.41 140.234L105.998 140.471C105.431 140.784 104.972 140.534 104.972 139.914V138.635C104.991 138.298 105.094 137.969 105.273 137.676C105.451 137.382 105.699 137.133 105.998 136.947L106.41 136.711C106.977 136.372 107.436 136.634 107.436 137.273Z" fill="#2594A3"/>
<path d="M111.669 139.997L127.776 131.193C128.343 130.886 128.802 131.135 128.802 131.755V133.034C128.783 133.371 128.68 133.699 128.502 133.992C128.324 134.284 128.075 134.532 127.776 134.716L111.669 143.521C111.102 143.828 110.643 143.578 110.643 142.958V141.679C110.662 141.342 110.765 141.014 110.943 140.722C111.121 140.43 111.37 140.181 111.669 139.997V139.997Z" fill="#E0E0E0"/>
<path d="M107.436 143.438V144.716C107.417 145.053 107.314 145.381 107.135 145.674C106.957 145.966 106.708 146.214 106.41 146.398L105.998 146.635C105.431 146.948 104.972 146.699 104.972 146.078V144.799C104.991 144.462 105.094 144.133 105.273 143.84C105.451 143.547 105.699 143.297 105.998 143.111L106.41 142.875C106.977 142.568 107.436 142.817 107.436 143.438Z" fill="#2594A3"/>
<path d="M111.669 146.225L127.776 137.421C128.343 137.114 128.802 137.363 128.802 137.983V139.262C128.783 139.599 128.68 139.927 128.502 140.22C128.324 140.512 128.075 140.76 127.776 140.944L111.669 149.749C111.102 150.056 110.643 149.806 110.643 149.186V147.907C110.662 147.57 110.765 147.242 110.943 146.95C111.121 146.658 111.37 146.409 111.669 146.225V146.225Z" fill="#E0E0E0"/>
<path d="M107.436 149.634V150.913C107.417 151.25 107.314 151.578 107.135 151.87C106.957 152.162 106.708 152.41 106.41 152.594L105.998 152.831C105.431 153.144 104.972 152.895 104.972 152.274V150.996C104.991 150.658 105.094 150.329 105.273 150.036C105.451 149.743 105.699 149.493 105.998 149.308L106.41 149.071C106.977 148.783 107.436 149.013 107.436 149.634Z" fill="#2594A3"/>
<path d="M111.393 117.842V120.029L113.391 117.842H111.393Z" fill="#2594A3"/>
<path d="M114.619 117.394C114.619 117.797 114.923 117.963 115.294 117.752L128.121 110.757C128.318 110.634 128.482 110.468 128.6 110.274C128.717 110.08 128.784 109.862 128.796 109.638C128.796 109.229 128.492 109.063 128.121 109.267L115.294 116.301C115.1 116.421 114.937 116.582 114.82 116.772C114.703 116.962 114.634 117.175 114.619 117.394Z" fill="#E0E0E0"/>
<path d="M111.393 121.353V123.539L113.391 121.353H111.393Z" fill="#2594A3"/>
<path d="M114.619 120.905C114.619 121.307 114.923 121.467 115.294 121.263L128.121 114.255C128.318 114.131 128.482 113.966 128.6 113.772C128.717 113.577 128.784 113.359 128.796 113.136C128.796 112.726 128.492 112.56 128.121 112.765L115.294 119.798C115.098 119.92 114.934 120.083 114.817 120.275C114.7 120.467 114.632 120.683 114.619 120.905V120.905Z" fill="#E0E0E0"/>
<path d="M111.393 124.863V127.043L113.391 124.863H111.393Z" fill="#2594A3"/>
<path d="M114.619 124.415C114.619 124.818 114.923 124.978 115.294 124.773L128.121 117.778C128.318 117.654 128.481 117.488 128.598 117.294C128.715 117.1 128.783 116.882 128.796 116.659C128.796 116.25 128.492 116.084 128.121 116.288L115.294 123.322C115.1 123.442 114.937 123.603 114.82 123.793C114.703 123.983 114.634 124.196 114.619 124.415Z" fill="#E0E0E0"/>
<path d="M111.393 128.373V130.553L113.391 128.373H111.393Z" fill="#2594A3"/>
<path d="M114.619 127.925C114.619 128.328 114.923 128.488 115.294 128.284L128.121 121.288C128.318 121.164 128.481 120.999 128.598 120.804C128.715 120.61 128.783 120.393 128.796 120.169C128.796 119.76 128.492 119.594 128.121 119.799L115.294 126.832C115.099 126.951 114.936 127.112 114.819 127.302C114.701 127.492 114.633 127.706 114.619 127.925V127.925Z" fill="#E0E0E0"/>
<path d="M243.655 6.97402C243.211 6.81627 242.733 6.76352 242.262 6.82034C241.792 6.87717 241.343 7.04185 240.955 7.30012L103.575 82.4248C102.398 83.1462 101.418 84.1204 100.715 85.2681C100.011 86.4159 99.6029 87.7048 99.5241 89.03V96.428L94.3867 93.5698V86.2613C94.4637 84.9397 94.8688 83.6539 95.5691 82.5084C96.2694 81.3629 97.2451 80.3901 98.417 79.6689L235.804 4.54424C236.952 3.90483 237.985 3.90483 238.727 4.32045C239.47 4.73607 242.798 6.54561 243.655 6.97402Z" fill="#2594A3"/>
<path d="M244.965 9.47413C244.965 7.06994 243.156 6.09164 240.915 7.30652L103.575 82.4248C102.398 83.1455 101.417 84.1195 100.714 85.2674C100.01 86.4153 99.6021 87.7045 99.5244 89.03V96.4344L244.965 16.9233V9.47413Z" fill="#2594A3"/>
<g opacity="0.2">
<path d="M240.941 7.3003L103.575 82.425C102.395 83.1276 101.42 84.0993 100.739 85.2512L95.6289 82.4506C96.2921 81.3113 97.2519 80.3516 98.417 79.6627L235.804 4.54442C236.223 4.25663 236.716 4.083 237.232 4.04242C237.747 4.00183 238.264 4.09585 238.727 4.31424C239.45 4.73625 242.778 6.533 243.642 6.9678C243.197 6.81041 242.719 6.75842 242.248 6.81638C241.777 6.87433 241.329 7.04047 240.941 7.3003V7.3003Z" fill="white"/>
</g>
<path opacity="0.15" d="M94.4004 93.589V86.2613C94.4516 84.9032 94.875 83.581 95.629 82.4248L100.753 85.219C100.01 86.3598 99.596 87.6648 99.5513 89.0044V96.4088L94.4004 93.589Z" fill="black"/>
<path d="M229.101 17.3067C228.257 17.7671 227.568 19.1419 227.568 20.3759C227.568 21.61 228.243 22.2302 229.101 21.7699C229.958 21.3095 230.627 19.9347 230.627 18.7007C230.627 17.4666 229.945 16.8464 229.101 17.3067Z" fill="#19636D"/>
<path d="M234.61 14.2887C233.759 14.7491 233.077 16.1238 233.077 17.3579C233.077 18.5919 233.752 19.2122 234.61 18.7518C235.467 18.2914 236.135 16.9167 236.135 15.6826C236.135 14.4485 235.46 13.8283 234.61 14.2887Z" fill="#19636D"/>
<path d="M240.111 11.2711C239.267 11.7379 238.585 13.1062 238.585 14.3403C238.585 15.5744 239.26 16.1946 240.111 15.7342C240.961 15.2738 241.643 13.8991 241.643 12.665C241.643 11.431 240.961 10.8107 240.111 11.2711Z" fill="#19636D"/>
<path d="M100.78 212.948L96.5404 210.627C95.9747 210.318 95.491 209.891 95.126 209.378C94.761 208.865 94.5244 208.279 94.4342 207.667C94.4243 207.484 94.4243 207.3 94.4342 207.117V93.5762L99.5783 96.428V210.755C99.579 210.892 99.5903 211.029 99.6121 211.164C99.6229 211.238 99.641 211.311 99.6661 211.382C99.6592 211.413 99.6592 211.446 99.6661 211.478C99.6882 211.559 99.7176 211.638 99.7538 211.714C99.7532 211.725 99.7532 211.736 99.7538 211.746L99.8956 212.028C99.9496 212.117 100.017 212.207 100.078 212.29C100.126 212.354 100.178 212.416 100.233 212.475C100.447 212.708 100.703 212.903 100.989 213.051L100.78 212.948Z" fill="#E0E0E0"/>
<path d="M145.281 261.128C144.458 261.146 143.645 260.964 142.918 260.598L113.943 244.759L115.408 243.954L113.336 242.214C113.261 242.151 113.204 242.071 113.169 241.982C113.134 241.893 113.121 241.797 113.133 241.703C113.15 241.6 113.192 241.503 113.257 241.42C113.321 241.336 113.406 241.269 113.505 241.223L126.453 234.139C126.806 233.968 127.216 233.935 127.594 234.049L130.881 235.219C130.974 235.248 131.072 235.26 131.169 235.253C131.266 235.247 131.361 235.222 131.448 235.181L155.934 221.792L156.103 221.887L184.531 237.432C184.808 237.582 185.038 237.801 185.197 238.064C185.356 238.327 185.438 238.625 185.435 238.928C185.438 239.231 185.354 239.529 185.194 239.791C185.034 240.053 184.802 240.269 184.524 240.418L147.637 260.598C146.912 260.961 146.101 261.144 145.281 261.128V261.128ZM115.294 244.759L143.242 260.041C143.872 260.337 144.565 260.491 145.267 260.491C145.97 260.491 146.663 260.337 147.293 260.041L184.186 239.861C184.36 239.767 184.505 239.63 184.605 239.466C184.705 239.301 184.758 239.115 184.758 238.925C184.758 238.735 184.705 238.548 184.605 238.384C184.505 238.219 184.36 238.083 184.186 237.988L155.934 222.54L131.799 235.744C131.627 235.831 131.437 235.884 131.242 235.9C131.047 235.915 130.851 235.892 130.665 235.833L127.371 234.663C127.278 234.635 127.18 234.624 127.083 234.632C126.985 234.639 126.891 234.665 126.804 234.708L113.849 241.786L115.928 243.525C116.002 243.589 116.059 243.669 116.094 243.758C116.13 243.847 116.142 243.942 116.131 244.037C116.112 244.138 116.069 244.234 116.004 244.318C115.94 244.401 115.856 244.469 115.759 244.516L115.294 244.759Z" fill="#E0E0E0"/>
<path d="M161.874 261.141C161.051 261.153 160.238 260.966 159.512 260.598L130.517 244.759L131.988 243.954L129.909 242.214C129.835 242.151 129.777 242.071 129.742 241.982C129.707 241.893 129.695 241.797 129.707 241.703C129.725 241.601 129.769 241.505 129.833 241.422C129.897 241.339 129.981 241.271 130.078 241.223L143.033 234.139C143.383 233.968 143.791 233.936 144.167 234.049L147.455 235.219C147.644 235.278 147.85 235.264 148.028 235.181L172.507 221.792L172.683 221.887L194.461 233.825L194.123 234.382L172.521 222.565L148.373 235.744C148.2 235.831 148.011 235.884 147.815 235.9C147.62 235.915 147.424 235.892 147.239 235.833L143.951 234.663C143.761 234.606 143.555 234.622 143.377 234.708L130.429 241.786L132.501 243.532C132.576 243.594 132.633 243.673 132.668 243.761C132.704 243.848 132.716 243.943 132.704 244.037C132.688 244.139 132.645 244.236 132.581 244.32C132.516 244.403 132.431 244.471 132.333 244.516L131.887 244.766L159.849 260.041C160.479 260.337 161.172 260.491 161.874 260.491C162.577 260.491 163.27 260.337 163.9 260.041L194.441 243.333L194.778 243.896L164.237 260.598C163.511 260.966 162.698 261.153 161.874 261.141V261.141Z" fill="#2594A3"/>
<path d="M201.827 245.335C198.946 245.39 196.097 244.749 193.55 243.474V243.474C191.261 242.195 190.019 240.533 190.046 238.723C190.073 236.913 191.342 235.289 193.597 234.055C198.168 231.555 205.607 231.555 210.177 234.055C212.459 235.302 213.708 236.977 213.701 238.768C213.695 240.558 212.425 242.233 210.137 243.474C207.576 244.747 204.718 245.387 201.827 245.335V245.335ZM193.894 242.911C198.255 245.296 205.371 245.296 209.799 242.911C211.865 241.792 213.013 240.322 213.02 238.768C213.026 237.214 211.899 235.737 209.84 234.612C205.452 232.214 198.323 232.214 193.935 234.612C191.91 235.731 190.755 237.169 190.728 238.736C190.701 240.302 191.829 241.786 193.894 242.911V242.911Z" fill="#2594A3"/>
<path d="M205.648 241.498C205.529 241.499 205.413 241.47 205.31 241.415L197.763 237.284C197.686 237.242 197.618 237.186 197.564 237.12C197.509 237.053 197.469 236.977 197.446 236.895C197.423 236.814 197.417 236.729 197.428 236.646C197.44 236.562 197.469 236.481 197.513 236.408C197.557 236.335 197.616 236.271 197.687 236.22C197.757 236.168 197.838 236.131 197.924 236.109C198.01 236.087 198.099 236.081 198.187 236.092C198.276 236.103 198.361 236.13 198.438 236.172L205.992 240.296C206.07 240.338 206.138 240.395 206.192 240.462C206.247 240.53 206.286 240.607 206.309 240.689C206.331 240.771 206.337 240.857 206.324 240.941C206.311 241.025 206.281 241.105 206.235 241.178C206.176 241.276 206.09 241.357 205.987 241.413C205.884 241.469 205.767 241.499 205.648 241.498Z" fill="#2594A3"/>
<path d="M198.1 241.498C197.948 241.502 197.799 241.457 197.678 241.371C197.556 241.285 197.469 241.162 197.43 241.023C197.391 240.884 197.402 240.737 197.463 240.605C197.523 240.473 197.628 240.364 197.762 240.296L205.31 236.172C205.386 236.129 205.471 236.101 205.559 236.09C205.647 236.078 205.737 236.084 205.822 236.105C205.908 236.126 205.989 236.164 206.06 236.215C206.13 236.266 206.19 236.329 206.234 236.402C206.28 236.475 206.311 236.556 206.323 236.64C206.336 236.724 206.331 236.809 206.308 236.891C206.286 236.974 206.246 237.051 206.191 237.118C206.137 237.185 206.069 237.242 205.991 237.284L198.437 241.415C198.334 241.47 198.218 241.499 198.1 241.498Z" fill="#2594A3"/>
<path d="M101.725 65.9217C102.4 66.3245 105.607 68.0509 106.41 68.441C105.984 68.2935 105.527 68.2468 105.077 68.3047C104.628 68.3626 104.2 68.5235 103.831 68.7734L50.2361 98.0969C49.1246 98.7885 48.2012 99.7188 47.5407 100.812C46.8803 101.905 46.5016 103.131 46.4353 104.389V162.166C46.4076 163.211 46.815 164.224 47.5695 164.986C47.6592 165.066 47.7539 165.141 47.853 165.21C44.7949 163.151 41.5949 163.183 41.5342 159.525V101.748C41.609 100.488 41.9949 99.2626 42.6609 98.1699C43.3269 97.0771 44.2543 96.1476 45.3687 95.4562L98.9639 66.1327C99.3642 65.8715 99.83 65.7145 100.315 65.6775C100.799 65.6404 101.286 65.7246 101.725 65.9217Z" fill="#263238"/>
<path d="M105.539 68.2744C104.932 68.295 104.342 68.4647 103.825 68.7668L50.2363 98.0903C49.1271 98.7841 48.2053 99.7149 47.5452 100.808C46.8851 101.9 46.505 103.125 46.4355 104.382V162.16C46.4355 163.988 47.5089 165.548 49.0076 165.548C49.4556 165.536 49.8927 165.415 50.2768 165.197L103.933 135.854C105.038 135.166 105.958 134.242 106.618 133.155C107.279 132.069 107.66 130.852 107.733 129.601L107.659 70.896C107.659 69.2527 106.795 68.3384 105.539 68.3384V68.2744Z" fill="#19636D"/>
<path d="M103.817 68.7668L50.2425 98.0903C49.1156 98.7587 48.1865 99.6872 47.5421 100.789L42.668 98.1159C43.3125 97.0264 44.2425 96.1125 45.3683 95.4624L98.9635 66.1389C99.3623 65.8661 99.8321 65.7018 100.322 65.6635C100.812 65.6251 101.304 65.7143 101.745 65.9215C102.42 66.3243 105.62 68.0379 106.423 68.4791C105.998 68.3192 105.537 68.2618 105.082 68.312C104.627 68.3622 104.193 68.5185 103.817 68.7668Z" fill="#455A64"/>
<path d="M63.5762 101.741V136.27C63.5762 137.849 64.7441 138.488 66.1888 137.702L97.7559 120.438C98.5141 119.97 99.1461 119.341 99.601 118.6C100.056 117.86 100.321 117.028 100.375 116.173V81.6446C100.375 80.0653 99.2073 79.4258 97.7626 80.2123L66.1955 97.4765C65.4369 97.9435 64.8046 98.5727 64.3497 99.3135C63.8947 100.054 63.6298 100.886 63.5762 101.741V101.741Z" fill="#2594A3"/>
<path opacity="0.3" d="M85.8608 95.8653C85.8608 94.286 84.6862 93.6465 83.2415 94.433L63.5762 105.188V136.263C63.5762 137.843 64.7441 138.482 66.1888 137.696L85.8541 126.941L85.8608 95.8653Z" fill="black"/>
<path d="M53.7666 117.835V152.364C53.7666 153.943 54.9345 154.582 56.3792 153.796L87.9463 136.532C88.7076 136.062 89.341 135.428 89.795 134.683C90.249 133.937 90.5107 133.101 90.5589 132.241V97.713C90.5589 96.1336 89.391 95.4942 87.9463 96.2807L56.3792 113.545C55.6186 114.015 54.9858 114.649 54.5319 115.395C54.078 116.14 53.8158 116.976 53.7666 117.835V117.835Z" fill="#2594A3"/>
<path opacity="0.3" d="M53.7666 117.835V152.364C53.7666 153.943 54.9345 154.582 56.3792 153.796L87.9463 136.532C88.7076 136.062 89.341 135.428 89.795 134.683C90.249 133.937 90.5107 133.101 90.5589 132.241V97.713C90.5589 96.1336 89.391 95.4942 87.9463 96.2807L56.3792 113.545C55.6186 114.015 54.9858 114.649 54.5319 115.395C54.078 116.14 53.8158 116.976 53.7666 117.835V117.835Z" fill="white"/>
<path d="M83.2002 122.292V118.801C83.2002 118.162 82.7344 117.912 82.1606 118.232L75.8417 121.685V114.779C75.8417 114.14 75.3759 113.89 74.7954 114.204L71.6089 115.949C71.3045 116.137 71.0511 116.39 70.8693 116.688C70.6875 116.985 70.5824 117.319 70.5626 117.663V124.569L64.2505 128.021C63.9457 128.209 63.692 128.461 63.5101 128.759C63.3283 129.057 63.2234 129.391 63.2041 129.735V133.226C63.2041 133.866 63.6699 134.109 64.2505 133.795L70.5626 130.342V137.274C70.5626 137.913 71.0351 138.163 71.6089 137.843L74.7954 136.104C75.1003 135.915 75.354 135.661 75.5358 135.362C75.7176 135.063 75.8224 134.728 75.8417 134.384V127.459L82.1606 124.006C82.4626 123.817 82.7139 123.563 82.8943 123.266C83.0748 122.968 83.1795 122.635 83.2002 122.292Z" fill="white"/>
<path d="M125.103 144.697L121.37 142.657V179.091L125.103 181.124L132.334 166.75L142.622 161.13L125.103 144.697Z" fill="#E0E0E0"/>
<path d="M125.103 181.432C125.044 181.432 124.987 181.419 124.934 181.393L121.208 179.354C121.159 179.327 121.119 179.289 121.09 179.243C121.062 179.197 121.047 179.145 121.046 179.091V142.645C121.047 142.591 121.063 142.538 121.091 142.491C121.119 142.444 121.16 142.405 121.208 142.376C121.259 142.351 121.316 142.338 121.373 142.338C121.431 142.338 121.488 142.351 121.539 142.376L125.265 144.416L125.326 144.461L142.844 160.932C142.88 160.966 142.908 161.007 142.924 161.053C142.94 161.098 142.945 161.147 142.939 161.194C142.934 161.24 142.917 161.285 142.89 161.324C142.863 161.363 142.826 161.395 142.784 161.418L132.583 166.994L125.42 181.259C125.401 181.297 125.374 181.331 125.34 181.358C125.306 181.386 125.267 181.406 125.225 181.419C125.186 181.433 125.144 181.437 125.103 181.432V181.432ZM121.728 178.912L124.982 180.696L132.07 166.629C132.098 166.573 132.142 166.526 132.198 166.495L142.115 161.073L124.901 144.947L121.701 143.195L121.728 178.912Z" fill="#455A64"/>
<path d="M125.104 144.697V181.125L132.334 166.751L142.622 161.13L125.104 144.697Z" fill="#FAFAFA"/>
<path d="M125.103 181.431H125.029C124.956 181.417 124.891 181.379 124.845 181.324C124.798 181.269 124.772 181.201 124.773 181.131V144.684C124.771 144.623 124.789 144.563 124.824 144.511C124.859 144.459 124.91 144.419 124.969 144.395C125.029 144.371 125.095 144.364 125.158 144.376C125.222 144.387 125.28 144.417 125.326 144.46L142.845 160.932C142.881 160.966 142.908 161.007 142.924 161.052C142.941 161.098 142.946 161.146 142.939 161.194C142.934 161.24 142.917 161.285 142.89 161.324C142.863 161.362 142.827 161.395 142.784 161.418L132.583 166.993L125.421 181.259C125.393 181.315 125.348 181.362 125.291 181.393C125.234 181.424 125.169 181.437 125.103 181.431V181.431ZM125.427 145.432V179.763L132.043 166.616C132.071 166.56 132.115 166.513 132.172 166.482L142.089 161.06L125.427 145.432Z" fill="#455A64"/>
<path d="M114.477 142.593L110.751 140.554V176.987L114.477 179.021L121.714 164.647L131.996 159.02L114.477 142.593Z" fill="#263238"/>
<path d="M114.478 142.593V179.021L121.714 164.647L131.996 159.02L114.478 142.593Z" fill="#455A64"/>
<path d="M195.63 151.705C195.577 151.705 195.525 151.692 195.48 151.666C195.435 151.64 195.398 151.603 195.373 151.558C195.334 151.493 195.323 151.415 195.343 151.342C195.363 151.269 195.413 151.207 195.481 151.168L197.048 150.311C197.117 150.273 197.2 150.263 197.278 150.283C197.356 150.303 197.422 150.351 197.463 150.417C197.503 150.483 197.514 150.562 197.493 150.635C197.472 150.709 197.421 150.772 197.351 150.81L195.785 151.667C195.738 151.692 195.684 151.706 195.63 151.705V151.705ZM193.456 151.187C193.416 151.188 193.377 151.182 193.34 151.168C193.303 151.154 193.27 151.134 193.242 151.107C193.213 151.081 193.191 151.05 193.175 151.015C193.16 150.981 193.152 150.944 193.152 150.906C193.149 150.891 193.149 150.876 193.152 150.861V149.173C193.152 149.097 193.184 149.024 193.241 148.97C193.298 148.916 193.375 148.886 193.456 148.886C193.537 148.886 193.614 148.916 193.671 148.97C193.728 149.024 193.76 149.097 193.76 149.173V150.893C193.76 150.971 193.727 151.046 193.669 151.101C193.611 151.156 193.532 151.187 193.449 151.187H193.456ZM199.815 149.416C199.748 149.419 199.682 149.399 199.627 149.361C199.573 149.323 199.534 149.269 199.517 149.207C199.5 149.145 199.505 149.08 199.532 149.021C199.56 148.963 199.607 148.915 199.667 148.886L201.233 148.029C201.267 148.009 201.305 147.997 201.344 147.991C201.383 147.986 201.423 147.988 201.462 147.998C201.5 148.007 201.536 148.024 201.568 148.047C201.599 148.07 201.625 148.098 201.645 148.131C201.684 148.196 201.695 148.274 201.675 148.347C201.655 148.42 201.605 148.482 201.537 148.521L199.964 149.378C199.917 149.406 199.864 149.421 199.809 149.423L199.815 149.416ZM203.994 147.134C203.941 147.133 203.889 147.12 203.844 147.094C203.799 147.068 203.762 147.031 203.738 146.986C203.698 146.921 203.687 146.843 203.707 146.771C203.728 146.698 203.777 146.635 203.846 146.596L205.419 145.74C205.453 145.716 205.493 145.701 205.534 145.693C205.576 145.685 205.619 145.685 205.66 145.694C205.702 145.703 205.741 145.72 205.775 145.744C205.809 145.768 205.837 145.799 205.858 145.834C205.879 145.869 205.892 145.907 205.896 145.947C205.9 145.987 205.895 146.028 205.882 146.066C205.868 146.104 205.847 146.139 205.818 146.169C205.789 146.198 205.754 146.222 205.716 146.238L204.149 147.095C204.1 147.122 204.044 147.135 203.987 147.134H203.994ZM193.456 146.603C193.375 146.603 193.298 146.573 193.241 146.519C193.184 146.465 193.152 146.391 193.152 146.315V144.601C193.152 144.525 193.184 144.452 193.241 144.398C193.298 144.344 193.375 144.314 193.456 144.314C193.537 144.314 193.614 144.344 193.671 144.398C193.728 144.452 193.76 144.525 193.76 144.601V146.315C193.76 146.353 193.752 146.391 193.736 146.427C193.72 146.462 193.697 146.494 193.668 146.521C193.64 146.548 193.605 146.569 193.568 146.583C193.53 146.597 193.49 146.604 193.449 146.603H193.456ZM208.18 144.844C208.127 144.844 208.075 144.83 208.029 144.806C207.983 144.781 207.944 144.746 207.916 144.704C207.877 144.638 207.868 144.559 207.889 144.486C207.911 144.413 207.962 144.351 208.031 144.314L209.597 143.457C209.665 143.43 209.741 143.428 209.811 143.45C209.88 143.472 209.939 143.517 209.976 143.577C210.013 143.638 210.026 143.708 210.012 143.777C209.999 143.845 209.959 143.906 209.901 143.949L208.328 144.806C208.281 144.832 208.227 144.846 208.173 144.844H208.18ZM212.365 142.562C212.311 142.563 212.258 142.55 212.212 142.524C212.165 142.498 212.127 142.46 212.102 142.415C212.062 142.349 212.052 142.272 212.072 142.199C212.092 142.126 212.142 142.063 212.21 142.025L213.783 141.168C213.818 141.145 213.857 141.129 213.899 141.121C213.94 141.113 213.983 141.114 214.025 141.122C214.066 141.131 214.105 141.148 214.139 141.172C214.173 141.196 214.201 141.227 214.222 141.262C214.243 141.297 214.256 141.336 214.26 141.376C214.264 141.416 214.259 141.456 214.246 141.494C214.233 141.532 214.211 141.567 214.182 141.597C214.154 141.627 214.119 141.65 214.08 141.667L212.507 142.523C212.462 142.548 212.411 142.561 212.358 142.562H212.365ZM193.463 142.031C193.382 142.031 193.305 142.001 193.248 141.947C193.191 141.893 193.159 141.82 193.159 141.743V140.03C193.159 139.953 193.191 139.88 193.248 139.826C193.305 139.772 193.382 139.742 193.463 139.742C193.543 139.742 193.621 139.772 193.678 139.826C193.735 139.88 193.767 139.953 193.767 140.03V141.75C193.766 141.788 193.757 141.826 193.74 141.861C193.724 141.896 193.7 141.927 193.67 141.954C193.641 141.98 193.606 142 193.568 142.013C193.53 142.027 193.49 142.033 193.449 142.031H193.463ZM216.551 140.273C216.486 140.27 216.424 140.248 216.374 140.209C216.323 140.171 216.287 140.118 216.271 140.059C216.254 140 216.258 139.937 216.282 139.88C216.305 139.823 216.348 139.775 216.402 139.742L217.968 138.885C218.003 138.866 218.041 138.853 218.081 138.847C218.121 138.842 218.161 138.844 218.2 138.853C218.239 138.863 218.276 138.88 218.308 138.903C218.34 138.926 218.367 138.954 218.387 138.987C218.426 139.054 218.436 139.132 218.414 139.205C218.393 139.278 218.342 139.34 218.272 139.377L216.706 140.234C216.661 140.259 216.61 140.272 216.558 140.273H216.551ZM220.736 137.99C220.683 137.989 220.63 137.975 220.584 137.949C220.538 137.923 220.5 137.887 220.473 137.843C220.434 137.777 220.424 137.699 220.446 137.625C220.467 137.552 220.518 137.49 220.588 137.453L222.154 136.596C222.224 136.559 222.306 136.55 222.384 136.57C222.461 136.591 222.526 136.639 222.566 136.705C222.605 136.77 222.616 136.848 222.596 136.921C222.576 136.994 222.526 137.056 222.458 137.095L220.885 137.952C220.836 137.979 220.78 137.992 220.723 137.99H220.736ZM193.463 137.453C193.382 137.453 193.305 137.423 193.248 137.369C193.191 137.315 193.159 137.241 193.159 137.165V135.451C193.159 135.414 193.167 135.376 193.182 135.341C193.197 135.306 193.22 135.275 193.248 135.248C193.276 135.221 193.31 135.2 193.347 135.186C193.383 135.171 193.423 135.164 193.463 135.164C193.503 135.164 193.542 135.171 193.579 135.186C193.616 135.2 193.649 135.221 193.678 135.248C193.706 135.275 193.728 135.306 193.743 135.341C193.759 135.376 193.767 135.414 193.767 135.451V137.165C193.767 137.204 193.758 137.242 193.742 137.278C193.726 137.314 193.703 137.346 193.673 137.373C193.643 137.4 193.608 137.421 193.57 137.435C193.531 137.448 193.49 137.455 193.449 137.453H193.463ZM224.922 135.701C224.869 135.702 224.816 135.689 224.77 135.665C224.724 135.64 224.685 135.604 224.659 135.56C224.619 135.495 224.608 135.417 224.628 135.344C224.649 135.271 224.698 135.209 224.767 135.17L226.34 134.313C226.373 134.293 226.411 134.279 226.451 134.274C226.49 134.268 226.53 134.27 226.569 134.279C226.608 134.289 226.644 134.306 226.675 134.329C226.707 134.353 226.733 134.382 226.751 134.416C226.79 134.482 226.8 134.56 226.779 134.633C226.757 134.706 226.706 134.768 226.637 134.806L225.07 135.662C225.021 135.689 224.965 135.702 224.908 135.701H224.922ZM229.101 133.418C229.048 133.418 228.996 133.404 228.951 133.378C228.906 133.352 228.869 133.315 228.844 133.271C228.824 133.239 228.81 133.203 228.805 133.166C228.799 133.129 228.801 133.091 228.811 133.054C228.821 133.018 228.839 132.984 228.863 132.954C228.887 132.924 228.918 132.9 228.952 132.881L230.518 132.024C230.588 131.986 230.671 131.976 230.749 131.996C230.827 132.015 230.893 132.064 230.934 132.13C230.974 132.196 230.985 132.274 230.964 132.348C230.943 132.422 230.892 132.485 230.822 132.523L229.256 133.38C229.207 133.414 229.148 133.434 229.087 133.437L229.101 133.418ZM193.463 132.881C193.382 132.881 193.305 132.851 193.248 132.797C193.191 132.743 193.159 132.67 193.159 132.593V130.88C193.159 130.803 193.191 130.73 193.248 130.676C193.305 130.622 193.382 130.592 193.463 130.592C193.543 130.592 193.621 130.622 193.678 130.676C193.735 130.73 193.767 130.803 193.767 130.88V132.593C193.767 132.632 193.758 132.671 193.742 132.706C193.726 132.742 193.703 132.775 193.673 132.801C193.643 132.828 193.608 132.849 193.57 132.863C193.531 132.877 193.49 132.883 193.449 132.881H193.463ZM232.915 130.726C232.868 130.738 232.82 130.738 232.773 130.726C232.738 130.709 232.706 130.686 232.681 130.657C232.655 130.629 232.636 130.596 232.624 130.56C232.612 130.524 232.608 130.487 232.611 130.449C232.615 130.412 232.626 130.376 232.645 130.343C232.852 129.978 232.967 129.573 232.982 129.16V128.814C232.993 128.746 233.029 128.684 233.085 128.639C233.14 128.594 233.21 128.569 233.283 128.569C233.356 128.569 233.426 128.594 233.481 128.639C233.536 128.684 233.572 128.746 233.583 128.814V129.16C233.571 129.665 233.432 130.16 233.178 130.605C233.148 130.647 233.107 130.681 233.058 130.703C233.009 130.724 232.955 130.732 232.901 130.726H232.915ZM193.449 128.322C193.37 128.322 193.294 128.293 193.237 128.24C193.18 128.187 193.147 128.116 193.146 128.041V126.321C193.146 126.244 193.178 126.171 193.234 126.117C193.291 126.063 193.369 126.033 193.449 126.033C193.53 126.033 193.607 126.063 193.664 126.117C193.721 126.171 193.753 126.244 193.753 126.321V128.041C193.751 128.116 193.719 128.187 193.662 128.24C193.605 128.293 193.529 128.322 193.449 128.322V128.322ZM233.279 126.231C233.199 126.231 233.122 126.201 233.065 126.147C233.008 126.093 232.976 126.02 232.976 125.943V124.23C232.969 124.189 232.972 124.147 232.984 124.107C232.996 124.067 233.017 124.031 233.046 123.999C233.074 123.968 233.11 123.943 233.149 123.925C233.189 123.908 233.232 123.899 233.276 123.899C233.32 123.899 233.363 123.908 233.403 123.925C233.442 123.943 233.478 123.968 233.506 123.999C233.535 124.031 233.556 124.067 233.568 124.107C233.58 124.147 233.583 124.189 233.576 124.23V125.943C233.571 126.016 233.537 126.085 233.481 126.135C233.424 126.184 233.35 126.212 233.273 126.212L233.279 126.231ZM193.449 123.75C193.369 123.75 193.291 123.72 193.234 123.666C193.178 123.612 193.146 123.539 193.146 123.462V121.749C193.146 121.673 193.178 121.599 193.234 121.545C193.291 121.491 193.369 121.461 193.449 121.461C193.53 121.461 193.607 121.491 193.664 121.545C193.721 121.599 193.753 121.673 193.753 121.749V123.462C193.748 123.535 193.714 123.604 193.657 123.654C193.601 123.704 193.526 123.731 193.449 123.731V123.75ZM233.279 121.653C233.201 121.653 233.125 121.623 233.069 121.571C233.014 121.518 232.982 121.446 232.982 121.372V119.652C232.993 119.583 233.029 119.521 233.085 119.476C233.14 119.431 233.21 119.407 233.283 119.407C233.356 119.407 233.426 119.431 233.481 119.476C233.536 119.521 233.572 119.583 233.583 119.652V121.372C233.576 121.446 233.539 121.514 233.48 121.563C233.421 121.612 233.344 121.637 233.266 121.634L233.279 121.653ZM193.449 119.178C193.369 119.178 193.291 119.148 193.234 119.094C193.178 119.04 193.146 118.967 193.146 118.891V117.177C193.146 117.101 193.178 117.028 193.234 116.974C193.291 116.92 193.369 116.889 193.449 116.889C193.53 116.889 193.607 116.92 193.664 116.974C193.721 117.028 193.753 117.101 193.753 117.177V118.891C193.748 118.964 193.714 119.032 193.657 119.082C193.601 119.132 193.526 119.159 193.449 119.159V119.178ZM233.279 117.081C233.2 117.079 233.125 117.048 233.069 116.995C233.013 116.941 232.982 116.869 232.982 116.793V115.08C232.976 115.039 232.979 114.997 232.991 114.957C233.003 114.917 233.024 114.881 233.053 114.849C233.081 114.818 233.116 114.793 233.156 114.775C233.196 114.758 233.239 114.749 233.283 114.749C233.327 114.749 233.37 114.758 233.409 114.775C233.449 114.793 233.485 114.818 233.513 114.849C233.542 114.881 233.563 114.917 233.575 114.957C233.587 114.997 233.59 115.039 233.583 115.08V116.793C233.578 116.869 233.542 116.939 233.483 116.989C233.423 117.039 233.345 117.065 233.266 117.062L233.279 117.081ZM193.449 114.6C193.369 114.6 193.291 114.57 193.234 114.516C193.178 114.462 193.146 114.389 193.146 114.312V112.599C193.146 112.523 193.178 112.449 193.234 112.395C193.291 112.341 193.369 112.311 193.449 112.311C193.53 112.311 193.607 112.341 193.664 112.395C193.721 112.449 193.753 112.523 193.753 112.599V114.312C193.748 114.385 193.714 114.454 193.657 114.504C193.601 114.554 193.526 114.581 193.449 114.581V114.6ZM233.279 112.509C233.2 112.508 233.125 112.477 233.069 112.423C233.013 112.369 232.982 112.297 232.982 112.222V110.508C232.976 110.467 232.979 110.425 232.991 110.385C233.003 110.346 233.024 110.309 233.053 110.277C233.081 110.246 233.116 110.221 233.156 110.204C233.196 110.186 233.239 110.177 233.283 110.177C233.327 110.177 233.37 110.186 233.409 110.204C233.449 110.221 233.485 110.246 233.513 110.277C233.542 110.309 233.563 110.346 233.575 110.385C233.587 110.425 233.59 110.467 233.583 110.508V112.222C233.578 112.297 233.542 112.367 233.483 112.417C233.423 112.467 233.345 112.494 233.266 112.49L233.279 112.509ZM193.449 110.028C193.369 110.028 193.291 109.998 193.234 109.944C193.178 109.89 193.146 109.817 193.146 109.741V108.027C193.146 107.951 193.178 107.878 193.234 107.824C193.291 107.77 193.369 107.739 193.449 107.739C193.53 107.739 193.607 107.77 193.664 107.824C193.721 107.878 193.753 107.951 193.753 108.027V109.741C193.748 109.814 193.714 109.882 193.657 109.932C193.601 109.982 193.526 110.009 193.449 110.009V110.028ZM233.279 107.931C233.2 107.931 233.124 107.902 233.067 107.849C233.01 107.797 232.977 107.725 232.976 107.65V105.943C232.976 105.866 233.008 105.793 233.065 105.739C233.122 105.685 233.199 105.655 233.279 105.655C233.36 105.655 233.437 105.685 233.494 105.739C233.551 105.793 233.583 105.866 233.583 105.943V107.663C233.573 107.734 233.535 107.8 233.476 107.846C233.417 107.892 233.342 107.916 233.266 107.912L233.279 107.931ZM193.449 105.45C193.37 105.45 193.294 105.421 193.237 105.368C193.18 105.316 193.147 105.244 193.146 105.169V103.449C193.146 103.373 193.178 103.299 193.234 103.245C193.291 103.191 193.369 103.161 193.449 103.161C193.53 103.161 193.607 103.191 193.664 103.245C193.721 103.299 193.753 103.373 193.753 103.449V105.169C193.746 105.241 193.711 105.307 193.655 105.356C193.599 105.405 193.525 105.431 193.449 105.431V105.45ZM233.279 103.359C233.199 103.359 233.122 103.329 233.065 103.275C233.008 103.221 232.976 103.148 232.976 103.072V101.339C232.976 101.262 233.008 101.189 233.065 101.135C233.122 101.081 233.199 101.051 233.279 101.051C233.36 101.051 233.437 101.081 233.494 101.135C233.551 101.189 233.583 101.262 233.583 101.339V103.052C233.583 103.091 233.575 103.13 233.559 103.166C233.543 103.201 233.519 103.234 233.49 103.26C233.46 103.287 233.425 103.308 233.386 103.322C233.348 103.336 233.307 103.342 233.266 103.34L233.279 103.359ZM193.449 100.878C193.369 100.878 193.291 100.848 193.234 100.794C193.178 100.74 193.146 100.667 193.146 100.591V98.877C193.146 98.8007 193.178 98.7275 193.234 98.6736C193.291 98.6196 193.369 98.5893 193.449 98.5893C193.53 98.5893 193.607 98.6196 193.664 98.6736C193.721 98.7275 193.753 98.8007 193.753 98.877V100.591C193.748 100.664 193.714 100.732 193.657 100.782C193.601 100.832 193.526 100.859 193.449 100.859V100.878ZM233.279 98.7875C233.199 98.7875 233.122 98.7572 233.065 98.7032C233.008 98.6493 232.976 98.5761 232.976 98.4998V96.7861C232.969 96.7452 232.972 96.7034 232.984 96.6636C232.996 96.6238 233.017 96.587 233.046 96.5556C233.074 96.5242 233.11 96.4991 233.149 96.4818C233.189 96.4646 233.232 96.4556 233.276 96.4556C233.32 96.4556 233.363 96.4646 233.403 96.4818C233.442 96.4991 233.478 96.5242 233.506 96.5556C233.535 96.587 233.556 96.6238 233.568 96.6636C233.58 96.7034 233.583 96.7452 233.576 96.7861V98.4998C233.571 98.5738 233.536 98.6431 233.478 98.6932C233.42 98.7432 233.344 98.7701 233.266 98.7683L233.279 98.7875ZM193.449 96.3066C193.369 96.3066 193.291 96.2763 193.234 96.2223C193.178 96.1683 193.146 96.0951 193.146 96.0188V94.3052C193.146 94.2289 193.178 94.1557 193.234 94.1017C193.291 94.0478 193.369 94.0175 193.449 94.0175C193.53 94.0175 193.607 94.0478 193.664 94.1017C193.721 94.1557 193.753 94.2289 193.753 94.3052V96.0188C193.748 96.0918 193.714 96.1601 193.657 96.21C193.601 96.2599 193.526 96.2875 193.449 96.2874V96.3066ZM233.279 94.2093C233.199 94.2093 233.122 94.179 233.065 94.125C233.008 94.0711 232.976 93.9979 232.976 93.9216V92.2079C232.969 92.167 232.972 92.1252 232.984 92.0854C232.996 92.0456 233.017 92.0088 233.046 91.9774C233.074 91.9461 233.11 91.9209 233.149 91.9036C233.189 91.8864 233.232 91.8774 233.276 91.8774C233.32 91.8774 233.363 91.8864 233.403 91.9036C233.442 91.9209 233.478 91.9461 233.506 91.9774C233.535 92.0088 233.556 92.0456 233.568 92.0854C233.58 92.1252 233.583 92.167 233.576 92.2079V93.9216C233.571 93.9956 233.536 94.0649 233.478 94.115C233.42 94.165 233.344 94.1919 233.266 94.1901L233.279 94.2093ZM193.449 91.7284C193.37 91.7284 193.294 91.699 193.237 91.6464C193.18 91.5938 193.147 91.5222 193.146 91.447V89.727C193.146 89.6507 193.178 89.5775 193.234 89.5235C193.291 89.4696 193.369 89.4393 193.449 89.4393C193.53 89.4393 193.607 89.4696 193.664 89.5235C193.721 89.5775 193.753 89.6507 193.753 89.727V91.447C193.746 91.5188 193.711 91.5856 193.655 91.6341C193.599 91.6827 193.525 91.7095 193.449 91.7092V91.7284ZM233.279 89.6375C233.199 89.6375 233.122 89.6072 233.065 89.5532C233.008 89.4992 232.976 89.4261 232.976 89.3498V87.6361C232.969 87.5952 232.972 87.5534 232.984 87.5136C232.996 87.4738 233.017 87.437 233.046 87.4056C233.074 87.3742 233.11 87.3491 233.149 87.3318C233.189 87.3146 233.232 87.3056 233.276 87.3056C233.32 87.3056 233.363 87.3146 233.403 87.3318C233.442 87.3491 233.478 87.3742 233.506 87.4056C233.535 87.437 233.556 87.4738 233.568 87.5136C233.58 87.5534 233.583 87.5952 233.576 87.6361V89.3178C233.578 89.3572 233.572 89.3965 233.557 89.4333C233.542 89.4702 233.519 89.5037 233.49 89.5319C233.461 89.5601 233.426 89.5823 233.387 89.5972C233.349 89.612 233.308 89.6192 233.266 89.6183L233.279 89.6375ZM194.158 87.3036C194.092 87.3032 194.029 87.283 193.976 87.2461C193.911 87.2003 193.869 87.1321 193.857 87.0566C193.846 86.981 193.867 86.9043 193.915 86.8433C194.174 86.5038 194.503 86.2169 194.88 85.9992L195.407 85.7115C195.476 85.674 195.558 85.6638 195.635 85.6829C195.712 85.702 195.778 85.749 195.819 85.8138C195.839 85.846 195.853 85.8817 195.858 85.9189C195.864 85.9561 195.862 85.9941 195.852 86.0304C195.842 86.0668 195.824 86.1008 195.8 86.1306C195.776 86.1604 195.745 86.1853 195.711 86.2038L195.184 86.4916C194.877 86.67 194.611 86.9048 194.401 87.1821C194.37 87.2173 194.331 87.245 194.286 87.2628C194.241 87.2806 194.193 87.288 194.145 87.2845L194.158 87.3036ZM233.273 85.0593C233.194 85.0593 233.118 85.0296 233.063 84.9769C233.007 84.9241 232.976 84.8526 232.976 84.7779V83.0579C232.986 82.9898 233.023 82.9276 233.078 82.8826C233.133 82.8377 233.203 82.813 233.276 82.813C233.349 82.813 233.419 82.8377 233.474 82.8826C233.529 82.9276 233.566 82.9898 233.576 83.0579V84.7779C233.57 84.852 233.533 84.9207 233.474 84.9695C233.414 85.0184 233.338 85.0437 233.259 85.0401L233.273 85.0593ZM198.168 84.8163C198.114 84.8174 198.061 84.8042 198.014 84.7783C197.968 84.7523 197.93 84.7145 197.905 84.6692C197.865 84.6038 197.854 84.5263 197.875 84.4533C197.895 84.3804 197.945 84.3178 198.013 84.2792L199.586 83.4224C199.655 83.3849 199.737 83.3747 199.814 83.3938C199.891 83.4129 199.957 83.4599 199.998 83.5247C200.038 83.5911 200.049 83.6696 200.028 83.7436C200.008 83.8176 199.958 83.8813 199.89 83.9211L198.33 84.7588C198.279 84.7865 198.22 84.7998 198.161 84.7971L198.168 84.8163ZM202.347 82.5272C202.282 82.5244 202.22 82.5022 202.17 82.4638C202.12 82.4253 202.084 82.3727 202.067 82.3135C202.05 82.2543 202.054 82.1916 202.078 82.1346C202.102 82.0776 202.144 82.0292 202.198 81.9965L203.765 81.1333C203.834 81.0951 203.917 81.0848 203.995 81.1046C204.073 81.1244 204.14 81.1727 204.18 81.2388C204.22 81.3049 204.231 81.3835 204.21 81.4573C204.189 81.531 204.138 81.5939 204.068 81.632L202.502 82.4888C202.451 82.5088 202.395 82.5154 202.34 82.508L202.347 82.5272ZM233.266 80.4875C233.185 80.4875 233.108 80.4572 233.051 80.4032C232.994 80.3492 232.962 80.2761 232.962 80.1997V78.4478C232.962 78.3714 232.994 78.2983 233.051 78.2443C233.108 78.1903 233.185 78.16 233.266 78.16C233.347 78.16 233.424 78.1903 233.481 78.2443C233.538 78.2983 233.57 78.3714 233.57 78.4478V80.1614C233.573 80.2013 233.567 80.2413 233.552 80.2789C233.538 80.3165 233.515 80.3509 233.486 80.3797C233.457 80.4086 233.421 80.4314 233.382 80.4467C233.343 80.4619 233.301 80.4693 233.259 80.4683L233.266 80.4875ZM206.532 80.2381C206.48 80.2373 206.428 80.2239 206.382 80.1994C206.336 80.1748 206.297 80.1398 206.269 80.0974C206.23 80.0312 206.22 79.9531 206.242 79.8801C206.263 79.807 206.314 79.745 206.384 79.7074L207.95 78.8506C207.984 78.8312 208.022 78.8184 208.061 78.8131C208.1 78.8077 208.14 78.8099 208.179 78.8194C208.217 78.8289 208.253 78.8457 208.285 78.8686C208.316 78.8915 208.342 78.9202 208.362 78.9529C208.402 79.0183 208.412 79.0959 208.392 79.1688C208.372 79.2418 208.322 79.3043 208.254 79.3429L206.681 80.1997C206.632 80.2195 206.578 80.2261 206.526 80.2189L206.532 80.2381ZM210.718 77.9554C210.669 77.952 210.621 77.9367 210.58 77.911C210.538 77.8852 210.505 77.8499 210.482 77.8083C210.442 77.7429 210.431 77.6653 210.452 77.5924C210.472 77.5194 210.521 77.4569 210.59 77.4183L212.156 76.5615C212.226 76.5237 212.309 76.5132 212.387 76.5323C212.465 76.5514 212.532 76.5986 212.575 76.6638C212.595 76.6964 212.608 76.7325 212.613 76.7699C212.618 76.8074 212.615 76.8455 212.605 76.8819C212.594 76.9183 212.576 76.9523 212.551 76.9818C212.526 77.0114 212.495 77.0359 212.46 77.0538L210.894 77.917C210.836 77.9407 210.773 77.9474 210.711 77.9362L210.718 77.9554ZM233.266 75.9157C233.185 75.9157 233.108 75.8854 233.051 75.8314C232.994 75.7774 232.962 75.7042 232.962 75.6279V73.9143C232.962 73.838 232.994 73.7648 233.051 73.7108C233.108 73.6569 233.185 73.6266 233.266 73.6266C233.347 73.6266 233.424 73.6569 233.481 73.7108C233.538 73.7648 233.57 73.838 233.57 73.9143V75.6279C233.563 75.7008 233.527 75.7685 233.469 75.8173C233.412 75.866 233.336 75.892 233.259 75.8901L233.266 75.9157ZM214.897 75.6663C214.844 75.6654 214.792 75.6521 214.746 75.6276C214.7 75.603 214.662 75.568 214.634 75.5256C214.594 75.4584 214.584 75.3794 214.606 75.3053C214.627 75.2312 214.678 75.168 214.748 75.1292L216.315 74.2724C216.384 74.2355 216.467 74.2262 216.544 74.2465C216.621 74.2669 216.687 74.3152 216.726 74.3811C216.766 74.4465 216.777 74.5241 216.757 74.597C216.736 74.67 216.687 74.7325 216.618 74.7711L215.045 75.6279C214.996 75.6477 214.943 75.6543 214.89 75.6471L214.897 75.6663ZM219.082 73.3772C219.029 73.3782 218.977 73.3657 218.93 73.341C218.884 73.3162 218.846 73.2802 218.819 73.2365C218.78 73.1711 218.769 73.0935 218.789 73.0206C218.809 72.9476 218.859 72.8851 218.927 72.8465L220.5 71.9897C220.534 71.9712 220.572 71.9593 220.611 71.9546C220.65 71.9499 220.689 71.9525 220.727 71.9623C220.765 71.9721 220.801 71.9889 220.832 72.0117C220.863 72.0345 220.889 72.0629 220.908 72.0952C220.928 72.1275 220.941 72.1632 220.946 72.2001C220.95 72.237 220.948 72.2745 220.937 72.3105C220.927 72.3464 220.909 72.38 220.885 72.4095C220.861 72.4389 220.831 72.4635 220.797 72.482L219.258 73.3324C219.198 73.3497 219.135 73.3497 219.076 73.3324L219.082 73.3772ZM233.259 71.3375C233.18 71.3375 233.104 71.3081 233.047 71.2555C232.99 71.2029 232.957 71.1313 232.955 71.0561V69.3361C232.955 69.2598 232.987 69.1866 233.044 69.1327C233.101 69.0787 233.179 69.0484 233.259 69.0484C233.34 69.0484 233.417 69.0787 233.474 69.1327C233.531 69.1866 233.563 69.2598 233.563 69.3361V71.0561C233.556 71.1279 233.521 71.1947 233.465 71.2432C233.409 71.2918 233.335 71.3186 233.259 71.3183V71.3375ZM223.254 71.0945C223.201 71.0936 223.148 71.0795 223.102 71.0538C223.056 71.028 223.018 70.9914 222.991 70.9474C222.952 70.8812 222.942 70.8031 222.964 70.7301C222.985 70.657 223.036 70.595 223.106 70.5574L224.672 69.7006C224.741 69.6631 224.823 69.6528 224.9 69.672C224.977 69.6911 225.043 69.7381 225.084 69.8029C225.104 69.8351 225.118 69.8708 225.123 69.908C225.129 69.9452 225.127 69.9831 225.117 70.0195C225.107 70.0559 225.089 70.0899 225.065 70.1197C225.041 70.1495 225.01 70.1744 224.976 70.1929L223.41 71.0561C223.36 71.0742 223.307 71.0808 223.254 71.0753V71.0945ZM227.44 68.8054C227.387 68.8064 227.334 68.7939 227.288 68.7692C227.242 68.7444 227.203 68.7083 227.177 68.6647C227.137 68.5983 227.126 68.5198 227.146 68.4458C227.166 68.3718 227.216 68.3081 227.285 68.2683L228.858 67.4115C228.892 67.3883 228.932 67.3724 228.973 67.3645C229.015 67.3567 229.058 67.3573 229.099 67.3661C229.141 67.375 229.18 67.3919 229.214 67.4159C229.248 67.4399 229.276 67.4704 229.297 67.5054C229.318 67.5404 229.331 67.5792 229.335 67.6192C229.339 67.6592 229.334 67.6996 229.321 67.7377C229.307 67.7759 229.286 67.8109 229.257 67.8406C229.228 67.8703 229.194 67.894 229.155 67.9102L227.588 68.767C227.541 68.7848 227.49 68.7914 227.44 68.7862V68.8054ZM233.151 66.7785C233.091 66.7785 233.033 66.7614 232.984 66.7294C232.934 66.6975 232.896 66.6522 232.874 66.5994C232.712 66.235 232.307 66.1838 231.842 66.4396L231.774 66.4779C231.74 66.4975 231.701 66.5103 231.661 66.5158C231.622 66.5212 231.581 66.5191 231.542 66.5096C231.503 66.5001 231.467 66.4833 231.435 66.4603C231.403 66.4373 231.376 66.4085 231.355 66.3756C231.335 66.343 231.322 66.3069 231.317 66.2695C231.312 66.232 231.315 66.1939 231.325 66.1575C231.336 66.1211 231.354 66.0871 231.379 66.0576C231.404 66.0281 231.435 66.0036 231.47 65.9856L231.538 65.9472C231.685 65.836 231.857 65.7581 232.041 65.7196C232.225 65.681 232.416 65.6828 232.599 65.7247C232.782 65.7667 232.952 65.8477 233.097 65.9616C233.242 66.0756 233.357 66.2193 233.435 66.382C233.464 66.4524 233.462 66.5308 233.431 66.6002C233.399 66.6696 233.34 66.7244 233.266 66.7529C233.229 66.7645 233.189 66.7667 233.151 66.7593V66.7785Z" fill="#2594A3"/>
<path d="M193.449 104.574C193.397 104.574 193.346 104.561 193.301 104.536L191.728 103.679C191.66 103.64 191.61 103.578 191.59 103.505C191.569 103.432 191.58 103.354 191.62 103.289C191.66 103.223 191.725 103.175 191.802 103.154C191.879 103.134 191.962 103.143 192.032 103.18L193.605 104.024C193.675 104.063 193.726 104.126 193.747 104.2C193.769 104.274 193.759 104.353 193.719 104.421C193.694 104.468 193.655 104.507 193.608 104.534C193.56 104.561 193.505 104.575 193.449 104.574ZM189.264 102.285C189.212 102.284 189.161 102.271 189.115 102.247L187.529 101.39C187.467 101.349 187.424 101.287 187.407 101.218C187.391 101.148 187.402 101.075 187.439 101.013C187.476 100.951 187.536 100.904 187.608 100.882C187.679 100.859 187.757 100.862 187.826 100.891L189.399 101.754C189.467 101.793 189.517 101.855 189.537 101.928C189.557 102.001 189.546 102.079 189.507 102.144C189.482 102.185 189.447 102.219 189.404 102.244C189.362 102.269 189.314 102.283 189.264 102.285ZM185.085 99.9959C185.031 99.9962 184.977 99.983 184.93 99.9575L183.364 99.1007C183.294 99.0631 183.243 99.0011 183.221 98.9281C183.2 98.855 183.21 98.7769 183.249 98.7107C183.269 98.6777 183.296 98.649 183.328 98.626C183.36 98.603 183.397 98.5862 183.435 98.5767C183.474 98.5672 183.515 98.5651 183.555 98.5705C183.595 98.576 183.633 98.5888 183.667 98.6084L185.234 99.4652C185.288 99.4979 185.33 99.5463 185.354 99.6033C185.378 99.6603 185.382 99.723 185.365 99.7822C185.348 99.8414 185.312 99.894 185.262 99.9325C185.212 99.9709 185.15 99.9931 185.085 99.9959V99.9959ZM180.899 97.7068C180.845 97.7101 180.79 97.6966 180.744 97.6684L179.178 96.8116C179.143 96.7931 179.113 96.7682 179.089 96.7384C179.065 96.7086 179.047 96.6745 179.037 96.6382C179.027 96.6018 179.025 96.5639 179.03 96.5267C179.036 96.4895 179.05 96.4538 179.07 96.4216C179.111 96.3568 179.177 96.3098 179.254 96.2907C179.331 96.2715 179.413 96.2818 179.482 96.3193L181.048 97.1761C181.103 97.2088 181.145 97.2572 181.169 97.3142C181.192 97.3712 181.196 97.4339 181.179 97.4931C181.163 97.5523 181.127 97.6049 181.076 97.6434C181.026 97.6818 180.964 97.704 180.899 97.7068V97.7068Z" fill="#2594A3"/>
<path d="M232.76 59.054C236.25 57.1357 239.079 58.6959 239.079 62.5132C239.079 66.3305 236.25 70.979 232.76 72.8845C229.27 74.7899 226.435 73.2489 226.435 69.4316C226.435 65.6143 229.256 60.9658 232.76 59.054Z" fill="#FAFAFA"/>
<path d="M229.924 73.9717C229.302 73.9805 228.689 73.8303 228.149 73.5369C226.873 72.8399 226.171 71.3884 226.171 69.451C226.171 65.557 229.067 60.8061 232.625 58.8623C234.393 57.8904 236.074 57.7434 237.35 58.4403C238.626 59.1373 239.335 60.5951 239.335 62.5326C239.335 66.4266 236.439 71.171 232.881 73.1213C231.989 73.6414 230.971 73.9343 229.924 73.9717V73.9717ZM235.575 58.4979C234.618 58.5338 233.687 58.8049 232.875 59.2843V59.2843C229.459 61.1514 226.677 65.7104 226.677 69.451C226.677 71.203 227.292 72.5074 228.399 73.1149C229.506 73.7223 231.011 73.5752 232.618 72.6928C236.034 70.8258 238.809 66.2667 238.809 62.5326C238.809 60.7742 238.194 59.4762 237.087 58.8687C236.629 58.6131 236.107 58.4784 235.575 58.4787V58.4979Z" fill="#2594A3"/>
<path d="M236.81 64.4573V63.0442C236.81 62.7884 236.621 62.6861 236.385 62.814L233.82 64.2143V61.4073C233.82 61.1515 233.631 61.0492 233.401 61.1771L232.085 61.8869C231.961 61.9632 231.858 62.066 231.784 62.1871C231.71 62.3082 231.668 62.4442 231.66 62.5838V65.3845L229.094 66.7848C228.97 66.8611 228.867 66.9639 228.794 67.085C228.72 67.2061 228.677 67.3421 228.669 67.4817V68.9012C228.669 69.157 228.858 69.2593 229.094 69.1314L231.66 67.7311V70.5317C231.66 70.7875 231.849 70.8962 232.085 70.7683L233.381 70.0586C233.503 69.9812 233.605 69.8779 233.677 69.757C233.75 69.636 233.792 69.5006 233.8 69.3616V66.561L236.365 65.1543C236.492 65.0802 236.599 64.9782 236.677 64.857C236.755 64.7358 236.8 64.5987 236.81 64.4573V64.4573Z" fill="#2594A3"/>
<path d="M235.143 80.7881V125.125C235.124 125.456 235.024 125.778 234.849 126.064C234.674 126.351 234.43 126.594 234.137 126.775L200.301 145.279C200.201 145.351 200.082 145.396 199.957 145.407C199.831 145.418 199.705 145.396 199.593 145.343L197.702 144.314C197.594 144.245 197.509 144.148 197.457 144.035C197.406 143.921 197.39 143.796 197.412 143.674V90.1427C197.43 89.8126 197.529 89.4911 197.703 89.2044C197.876 88.9177 198.119 88.674 198.411 88.493L223.821 74.6113L235.143 80.7881Z" fill="#F0F0F0"/>
<path d="M201.186 91.1081L197.655 89.2666C197.498 89.5357 197.411 89.8356 197.398 90.1426V143.668C197.376 143.79 197.392 143.915 197.444 144.028C197.495 144.142 197.58 144.239 197.689 144.307L199.579 145.337C199.692 145.39 199.818 145.412 199.943 145.401C200.068 145.389 200.188 145.345 200.288 145.273L201.172 144.793L201.186 91.1081Z" fill="#E0E0E0"/>
<path d="M235.142 80.788V125.125C235.122 125.455 235.021 125.777 234.846 126.063C234.671 126.35 234.428 126.593 234.136 126.775L200.301 145.279C199.747 145.58 199.295 145.337 199.295 144.729V91.1785C199.314 90.8479 199.415 90.5262 199.589 90.2396C199.764 89.9529 200.008 89.7094 200.301 89.5288L220.047 78.7227L225.711 75.6279L235.142 80.788Z" fill="#FAFAFA"/>
<path d="M225.712 76.1714L234.643 81.0629V125.125C234.625 125.373 234.548 125.613 234.417 125.828C234.286 126.043 234.105 126.227 233.887 126.365L200.052 144.87C199.99 144.906 199.921 144.928 199.849 144.934C199.849 144.934 199.802 144.864 199.802 144.729V91.1785C199.82 90.9315 199.896 90.6915 200.026 90.4767C200.156 90.2618 200.336 90.0776 200.551 89.938L220.298 79.1319L225.698 76.1714H225.712ZM225.698 75.6279L220.034 78.7227L200.288 89.5288C199.995 89.7094 199.751 89.9529 199.577 90.2396C199.402 90.5262 199.301 90.8479 199.282 91.1785V144.704C199.282 145.132 199.512 145.382 199.843 145.382C200 145.377 200.154 145.333 200.288 145.254L234.11 126.749C234.402 126.568 234.645 126.324 234.82 126.037C234.995 125.751 235.096 125.43 235.116 125.099V80.788L225.665 75.6279H225.698Z" fill="#E0E0E0"/>
<path d="M230.194 81.1399C230.558 81.1399 230.815 81.4149 230.815 81.8944V119.62C230.793 119.986 230.682 120.342 230.488 120.66C230.295 120.978 230.025 121.248 229.701 121.449L204.723 135.094C204.574 135.186 204.401 135.237 204.223 135.241C203.859 135.241 203.609 134.966 203.609 134.486V96.7608C203.63 96.3946 203.742 96.0384 203.936 95.7207C204.129 95.4031 204.399 95.1329 204.723 94.9321L221.6 85.7053L229.701 81.287C229.849 81.2001 230.019 81.1516 230.194 81.1463V81.1399ZM230.194 80.7051C229.936 80.7119 229.685 80.7825 229.465 80.9097L221.364 85.3217L204.486 94.5548C204.092 94.7935 203.763 95.1184 203.528 95.5022C203.293 95.8861 203.159 96.3176 203.136 96.7608V134.486C203.119 134.633 203.133 134.782 203.178 134.923C203.224 135.064 203.3 135.195 203.401 135.307C203.503 135.419 203.627 135.51 203.768 135.575C203.908 135.639 204.061 135.676 204.216 135.682C204.476 135.676 204.73 135.605 204.952 135.477L229.931 121.832C230.325 121.592 230.654 121.266 230.889 120.881C231.124 120.496 231.258 120.064 231.281 119.62V81.8944C231.299 81.7475 231.286 81.5986 231.241 81.4569C231.195 81.3153 231.12 81.1841 231.018 81.0717C230.917 80.9593 230.791 80.8681 230.651 80.8039C230.51 80.7397 230.357 80.7039 230.201 80.6987L230.194 80.7051Z" fill="#2594A3"/>
<path d="M225.712 84.8419V75.6279L235.163 80.788L226.738 85.3918C226.164 85.6987 225.712 85.4813 225.712 84.8419Z" fill="#E0E0E0"/>
<path d="M208.72 109.21L225.725 99.8168C226.098 99.5957 226.411 99.2948 226.638 98.9383C226.866 98.5818 227.002 98.1797 227.035 97.7643C227.035 97.0226 226.448 96.7412 225.725 97.1249L208.713 106.511C208.34 106.734 208.028 107.036 207.802 107.393C207.575 107.751 207.441 108.154 207.41 108.57C207.41 109.325 207.997 109.606 208.72 109.21ZM225.725 103.071L208.713 112.464C208.34 112.686 208.028 112.989 207.802 113.346C207.575 113.704 207.441 114.107 207.41 114.523C207.41 115.259 207.997 115.54 208.72 115.163L225.725 105.77C226.099 105.548 226.412 105.246 226.64 104.888C226.867 104.531 227.003 104.127 227.035 103.711C227.035 102.956 226.448 102.675 225.725 103.071V103.071ZM225.725 109.012L208.713 118.405C208.34 118.625 208.028 118.926 207.801 119.282C207.575 119.639 207.441 120.042 207.41 120.457C207.41 121.199 207.997 121.48 208.72 121.096L225.725 111.697C226.099 111.477 226.413 111.177 226.64 110.82C226.868 110.463 227.003 110.06 227.035 109.645C227.035 108.896 226.448 108.615 225.725 109.012Z" fill="#2594A3"/>
<path opacity="0.3" d="M208.72 109.21L225.725 99.8168C226.098 99.5957 226.411 99.2948 226.638 98.9383C226.866 98.5818 227.002 98.1797 227.035 97.7643C227.035 97.0226 226.448 96.7412 225.725 97.1249L208.713 106.511C208.34 106.734 208.028 107.036 207.802 107.393C207.575 107.751 207.441 108.154 207.41 108.57C207.41 109.325 207.997 109.606 208.72 109.21ZM225.725 103.071L208.713 112.464C208.34 112.686 208.028 112.989 207.802 113.346C207.575 113.704 207.441 114.107 207.41 114.523C207.41 115.259 207.997 115.54 208.72 115.163L225.725 105.77C226.099 105.548 226.412 105.246 226.64 104.888C226.867 104.531 227.003 104.127 227.035 103.711C227.035 102.956 226.448 102.675 225.725 103.071V103.071ZM225.725 109.012L208.713 118.405C208.34 118.625 208.028 118.926 207.801 119.282C207.575 119.639 207.441 120.042 207.41 120.457C207.41 121.199 207.997 121.48 208.72 121.096L225.725 111.697C226.099 111.477 226.413 111.177 226.64 110.82C226.868 110.463 227.003 110.06 227.035 109.645C227.035 108.896 226.448 108.615 225.725 109.012Z" fill="white"/>
<path d="M180.318 83.045V127.356C180.299 127.687 180.197 128.008 180.023 128.294C179.848 128.581 179.605 128.825 179.313 129.006L145.477 147.504C145.374 147.574 145.254 147.616 145.128 147.628C145.003 147.639 144.876 147.618 144.762 147.568L142.878 146.539C142.77 146.47 142.685 146.373 142.633 146.26C142.582 146.146 142.566 146.021 142.588 145.899V92.3996C142.606 92.0698 142.706 91.7486 142.88 91.4621C143.054 91.1756 143.296 90.9316 143.587 90.7499L168.997 76.8555L180.318 83.045Z" fill="#F0F0F0"/>
<path d="M146.348 93.365L142.838 91.5234C142.677 91.7912 142.587 92.0917 142.575 92.3994V145.931C142.557 146.053 142.576 146.178 142.628 146.29C142.681 146.403 142.765 146.5 142.872 146.571L144.755 147.6C144.869 147.654 144.996 147.677 145.123 147.666C145.249 147.654 145.37 147.609 145.471 147.536L146.348 147.056V93.365Z" fill="#E0E0E0"/>
<path d="M180.319 83.0451V127.356C180.299 127.687 180.198 128.008 180.023 128.295C179.848 128.581 179.605 128.825 179.313 129.006L145.478 147.504C144.924 147.805 144.472 147.562 144.472 146.955V93.4356C144.49 93.1051 144.591 92.7834 144.766 92.4967C144.941 92.2101 145.185 91.9665 145.478 91.7859L165.251 81.0054L170.908 77.9106L180.319 83.0451Z" fill="#FAFAFA"/>
<path d="M170.881 78.4475L179.82 83.339V127.375C179.8 127.623 179.722 127.863 179.591 128.077C179.46 128.292 179.28 128.476 179.063 128.616L145.228 147.12C145.165 147.157 145.093 147.179 145.019 147.184C144.981 147.123 144.964 147.051 144.972 146.98V93.4353C144.99 93.1877 145.067 92.9472 145.198 92.7322C145.329 92.5172 145.51 92.3335 145.728 92.1948L165.474 81.3888L170.875 78.4283L170.881 78.4475ZM170.875 77.8848L165.251 81.0051L145.505 91.8112C145.212 91.9918 144.968 92.2354 144.794 92.522C144.619 92.8087 144.518 93.1303 144.499 93.4609V146.986C144.499 147.415 144.729 147.664 145.059 147.664C145.217 147.66 145.371 147.616 145.505 147.536L179.34 129.031C179.632 128.85 179.876 128.606 180.05 128.32C180.225 128.033 180.326 127.712 180.346 127.382V83.0704L170.895 77.9103L170.875 77.8848Z" fill="#E0E0E0"/>
<path d="M175.377 83.3968C175.742 83.3968 175.992 83.6717 175.992 84.1513V121.877C175.97 122.243 175.858 122.599 175.665 122.917C175.471 123.234 175.202 123.505 174.878 123.705L149.9 137.35C149.75 137.441 149.577 137.492 149.4 137.498C149.035 137.498 148.786 137.223 148.786 136.743V99.0176C148.807 98.6515 148.919 98.2952 149.113 97.9775C149.306 97.6599 149.576 97.3897 149.9 97.1889L166.777 87.9622L174.878 83.5438C175.029 83.4578 175.201 83.4094 175.377 83.4032V83.3968ZM175.377 82.962C175.12 82.9679 174.868 83.0385 174.648 83.1666L166.547 87.5785L149.67 96.8117C149.276 97.0507 148.947 97.3757 148.712 97.7595C148.477 98.1432 148.343 98.5746 148.32 99.0176V136.743C148.302 136.89 148.316 137.038 148.362 137.18C148.408 137.321 148.484 137.452 148.585 137.564C148.686 137.676 148.811 137.767 148.951 137.832C149.091 137.896 149.244 137.933 149.4 137.939C149.658 137.933 149.909 137.862 150.129 137.734L175.107 124.089C175.502 123.849 175.831 123.523 176.066 123.138C176.301 122.753 176.435 122.321 176.458 121.877V84.1513C176.475 84.0046 176.461 83.8559 176.415 83.7147C176.37 83.5735 176.294 83.4427 176.193 83.3305C176.091 83.2183 175.966 83.1271 175.826 83.0626C175.686 82.9981 175.533 82.9616 175.377 82.9556V82.962Z" fill="#2594A3"/>
<path d="M170.888 87.0987V77.8848L180.339 83.0448L171.914 87.6486C171.326 87.9555 170.888 87.7062 170.888 87.0987Z" fill="#E0E0E0"/>
<path d="M153.889 111.467L170.901 102.106C171.274 101.885 171.586 101.584 171.814 101.227C172.041 100.871 172.177 100.469 172.211 100.053C172.211 99.3116 171.623 99.0303 170.901 99.4139L153.889 108.801C153.515 109.022 153.203 109.324 152.976 109.682C152.75 110.04 152.616 110.443 152.586 110.859C152.586 111.582 153.167 111.863 153.889 111.467ZM170.901 105.329L153.889 114.722C153.515 114.943 153.203 115.245 152.976 115.603C152.75 115.961 152.616 116.364 152.586 116.78C152.586 117.516 153.167 117.797 153.889 117.42L170.901 108.027C171.275 107.805 171.588 107.503 171.815 107.146C172.043 106.788 172.178 106.384 172.211 105.968C172.211 105.213 171.623 104.938 170.901 105.303V105.329ZM170.901 111.269L153.889 120.649C153.515 120.868 153.201 121.169 152.975 121.526C152.748 121.883 152.615 122.286 152.586 122.701C152.586 123.443 153.167 123.724 153.889 123.341L170.901 113.948C171.275 113.728 171.588 113.427 171.816 113.071C172.044 112.714 172.179 112.311 172.211 111.895C172.211 111.154 171.623 110.872 170.901 111.269V111.269Z" fill="#2594A3"/>
<path opacity="0.3" d="M153.889 111.467L170.901 102.106C171.274 101.885 171.586 101.584 171.814 101.227C172.041 100.871 172.177 100.469 172.211 100.053C172.211 99.3116 171.623 99.0303 170.901 99.4139L153.889 108.801C153.515 109.022 153.203 109.324 152.976 109.682C152.75 110.04 152.616 110.443 152.586 110.859C152.586 111.582 153.167 111.863 153.889 111.467ZM170.901 105.329L153.889 114.722C153.515 114.943 153.203 115.245 152.976 115.603C152.75 115.961 152.616 116.364 152.586 116.78C152.586 117.516 153.167 117.797 153.889 117.42L170.901 108.027C171.275 107.805 171.588 107.503 171.815 107.146C172.043 106.788 172.178 106.384 172.211 105.968C172.211 105.213 171.623 104.938 170.901 105.303V105.329ZM170.901 111.269L153.889 120.649C153.515 120.868 153.201 121.169 152.975 121.526C152.748 121.883 152.615 122.286 152.586 122.701C152.586 123.443 153.167 123.724 153.889 123.341L170.901 113.948C171.275 113.728 171.588 113.427 171.816 113.071C172.044 112.714 172.179 112.311 172.211 111.895C172.211 111.154 171.623 110.872 170.901 111.269V111.269Z" fill="white"/>
<path d="M254.037 229.554C254.091 232.329 254.321 236.363 254.037 237.514C253.754 238.665 248.873 239.791 245.052 239.957C241.231 240.123 236.634 239.58 236.357 242.137C236.08 244.695 238.477 246.402 240.232 247.17C243.209 248.48 246.531 248.193 249.454 247.809C252.377 247.425 253.936 247.694 257.021 248.41C260.107 249.126 261.848 248.685 263.165 248.058C265.122 247.131 264.603 243.966 263.914 241.907C263.225 239.848 263.3 237.962 263.556 235.104C263.813 232.246 264.677 228.07 264.677 228.07L254.037 229.554Z" fill="#B47266"/>
<path d="M263.914 241.856C263.914 241.856 263.914 242.732 261.889 243.135C259.863 243.538 256.569 243.429 254.24 243.576C250.75 243.787 248.103 244.165 244.114 243.576C240.603 243.052 240.738 240.418 243.898 239.996C240.36 240.053 236.6 239.823 236.35 242.112C236.073 244.67 238.47 246.377 240.225 247.144C243.202 248.455 246.524 248.167 249.447 247.784C252.37 247.4 253.929 247.669 257.015 248.385C260.1 249.101 261.841 248.66 263.158 248.033C265.122 247.08 264.603 243.915 263.914 241.856Z" fill="#455A64"/>
<path d="M290.317 222.668C291.957 224.918 294.658 229.177 295.043 230.232C295.427 231.287 295.758 235.258 295.043 236.428C294.016 237.138 292.41 237.547 291.039 238.186C289.055 239.113 288.629 240.654 289.925 241.831C291.728 243.474 294.651 243.666 296.406 243.57C298.972 243.199 299.147 240.482 299.512 238.071C299.876 235.661 299.464 230.935 301.395 228.026C303.326 225.117 306.735 224.829 307.181 225.814C306.971 224.349 306.114 224.311 304.271 223.32C302.428 222.329 300.815 222.361 299.795 220.065C298.58 217.348 297.48 214.106 297.48 214.106L290.317 222.668Z" fill="#B47266"/>
<path d="M293.922 243.615C295.758 243.902 297.054 243.902 300.315 242.387C303.137 241.076 303.852 240.52 304.284 239.797C304.96 238.646 304.23 235.807 304.818 233.365C305.254 231.644 305.879 229.97 306.681 228.371C307.322 226.888 307.275 226.248 307.174 225.813C306.951 224.886 304.96 224.771 303.063 225.813C301.166 226.856 299.937 228.844 299.309 233.582C298.681 238.32 299.647 243.5 293.922 243.615Z" fill="#263238"/>
<path d="M307.174 225.813C306.958 224.349 306.425 224.132 304.582 223.147C303.906 222.776 303.231 222.508 302.59 222.213C300.801 221.894 297.986 223.224 297.864 226.779C297.743 230.334 298.364 234.842 297.237 236.511C296.271 237.937 294.692 237.841 295.056 236.428C292.518 237.31 291.647 237.323 290.216 238.065C288.568 238.921 288.015 241.153 289.541 242.048C291.554 243.347 294.007 243.889 296.42 243.57C298.985 243.199 299.161 240.481 299.525 238.071C299.89 235.66 299.478 230.935 301.409 228.026C303.339 225.116 306.728 224.873 307.174 225.813Z" fill="#455A64"/>
<path d="M290.817 224.081C290.817 224.081 281.507 211.132 276.539 202.743C272.859 196.541 272.528 195.339 271.624 191.279C269.686 182.563 269.234 180.517 269.234 180.517L266.345 198.127C266.81 200.045 267.742 203.824 267.776 206.049C267.751 210.396 267.379 214.735 266.662 219.029C265.989 223.869 265.045 228.671 263.833 233.416C263.111 233.889 261.011 233.985 259.189 233.928C257.413 233.825 255.658 233.514 253.964 233C253.964 233 252.445 212.251 252.094 206.541C251.668 199.693 251.52 197.001 251.29 193.242C250.932 187.25 250.075 178.58 250.318 167.569C250.804 145.676 255.955 135.682 255.955 135.682L282.04 132.248C284.207 139.627 288.71 140.484 289.183 150.554C289.291 152.837 288.015 157.377 287.968 160.919C287.833 172.429 286.746 190.499 286.746 190.499C289.608 192.999 291.708 195.262 293.686 201.062C294.887 204.585 297.554 213.511 298.681 217.13C295.38 217.13 290.763 222.668 290.817 224.081Z" fill="#455A64"/>
<path d="M264.42 148.303L265.095 148.201C265.703 152.172 266.702 156.673 267.249 157.025C268.207 157.665 271.758 158.15 272.555 157.959C273.351 157.767 274.06 157.153 275.478 155.331C276.47 154.052 276.362 153.253 276.153 151.494C276.065 150.855 275.964 150.1 275.903 149.167L276.578 149.122C276.639 150.03 276.734 150.765 276.821 151.411C277.058 153.169 277.199 154.224 276.031 155.727C274.499 157.696 273.729 158.374 272.717 158.604C272.571 158.638 272.421 158.655 272.271 158.656C270.867 158.72 267.816 158.189 266.87 157.581C265.838 156.904 264.73 150.311 264.42 148.303Z" fill="#19636D"/>
<path d="M253.74 147.722L254.415 147.907C252.437 154.627 252.869 160.785 256.407 162.658C257.082 158.119 257.959 153.425 259.208 148.406L259.883 148.559C255.833 164.73 255.374 177.467 255.894 192.768C256.285 204.431 257.068 224.47 257.433 233.774L256.724 233.659C256.359 224.304 255.583 204.393 255.191 192.794C254.84 182.429 254.955 173.241 256.305 163.381C252.255 161.418 251.62 154.928 253.74 147.722Z" fill="#19636D"/>
<path d="M288.872 153.752C288.438 154.146 287.913 154.439 287.339 154.608V154.608C286.239 154.653 284.416 153.17 283.896 152.051C283.652 151.395 283.504 150.711 283.458 150.017C283.351 149.002 283.157 147.997 282.877 147.012L283.552 146.82C283.844 147.841 284.047 148.882 284.16 149.934C284.199 150.562 284.328 151.181 284.544 151.776C284.983 152.722 286.57 153.963 287.312 153.931C287.979 153.618 288.573 153.183 289.061 152.652C288.993 152.959 288.926 153.413 288.872 153.752Z" fill="#19636D"/>
<path d="M292.99 220.596C293.152 220.417 293.321 220.244 293.489 220.072C289.034 212.712 279.468 196.618 278.638 192.711C277.544 187.711 275.66 170.939 275.579 161.917H274.904C274.979 170.971 276.869 187.82 277.969 192.845C278.827 196.938 288.568 213.294 292.99 220.596Z" fill="#19636D"/>
<path d="M279.339 145.676C281.108 148.342 282.181 153.023 279.9 158.151L279.258 157.889C281.432 152.997 280.419 148.56 278.745 146.04L279.339 145.676Z" fill="#19636D"/>
<path d="M269.213 180.517L272.048 162.057C272.048 162.057 279.386 161.085 280.399 154.563C280.575 158.4 278.948 161.757 274.391 163.515L270.745 180.556L271.603 191.247L269.213 180.517Z" fill="#19636D"/>
<path d="M284.241 102.426C288.967 103.494 291.566 104.74 293.517 110.853C295.366 116.608 298.465 126.41 299.282 130.554C299.673 132.574 299.856 134.499 296.892 135.669C290.195 138.354 283.735 140.234 283.735 140.234L281.122 132.747L288.278 129.358L286.496 123.897L284.241 102.426Z" fill="#B47266"/>
<path d="M288.278 129.371C288.885 130.668 289.923 131.742 291.235 132.427C289.487 132.625 287.785 130.899 287.34 129.812L288.278 129.371Z" fill="#89544C"/>
<path d="M284.579 102.375C286.699 102.739 289.601 103.161 291.721 106.211C293.841 109.261 297.284 119.894 297.284 119.894C297.284 119.894 295.603 121.877 291.208 122.989C286.813 124.102 284.964 123.155 284.964 123.155L281.683 112.976L284.579 102.375Z" fill="#2594A3"/>
<path opacity="0.2" d="M284.579 102.375C286.699 102.739 289.601 103.161 291.721 106.211C293.841 109.261 297.284 119.894 297.284 119.894C297.284 119.894 295.603 121.877 291.208 122.989C286.813 124.102 284.964 123.155 284.964 123.155L281.683 112.976L284.579 102.375Z" fill="black"/>
<path d="M261.18 80.0399C260.35 78.9913 260.471 77.4183 261.065 76.2035C261.66 74.9886 262.807 73.8057 265.987 72.5076C269.767 70.9667 280.083 69.95 284.039 76.4848C284.626 77.4631 273.845 94.7464 274.054 98.4231C271.691 95.6992 263.928 86.1783 263.928 86.1783C261.99 85.2384 260.829 84.4711 260.552 82.6551C260.469 81.7428 260.689 80.8285 261.18 80.0399Z" fill="#263238"/>
<path d="M262.308 85.1104C262.308 85.1104 259.297 89.1067 259.567 89.4648C260.16 89.9789 260.799 90.4432 261.477 90.8523L262.308 85.1104Z" fill="#89544C"/>
<path d="M266.236 77.7123C264.366 78.4028 262.692 79.6305 261.848 83.3455C261.625 84.3174 262.334 85.7177 261.848 87.0029C259.823 92.5019 261.375 97.3039 262.449 98.4165C263.171 99.1646 267.215 99.7464 269.389 99.3244C272.089 98.8001 278.097 96.7156 281.162 92.9303C284.76 88.4992 285.989 82.2968 282.553 79.5474C277.746 75.6917 268.234 76.9769 266.236 77.7123Z" fill="#B47266"/>
<path d="M279.198 95.9995L279.536 101.588C282.816 103.398 276.039 105.763 268.849 102.867L268.329 97.8282L279.198 95.9995Z" fill="#B47266"/>
<path d="M268.572 100.111C268.7 101.39 268.835 103.308 266.722 103.871C264.731 104.369 261.517 104.683 258.385 105.789C258.385 105.789 269.672 107.477 275.599 106.55C281.527 105.623 282.553 102.016 282.553 102.016C280.42 101.741 279.529 101.377 279.448 100.098L268.572 100.111Z" fill="#B47266"/>
<path d="M262.672 98.5701C263.583 99.1328 265.642 99.6379 268.505 99.4589L268.376 98.0586C267.476 98.3311 266.552 98.5258 265.615 98.6405C264.636 98.7562 263.644 98.7325 262.672 98.5701V98.5701Z" fill="#89544C"/>
<path d="M263.408 79.5478C263.124 81.9775 264.684 82.8599 265.798 83.4162C265.292 84.2849 265.058 85.2717 265.123 86.2616C265.285 87.5404 265.71 88.5635 266.966 89.0622C267.728 89.3628 267.985 89.0622 268.316 88.4868C268.775 87.6747 269.369 86.4278 271.246 86.7987C273.399 87.2271 273.743 90.3666 272.319 92.3104C272.043 92.7231 271.665 93.0661 271.219 93.31C270.772 93.5539 270.269 93.6914 269.754 93.7108C269.473 93.6847 269.202 93.6036 268.957 93.4725C268.712 93.3415 268.498 93.1635 268.329 92.9499C268.329 92.9499 268.268 95.661 271.819 97.5153C271.819 97.5153 275.377 99.7404 279.245 98.9284C281.095 97.2499 282.849 95.4783 284.498 93.6212C288.919 88.4036 289.844 78.4991 283.147 76.2356C282.83 76.1333 277.335 74.8161 274.277 75.2317C264.88 76.5297 263.455 79.1257 263.408 79.5478Z" fill="#263238"/>
<path d="M284.065 76.5298C285.118 76.5298 288.311 78.0708 288.298 84.7846C288.298 89.3245 287.144 95.3925 285.598 98.2123C281.493 102.496 269.612 103.328 264.359 101.518C267.735 100.041 268.369 96.0383 268.356 92.9371C269.909 95.1623 272.751 95.693 276.194 94.0561C279.637 92.4192 284.065 76.5298 284.065 76.5298Z" fill="#263238"/>
<path d="M288.845 107.982C287.86 103.449 285.267 102.464 284.12 102.266L281.136 101.773C281.136 102.311 281.541 103.596 276.248 104.222C272.873 104.625 266.966 103.8 266.966 103.8C264.706 104.147 262.469 104.621 260.269 105.22C256.833 106.147 255.023 109.945 252.775 114.965C251.007 118.929 251.668 122.964 254.834 125.918C254.931 128.391 254.868 130.868 254.645 133.335C253.311 138.131 252.514 143.048 252.269 148.003C252.269 148.003 254.294 149.793 270.382 149.454C282.844 149.186 288.609 143.911 288.609 143.911C288.251 142.152 286.948 138.373 284.592 132.504C284.876 126.762 290.972 117.797 288.845 107.982Z" fill="#2594A3"/>
<path d="M232.793 119.888C232.793 119.888 215.078 116.55 214.066 115.86C213.208 115.272 212.932 114.306 212.499 113.443C211.989 112.462 211.329 111.557 210.542 110.757C210.042 110.22 209.435 109.76 208.962 109.204C208.489 108.647 208.348 108.04 207.922 107.515C207.497 106.991 206.93 107.368 206.66 107.874C206.366 108.613 206.388 109.432 206.721 110.156C206.849 110.476 206.964 110.796 207.099 111.122C207.255 111.407 207.379 111.707 207.47 112.017C207.514 112.177 207.5 112.346 207.43 112.496C207.241 112.797 206.64 112.599 206.376 112.496C204.589 111.814 202.967 110.794 201.61 109.498C201.03 108.941 200.571 108.315 199.95 107.797C199.38 107.307 198.736 106.902 198.039 106.595C197.574 106.374 197.051 106.285 196.534 106.339C195.771 106.607 196.621 107.765 196.824 108.155C197.074 108.582 197.196 109.067 197.175 109.555C197.147 109.842 197.179 110.132 197.269 110.407C197.359 110.683 197.506 110.939 197.702 111.16C198.146 111.631 198.478 112.187 198.674 112.791C198.687 113.004 198.687 113.217 198.674 113.43C198.741 114.092 199.024 114.718 199.484 115.22C199.931 115.679 200.186 116.278 200.199 116.902C200.355 118.322 201.921 119.364 203.089 120.042C204.444 120.803 205.889 121.408 207.396 121.845C208.206 122.094 208.989 122.407 209.799 122.638C210.609 122.868 211.271 122.976 211.98 123.232C213.661 123.84 226.703 128.546 231.902 129.908C234.467 130.579 235.155 131.187 238.767 129.403C245.268 126.206 251.634 123.987 255.374 121.819C260.498 118.846 262.672 117.183 263.374 114.018C264.988 106.678 259.884 105.322 259.884 105.322C258.014 105.776 257.049 106.185 251.358 109.306C245.282 112.644 232.793 119.888 232.793 119.888Z" fill="#B47266"/>
<path d="M259.884 105.335C256.745 105.674 255.111 106.492 251.627 108.57C248.144 110.648 242.21 114.287 242.21 114.287C242.608 117.588 244.054 120.698 246.355 123.207C249.15 126.231 251.418 125.982 251.418 125.982C251.418 125.982 260.782 119.46 262.672 116.947C264.562 114.434 265.966 106.902 259.884 105.335Z" fill="#2594A3"/>
<path opacity="0.2" d="M259.884 105.335C256.745 105.674 255.111 106.492 251.627 108.57C248.144 110.648 242.21 114.287 242.21 114.287C242.608 117.588 244.054 120.698 246.355 123.207C249.15 126.231 251.418 125.982 251.418 125.982C251.418 125.982 260.782 119.46 262.672 116.947C264.562 114.434 265.966 106.902 259.884 105.335Z" fill="black"/>
<path d="M275.601 60.186L273.832 57.0464L275.257 53.1652V50.793L270.909 53.1652V55.5438L272.779 58.6066C272.806 58.6552 272.852 58.6919 272.907 58.7089V58.7089L275.601 60.186Z" fill="#2594A3"/>
<path opacity="0.2" d="M275.601 60.186L273.832 57.0464L275.257 53.1652V50.793L270.909 53.1652V55.5438L272.779 58.6066C272.806 58.6552 272.852 58.6919 272.907 58.7089V58.7089L275.601 60.186Z" fill="black"/>
<path d="M285.97 31.9112C285.947 31.483 285.816 31.0662 285.59 30.6949C285.363 30.3237 285.047 30.0086 284.667 29.7756L283.607 29.2129C283.203 29.0206 282.757 28.9204 282.304 28.9204C281.852 28.9204 281.406 29.0206 281.001 29.2129L264.745 38.1008C264.366 38.3346 264.05 38.6498 263.824 39.0209C263.598 39.392 263.467 39.8084 263.442 40.2364V57.1809C263.466 57.6091 263.596 58.0259 263.823 58.3972C264.049 58.7684 264.365 59.0835 264.745 59.3165L265.839 59.9048C266.242 60.1001 266.689 60.2019 267.142 60.2019C267.595 60.2019 268.041 60.1001 268.445 59.9048L273.67 57.0466L275.533 60.103C275.561 60.1457 275.601 60.1801 275.648 60.2025C275.695 60.2249 275.748 60.2343 275.801 60.2297C275.854 60.225 275.904 60.2065 275.946 60.1762C275.988 60.1459 276.021 60.105 276.039 60.0582L277.991 54.6616L284.687 50.9913C285.067 50.7583 285.384 50.4432 285.61 50.072C285.837 49.7007 285.967 49.2839 285.99 48.8557L285.97 31.9112Z" fill="#2594A3"/>
<path d="M281.818 43.5104V41.5922C281.818 41.2469 281.555 41.1062 281.237 41.2789L277.754 43.1971V39.3606C277.754 39.0153 277.497 38.8683 277.18 39.0473L275.418 40.0064C275.251 40.1105 275.112 40.2504 275.012 40.4148C274.912 40.5791 274.855 40.7634 274.844 40.9528V44.7892L271.361 46.7075C271.191 46.8097 271.05 46.949 270.949 47.1136C270.848 47.2783 270.79 47.4636 270.78 47.6538V49.5721C270.78 49.9173 271.037 50.058 271.361 49.8854L274.844 47.9671V51.8036C274.844 52.1553 275.101 52.296 275.418 52.1169L277.18 51.1578C277.347 51.0537 277.487 50.9139 277.586 50.7495C277.686 50.5851 277.743 50.4008 277.754 50.2115V46.375L281.237 44.4567C281.406 44.3534 281.546 44.2138 281.647 44.0494C281.748 43.885 281.807 43.7003 281.818 43.5104V43.5104Z" fill="#FAFAFA"/>
<path opacity="0.2" d="M263.442 57.1808C263.466 57.609 263.596 58.0259 263.822 58.3971C264.049 58.7684 264.365 59.0834 264.745 59.3165L265.839 59.9047C266.206 60.0811 266.608 60.1814 267.019 60.1991C267.43 60.2167 267.84 60.1512 268.222 60.007C267.608 60.2244 267.142 59.8983 267.142 59.195V42.2505C267.155 41.8214 267.285 41.4029 267.52 41.0356L263.814 39.0215C263.582 39.39 263.452 39.8078 263.436 40.2364L263.442 57.1808Z" fill="black"/>
<path opacity="0.3" d="M285.929 31.5596C285.774 31.0352 285.254 30.869 284.667 31.1951L268.404 40.0829C268.019 40.3075 267.705 40.6254 267.493 41.0037L263.813 39.0279C264.028 38.6493 264.345 38.3316 264.732 38.1072L281.001 29.2129C281.406 29.0206 281.852 28.9204 282.304 28.9204C282.757 28.9204 283.203 29.0206 283.607 29.2129L284.667 29.7948C284.992 29.9932 285.272 30.2518 285.488 30.555C285.705 30.8583 285.855 31.2 285.929 31.5596V31.5596Z" fill="white"/>
</svg>
