<svg width="430" height="410" viewBox="0 0 430 410" fill="none" xmlns="http://www.w3.org/2000/svg">
<path d="M65.8108 337.67L45.3346 337.977C38.4648 338.079 31.5336 338.131 24.6228 338.141H24.1519V337.67V326.229V325.718H24.674L45.2629 325.789L55.5625 325.881L65.862 326.004H66.0873V326.219L65.8108 337.67ZM65.8108 337.67L65.5856 326.229L65.8108 326.454L55.5113 326.577L45.2117 326.669L24.6228 326.74L25.1245 326.229V337.67L24.6535 337.2C31.4721 337.2 38.2702 337.261 45.1298 337.364L65.8108 337.67Z" fill="#EBEBEB"/>
<path d="M42.8262 340.656H1.63818V352.098H42.8262V340.656Z" fill="#EBEBEB"/>
<path d="M265.23 381.882H224.042V393.324H265.23V381.882Z" fill="#EBEBEB"/>
<path d="M428.323 244.339H387.135V255.781H428.323V244.339Z" fill="#EBEBEB"/>
<path d="M315.939 11.9527L295.463 12.2594C288.593 12.3617 281.662 12.4128 274.741 12.423H274.27V11.9527V0.511235V0H274.782L295.381 0.0715764L305.67 0.163595L315.97 0.286294H316.195V0.501012L315.939 11.9527ZM315.939 11.9527L315.724 0.501012L315.939 0.725956L305.64 0.848651L295.35 0.940674L274.751 1.01225L275.263 0.501012V11.9424L274.792 11.4721C281.601 11.4721 288.409 11.5335 295.268 11.6357L315.939 11.9527Z" fill="#EBEBEB"/>
<path d="M338.913 14.9385H297.725V26.3799H338.913V14.9385Z" fill="#EBEBEB"/>
<path d="M42.8265 11.9527L22.3502 12.2594C15.4804 12.3617 8.54916 12.4128 1.62818 12.423H1.15723V11.9527V0.511235V0H1.66913L22.2683 0.0715764L32.5678 0.163595L42.806 0.286294H43.0312V0.501012L42.8265 11.9527ZM42.8265 11.9527L42.6115 0.501012L42.8265 0.725956L32.5883 0.848651L22.2887 0.940674L1.68961 1.01225L2.20151 0.501012V11.9424L1.73056 11.4721C8.53892 11.4721 15.3473 11.5335 22.2068 11.6357L42.8265 11.9527Z" fill="#EBEBEB"/>
<path d="M228.843 167.235H187.655V178.677H228.843V167.235Z" fill="#EBEBEB"/>
<path d="M415.741 7.62744H346.541V91.4597H415.741V7.62744Z" fill="#EBEBEB"/>
<path d="M407.837 15.2759H354.445V83.8018H407.837V15.2759Z" fill="white"/>
<path d="M356.523 15.2759H354.445V83.8018H356.523V15.2759Z" fill="#C7C7C7"/>
<path d="M417.819 7.62744H415.741V91.4597H417.819V7.62744Z" fill="#C7C7C7"/>
<path d="M382.323 68.5771H394.916V31.1241H382.323V68.5771Z" fill="#EBEBEB"/>
<path d="M400.926 43.5881H366.331V24.1611H400.926V43.5881ZM367.355 42.5656H399.902V25.1836H367.355V42.5656Z" fill="#EBEBEB"/>
<path d="M415.741 214.218H346.541V298.05H415.741V214.218Z" fill="#EBEBEB"/>
<path d="M407.837 221.876H354.445V290.402H407.837V221.876Z" fill="white"/>
<path d="M356.523 221.876H354.445V290.402H356.523V221.876Z" fill="#C7C7C7"/>
<path d="M417.819 214.218H415.741V298.05H417.819V214.218Z" fill="#C7C7C7"/>
<path d="M384.934 237.724H372.341V275.177H384.934V237.724Z" fill="#EBEBEB"/>
<path d="M400.926 250.188H366.331V230.812H400.926V250.188ZM367.355 249.165H399.902V231.834H367.355V249.165Z" fill="#EBEBEB"/>
<path d="M415.741 111.306H346.541V195.138H415.741V111.306Z" fill="#EBEBEB"/>
<path d="M407.837 118.954H354.445V187.48H407.837V118.954Z" fill="white"/>
<path d="M356.523 118.954H354.445V187.48H356.523V118.954Z" fill="#C7C7C7"/>
<path d="M417.819 111.306H415.741V195.138H417.819V111.306Z" fill="#C7C7C7"/>
<path d="M386.746 136.663H375.965V163.891H386.746V136.663Z" fill="#EBEBEB"/>
<path d="M398.622 172.501H368.625V152.706H398.622V172.501ZM369.648 171.479H397.598V153.729H369.648V171.479Z" fill="#DBDBDB"/>
<path d="M38.6794 306.987C55.6236 323.602 58.4698 349.163 54.8966 371.658C54.8045 372.169 54.0162 372.026 54.0162 371.555C54.0162 366.443 54.1697 361.331 54.1493 356.331C54.0571 356.096 53.9854 355.881 53.8933 355.646C49.4704 352.435 45.3956 348.806 42.8771 343.836C40.0513 338.274 38.9354 332.006 36.7342 326.199C36.5294 325.647 37.1232 325.81 37.5123 326.096C47.8221 333.683 51.1085 341.853 54.0674 352.773C54.003 347.065 53.4032 341.375 52.2757 335.779C50.0438 325.411 45.6414 315.146 38.188 307.457C38.1571 307.425 38.1328 307.387 38.1166 307.345C38.1004 307.303 38.0925 307.259 38.0935 307.214C38.0944 307.17 38.1041 307.126 38.1221 307.085C38.1401 307.044 38.166 307.007 38.1982 306.976C38.2305 306.945 38.2685 306.921 38.3102 306.905C38.3518 306.889 38.3963 306.881 38.4409 306.882C38.4856 306.883 38.5297 306.893 38.5706 306.911C38.6115 306.928 38.6485 306.954 38.6794 306.987Z" fill="#263238"/>
<path d="M35.4956 308.919C32.5777 309.021 30.7451 313.673 28.4722 315.054C28.2335 315.246 27.9569 315.387 27.6604 315.466C27.3639 315.545 27.054 315.561 26.7509 315.512C26.4479 315.464 26.1583 315.353 25.901 315.186C25.6438 315.019 25.4245 314.799 25.2575 314.542C23.0051 311.403 26.097 307.538 29.0046 305.34C26.957 306.189 25.2063 307.692 22.9641 308.111C22.6777 308.207 22.3739 308.24 22.0736 308.207C21.7733 308.175 21.4835 308.079 21.224 307.924C20.9644 307.77 20.7413 307.561 20.5699 307.313C20.3984 307.065 20.2827 306.782 20.2305 306.485C19.2067 302.211 24.6227 300.35 28.3084 300.218C26.5167 298.97 21.3977 295.596 24.121 293.94C26.8444 292.283 32.8849 297.099 34.8506 298.684C37.7275 301.025 41.1675 304.512 41.3006 308.162C41.4644 312.436 37.7378 309.819 35.4956 308.919Z" fill="#979782"/>
<path opacity="0.1" d="M35.4956 308.919C32.5777 309.021 30.7451 313.673 28.4722 315.054C28.2335 315.246 27.9569 315.387 27.6604 315.466C27.3639 315.545 27.054 315.561 26.7509 315.512C26.4479 315.464 26.1583 315.353 25.901 315.186C25.6438 315.019 25.4245 314.799 25.2575 314.542C23.0051 311.403 26.097 307.538 29.0046 305.34C26.957 306.189 25.2063 307.692 22.9641 308.111C22.6777 308.207 22.3739 308.24 22.0736 308.207C21.7733 308.175 21.4835 308.079 21.224 307.924C20.9644 307.77 20.7413 307.561 20.5699 307.313C20.3984 307.065 20.2827 306.782 20.2305 306.485C19.2067 302.211 24.6227 300.35 28.3084 300.218C26.5167 298.97 21.3977 295.596 24.121 293.94C26.8444 292.283 32.8849 297.099 34.8506 298.684C37.7275 301.025 41.1675 304.512 41.3006 308.162C41.4644 312.436 37.7378 309.819 35.4956 308.919Z" fill="black"/>
<path d="M36.3352 309.635C32.6085 307.947 25.452 310.381 24.8377 308.97C23.6091 306.107 29.322 304.134 32.4139 303.755C29.5677 302.988 24.1211 301.762 24.2849 299.021C24.4896 295.678 32.6494 298.551 36.7754 301.71C41.9764 305.698 41.8945 309.543 41.0754 310.309C39.9083 311.332 36.9494 309.921 36.3352 309.635Z" fill="#979782"/>
<path d="M77.2672 305.35C59.6986 321.26 55.8798 346.76 58.5929 369.337C58.6748 369.848 59.4631 369.735 59.4836 369.265C59.6781 364.153 59.7191 359.04 59.9238 354.04C60.0262 353.815 60.1081 353.601 60.2105 353.376C64.7562 350.308 68.9539 346.863 71.667 341.986C74.7384 336.536 76.0489 330.319 78.4344 324.604C78.6596 324.051 78.0556 324.195 77.6563 324.46C67.07 331.618 63.4765 339.695 60.1081 350.492C60.3847 344.788 61.2005 339.122 62.5448 333.571C65.1657 323.346 69.9572 313.213 77.6972 305.811C77.9839 305.535 77.5744 305.064 77.2672 305.35Z" fill="#263238"/>
<path d="M80.3797 307.395C83.2874 307.61 84.9357 312.324 87.1471 313.776C87.3777 313.979 87.6489 314.132 87.9427 314.223C88.2366 314.315 88.5465 314.343 88.8521 314.306C89.1577 314.27 89.452 314.169 89.7158 314.01C89.9795 313.852 90.2067 313.64 90.3824 313.387C92.7576 310.32 89.8193 306.353 86.9936 304.083C89.0412 305.013 90.6998 306.577 92.9214 307.078C93.2043 307.185 93.5069 307.23 93.8086 307.209C94.1103 307.188 94.4039 307.102 94.6693 306.958C94.9347 306.813 95.1657 306.613 95.3464 306.371C95.5272 306.129 95.6534 305.85 95.7165 305.555C96.8631 301.322 91.6212 299.216 87.8843 298.981C89.7169 297.815 94.9691 294.635 92.3072 292.846C89.6452 291.056 83.4307 295.668 81.4035 297.181C78.4345 299.4 74.8716 302.753 74.6054 306.383C74.2676 310.688 78.0966 308.203 80.3797 307.395Z" fill="#979782"/>
<path opacity="0.1" d="M80.3797 307.395C83.2874 307.61 84.9357 312.324 87.1471 313.776C87.3777 313.979 87.6489 314.132 87.9427 314.223C88.2366 314.315 88.5465 314.343 88.8521 314.306C89.1577 314.27 89.452 314.169 89.7158 314.01C89.9795 313.852 90.2067 313.64 90.3824 313.387C92.7576 310.32 89.8193 306.353 86.9936 304.083C89.0412 305.013 90.6998 306.577 92.9214 307.078C93.2043 307.185 93.5069 307.23 93.8086 307.209C94.1103 307.188 94.4039 307.102 94.6693 306.958C94.9347 306.813 95.1657 306.613 95.3464 306.371C95.5272 306.129 95.6534 305.85 95.7165 305.555C96.8631 301.322 91.6212 299.216 87.8843 298.981C89.7169 297.815 94.9691 294.635 92.3072 292.846C89.6452 291.056 83.4307 295.668 81.4035 297.181C78.4345 299.4 74.8716 302.753 74.6054 306.383C74.2676 310.688 78.0966 308.203 80.3797 307.395Z" fill="black"/>
<path d="M79.5097 308.08C83.2978 306.536 90.3519 309.236 91.0174 307.855C92.3586 305.033 86.7174 302.855 83.6459 302.354C86.5228 301.7 92.0105 300.677 91.9491 297.937C91.8671 294.584 83.6152 297.15 79.3664 300.146C74.0221 303.929 73.9094 307.773 74.7387 308.571C75.8752 309.675 78.8749 308.336 79.5097 308.08Z" fill="#979782"/>
<path d="M59.3605 347.374C58.1692 355.885 56.3451 364.296 53.9035 372.537C53.8696 372.699 53.7723 372.842 53.6331 372.933C53.4939 373.024 53.3242 373.056 53.1613 373.022C52.9984 372.989 52.8556 372.891 52.7644 372.752C52.6732 372.613 52.641 372.444 52.675 372.281C53.8319 364.531 55.9307 356.944 57.0876 349.163C58.3457 341.319 58.7986 333.367 58.439 325.432C57.6917 312.375 54.139 298.469 45.6106 288.255C45.4161 288.009 45.8154 287.662 46.0099 287.887C63.0974 307.794 60.3433 332.19 60.3433 334.378C62.7698 326.137 65.2576 316.7 74.4105 308.305C74.8098 307.947 75.117 308.121 75.0453 308.735C73.4072 324.01 69.1584 331.996 60.2819 340.165C60.0055 342.578 59.6881 344.991 59.3605 347.374Z" fill="#263238"/>
<path d="M45.3962 290.535C42.3247 289.175 38.0862 293.081 35.0454 293.357C33.438 293.5 32.2402 292.866 31.974 291.21C31.2164 286.823 36.3764 284.359 40.4819 283.572C37.8916 283.408 35.3628 284.104 32.8135 283.418C32.4651 283.377 32.1298 283.261 31.8307 283.077C31.5317 282.894 31.276 282.648 31.0813 282.356C30.8867 282.065 30.7577 281.734 30.7032 281.388C30.6488 281.042 30.6701 280.688 30.7659 280.351C31.8921 275.423 38.4342 276.149 42.3043 277.907C41.0757 275.719 37.4616 269.646 41.1166 269.288C44.7717 268.93 48.6212 276.977 49.86 279.615C51.6722 283.48 53.4741 288.817 51.7745 292.682C49.8293 297.191 47.28 292.59 45.3962 290.535Z" fill="#979782"/>
<path opacity="0.1" d="M45.3962 290.535C42.3247 289.175 38.0862 293.081 35.0454 293.357C33.438 293.5 32.2402 292.866 31.974 291.21C31.2164 286.823 36.3764 284.359 40.4819 283.572C37.8916 283.408 35.3628 284.104 32.8135 283.418C32.4651 283.377 32.1298 283.261 31.8307 283.077C31.5317 282.894 31.276 282.648 31.0813 282.356C30.8867 282.065 30.7577 281.734 30.7032 281.388C30.6488 281.042 30.6701 280.688 30.7659 280.351C31.8921 275.423 38.4342 276.149 42.3043 277.907C41.0757 275.719 37.4616 269.646 41.1166 269.288C44.7717 268.93 48.6212 276.977 49.86 279.615C51.6722 283.48 53.4741 288.817 51.7745 292.682C49.8293 297.191 47.28 292.59 45.3962 290.535Z" fill="black"/>
<path d="M45.9181 291.711C42.8467 288.081 34.2466 287.007 34.3183 285.239C34.4821 281.64 41.4133 282.478 44.8124 283.633C42.2529 281.404 37.2157 277.396 38.7617 274.636C40.666 271.272 47.6791 278.357 50.3615 283.705C53.7503 290.453 51.7846 294.42 50.5048 294.788C48.7439 295.289 46.4096 292.304 45.9181 291.711Z" fill="#979782"/>
<path d="M70.5513 351.975L78.0866 409.489H32.2197C33.1616 404.376 41.7002 351.903 41.7002 351.903L70.5513 351.975Z" fill="#979782"/>
<path d="M147.409 173.217C146.42 169.788 144.889 166.54 142.873 163.595C140.78 160.682 138.343 158.032 135.615 155.702C124.731 146.244 109.733 142.583 95.5527 143.555C89.0748 143.946 82.724 145.523 76.8169 148.207C73.9385 149.548 71.2694 151.297 68.8926 153.401C66.6914 155.354 64.2138 157.757 63.19 160.558C63.1572 160.659 63.1581 160.768 63.1923 160.868C63.2266 160.969 63.2924 161.055 63.3799 161.115C63.4675 161.175 63.5721 161.205 63.6781 161.2C63.7841 161.196 63.8859 161.157 63.9681 161.09C65.2683 160.068 66.3638 158.779 67.6026 157.655C68.8523 156.539 70.1798 155.514 71.575 154.587C74.3158 152.786 77.2313 151.265 80.2774 150.047C92.4506 145.14 106.897 145.262 119.182 149.7C125.14 151.872 130.64 155.135 135.4 159.321C137.642 161.3 139.698 163.481 141.542 165.834C143.52 168.225 145.342 170.738 146.999 173.36C147.184 173.503 147.501 173.442 147.409 173.217Z" fill="#263238"/>
<path d="M138.43 153.871C137.199 151.91 135.653 150.166 133.853 148.708C131.968 147.325 129.976 146.094 127.895 145.027C120.274 140.921 111.93 138.324 103.323 137.379C99.1703 136.922 94.9712 137.129 90.8837 137.993C88.9466 138.425 87.0358 138.968 85.1606 139.618C83.2509 140.182 81.4359 141.026 79.7753 142.123C79.7363 142.16 79.7099 142.208 79.6999 142.261C79.6898 142.314 79.6965 142.368 79.7192 142.417C79.7418 142.465 79.7792 142.506 79.826 142.532C79.8729 142.558 79.9268 142.569 79.9801 142.563C82.1711 142.113 84.2699 141.305 86.4711 140.886C88.6723 140.467 90.7302 140.385 92.8802 140.181C118.035 137.849 136.228 153.381 138.01 154.311C138.07 154.354 138.144 154.374 138.218 154.367C138.291 154.36 138.36 154.327 138.411 154.273C138.462 154.22 138.492 154.15 138.496 154.076C138.499 154.002 138.476 153.929 138.43 153.871Z" fill="#263238"/>
<path d="M51.3956 233.389C56.5147 236.692 62.5756 234.279 66.589 230.404C70.7662 226.375 73.6124 221.099 75.8033 215.792C77.851 210.946 79.2945 205.885 80.9224 200.885C82.5503 195.885 83.9938 190.66 86.5739 186.09C88.9881 181.719 93.0372 178.48 97.8358 177.082C103.035 175.684 108.562 176.181 113.428 178.483C116.006 179.618 118.344 181.231 120.319 183.237C122.127 185.199 123.536 187.495 124.465 189.996C126.625 195.394 127.711 201.14 129.021 206.774C130.096 211.437 132.328 215.639 136.7 217.94C140.426 219.903 145.013 220.496 148.801 218.379C148.858 218.352 148.902 218.305 148.927 218.248C148.951 218.19 148.953 218.126 148.933 218.066C148.913 218.007 148.872 217.957 148.817 217.926C148.763 217.896 148.699 217.886 148.637 217.899C146.252 218.362 143.791 218.27 141.447 217.628C139.102 216.986 136.938 215.812 135.123 214.197C133.252 212.306 131.956 209.924 131.386 207.326C130.567 204.259 129.953 201.1 129.113 198.012C127.721 192.899 126.339 187.306 122.97 183.053C119.54 178.933 114.915 175.975 109.733 174.587C104.743 173.137 99.4152 173.367 94.5698 175.241C89.7523 177.231 85.8228 180.901 83.5126 185.568C78.6802 194.77 77.1241 205.261 73.3974 214.893C71.6824 219.674 69.1234 224.11 65.8416 227.99C62.4323 231.794 56.9549 234.616 51.8563 232.5C51.7388 232.444 51.604 232.435 51.4805 232.477C51.3571 232.518 51.2546 232.606 51.1947 232.722C51.1349 232.837 51.1224 232.971 51.1599 233.096C51.1974 233.221 51.2819 233.326 51.3956 233.389Z" fill="#263238"/>
<path d="M50.279 217.265C52.6338 217.582 54.794 215.813 55.8895 213.87C57.3787 211.075 58.5202 208.108 59.2886 205.036C60.9106 198.681 62.9629 192.443 65.4315 186.366C69.5267 176.847 75.9051 167.665 85.0887 162.389C89.6392 159.742 94.7139 158.121 99.9575 157.639C105.201 157.157 110.487 157.825 115.445 159.597C120.165 161.317 124.48 163.99 128.12 167.45C131.865 171.13 134.88 175.484 137.006 180.282C139.131 185.256 140.877 190.383 142.228 195.619C142.832 197.715 143.682 200.261 145.709 201.396C146.465 201.869 147.364 202.059 148.247 201.932C149.131 201.804 149.94 201.368 150.531 200.701C150.644 200.568 150.459 200.425 150.336 200.506C149.762 200.887 149.076 201.064 148.389 201.009C147.702 200.953 147.054 200.668 146.548 200.2C145.454 199.272 144.728 197.985 144.501 196.57C143.815 193.748 143.262 190.905 142.453 188.094C140.94 182.381 138.554 176.935 135.378 171.949C132.518 167.671 128.838 164.001 124.552 161.149C120.265 158.297 115.456 156.32 110.401 155.331C105.347 154.343 100.146 154.363 95.0989 155.39C90.0519 156.417 85.258 158.431 80.9934 161.315C72.1477 167.307 66.1584 176.54 62.1962 186.284C60.1484 191.625 58.4387 197.089 57.0771 202.643C56.4015 205.452 55.5675 208.221 54.579 210.936C54.1164 212.125 53.569 213.28 52.9409 214.392C52.7147 214.902 52.3566 215.344 51.9032 215.671C51.4499 215.998 50.9176 216.199 50.3609 216.253C50.2265 216.242 50.0933 216.285 49.9906 216.372C49.8878 216.459 49.824 216.583 49.8132 216.718C49.8023 216.852 49.8453 216.985 49.9326 217.088C50.02 217.19 50.1446 217.254 50.279 217.265Z" fill="#263238"/>
<path d="M53.1358 237.806C53.1206 237.919 53.1492 238.034 53.2157 238.127C53.2823 238.22 53.3819 238.284 53.4942 238.307C54.3253 238.504 55.171 238.634 56.023 238.695C56.4049 238.716 56.7877 238.716 57.1697 238.695C61.6847 238.47 66.384 235.914 71.114 231.098C75.1124 227.023 78.4061 222.314 80.8607 217.162C82.7963 212.748 84.2848 208.151 85.3041 203.441C85.6317 202.122 85.9696 200.792 86.3279 199.484C87.4438 195.292 89.471 189.259 94.0475 185.455C95.592 184.17 97.4057 183.248 99.3548 182.756C101.304 182.264 103.339 182.215 105.309 182.613C108.369 183.233 111.268 184.474 113.827 186.259C116.386 188.044 118.55 190.336 120.185 192.991C122.75 197.26 123.674 202.315 122.786 207.214C121.698 212.508 119.123 217.385 115.363 221.273C111.448 225.297 106.807 228.547 101.685 230.853C99.5146 231.876 96.6377 233.235 93.6891 234.319L91.9998 234.943C89.8498 235.73 87.6384 236.528 85.5191 237.458C85.3818 237.525 85.273 237.638 85.2126 237.778C85.1522 237.918 85.1443 238.075 85.1903 238.22C85.2363 238.365 85.3331 238.489 85.463 238.569C85.593 238.649 85.7473 238.679 85.8979 238.655C87.3824 238.338 88.8465 237.929 90.2081 237.53C100.088 234.698 112.394 230.117 119.899 219.78C123.29 215.3 125.259 209.908 125.55 204.3C125.684 199.154 124.083 194.113 121.004 189.985C117.13 184.667 111.329 181.072 104.838 179.965C102.702 179.614 100.517 179.705 98.4175 180.232C96.3181 180.76 94.3498 181.713 92.6346 183.032C88.8465 185.967 86.0617 190.639 84.1267 197.347C83.5943 199.167 83.1029 201.028 82.6626 202.827C81.6859 207.182 80.3152 211.439 78.5674 215.547C76.0943 220.903 72.6786 225.772 68.4828 229.923C65.053 233.297 59.7087 237.315 53.6989 237.325C53.561 237.317 53.4251 237.362 53.32 237.452C53.2149 237.541 53.1489 237.668 53.1358 237.806Z" fill="#263238"/>
<path d="M51.1699 223.164C52.4475 223.452 53.7749 223.435 55.0449 223.116C56.3148 222.796 57.4916 222.182 58.4799 221.324C60.7221 219.535 61.879 216.559 62.8004 213.921C64.9402 207.786 66.5988 201.447 68.7283 195.282C72.0352 185.67 76.9188 175.855 85.5905 170.068C89.4903 167.508 93.8926 165.81 98.5028 165.087C103.113 164.364 107.825 164.633 112.322 165.875C117.301 167.283 121.814 169.99 125.396 173.718C128.682 177.355 131.286 181.553 133.085 186.11C134.037 188.4 134.856 190.732 135.583 193.104C136.248 195.614 137.041 198.088 137.959 200.517C139.638 204.545 143.866 209.382 148.739 207.388C148.818 207.35 148.883 207.286 148.922 207.208C148.962 207.13 148.974 207.041 148.958 206.955C148.942 206.868 148.897 206.79 148.832 206.732C148.766 206.673 148.684 206.638 148.596 206.631C147.239 206.505 145.925 206.086 144.746 205.403C143.567 204.719 142.55 203.788 141.767 202.674C140.037 200.241 139.371 197.235 138.583 194.402C137.204 189.112 135.168 184.015 132.522 179.229C130.164 174.995 126.953 171.294 123.093 168.36C118.914 165.343 114.092 163.334 109.005 162.491C104.35 161.732 99.5898 161.91 95.0044 163.015C90.4191 164.119 86.101 166.128 82.3041 168.922C73.8781 175.211 69.0764 185.067 65.7899 194.791C63.9368 200.251 62.5035 205.823 60.804 211.324C59.514 215.516 57.2309 222.571 51.4975 221.641C51.3085 221.628 51.1212 221.684 50.97 221.798C50.8187 221.912 50.7136 222.076 50.6738 222.261C50.6341 222.446 50.6623 222.639 50.7534 222.805C50.8445 222.971 50.9923 223.099 51.1699 223.164Z" fill="#263238"/>
<path d="M50.7507 227.173C51.4242 227.931 52.2376 228.552 53.1464 229.003C55.0303 229.943 57.7843 229.637 59.6681 228.88C61.9832 227.822 63.927 226.095 65.2479 223.921C66.6918 221.598 67.9122 219.143 68.8927 216.59C70.0701 213.758 71.0939 210.844 72.0972 207.94C74.1449 202.102 75.9775 196.212 78.2401 190.445C80.2059 185.333 82.6528 180.456 86.7685 176.734C90.4328 173.376 94.9821 171.135 99.8799 170.275C104.778 169.414 109.82 169.97 114.411 171.877C119.122 173.853 123.128 177.199 125.909 181.478C128.98 186.151 130.373 191.601 131.724 196.928C132.932 201.672 133.905 206.795 136.946 210.772C139.474 214.095 144.86 216.723 148.412 213.267C148.45 213.234 148.474 213.189 148.481 213.14C148.487 213.091 148.476 213.041 148.448 213C148.42 212.958 148.379 212.928 148.331 212.916C148.283 212.903 148.232 212.908 148.187 212.93C145.648 214.187 142.669 213.328 140.549 211.611C138.598 209.903 137.135 207.708 136.311 205.251C134.212 199.822 133.383 194.004 131.458 188.472C129.883 183.568 127.135 179.122 123.452 175.517C119.916 172.144 115.606 169.687 110.9 168.36C106.124 167.124 101.108 167.142 96.3417 168.414C91.575 169.686 87.2189 172.169 83.6971 175.62C79.7963 179.536 77.3494 184.474 75.3734 189.576C73.2234 195.169 71.483 200.916 69.5377 206.59C68.5139 209.494 67.4901 212.377 66.3537 215.251C65.4895 217.726 64.4104 220.12 63.1286 222.408C61.9474 224.539 60.0987 226.223 57.8662 227.203C56.8264 227.663 55.6829 227.838 54.553 227.71C53.4231 227.583 52.3476 227.157 51.4367 226.477C50.9657 226.119 50.4026 226.784 50.7507 227.173Z" fill="#263238"/>
<path d="M149.62 197.664C149.697 196.336 149.697 195.004 149.62 193.676C148.556 182.715 143.874 172.417 136.311 164.403C129.305 156.822 119.972 151.786 109.784 150.088C99.7722 148.563 89.5332 150.133 80.441 154.587C71.3937 159.048 63.9459 166.19 59.115 175.037C54.1461 183.757 51.9034 193.764 52.6752 203.768C52.6752 203.983 53.0233 203.942 53.0335 203.768C53.6818 192.972 57.1903 182.541 63.2 173.544C68.5455 165.692 76.0667 159.566 84.8434 155.916C93.6012 152.328 103.253 151.521 112.486 153.606C121.997 155.964 130.468 161.378 136.597 169.014C139.833 173.064 142.442 177.575 144.337 182.398C146.21 187.388 147.692 192.516 148.77 197.735C148.924 198.124 149.589 198.124 149.62 197.664Z" fill="#263238"/>
<path d="M133.987 234.545C135.113 232.888 137.529 234.35 138.778 235.046C140.652 236.068 142.669 237.469 144.921 237.09C144.958 237.078 144.998 237.081 145.032 237.098C145.067 237.116 145.093 237.146 145.105 237.183C145.118 237.219 145.115 237.259 145.097 237.294C145.08 237.328 145.05 237.354 145.013 237.367C144.283 237.727 143.48 237.92 142.665 237.931C141.85 237.941 141.043 237.77 140.304 237.428C139.506 237.101 138.727 236.733 137.969 236.324C137.251 235.909 136.484 235.586 135.686 235.363C135.54 235.342 135.392 235.342 135.246 235.363C135.092 235.363 135.133 235.362 135.113 235.414C134.97 235.679 135.195 236.242 135.277 236.508C135.466 237.199 135.73 237.867 136.065 238.501C136.776 239.806 137.676 240.998 138.737 242.039C139.334 242.649 139.966 243.222 140.631 243.757C141.307 244.299 142.106 244.708 142.751 245.28C142.803 245.309 142.843 245.357 142.86 245.415C142.877 245.472 142.871 245.534 142.843 245.587C142.814 245.64 142.766 245.679 142.708 245.697C142.651 245.714 142.588 245.708 142.536 245.679C141.756 245.438 141.013 245.094 140.324 244.657C139.604 244.235 138.919 243.757 138.276 243.225C136.977 242.157 135.884 240.861 135.051 239.401C134.633 238.675 134.29 237.907 134.028 237.111C133.82 236.716 133.708 236.278 133.701 235.833C133.693 235.387 133.791 234.946 133.987 234.545Z" fill="#263238"/>
<path d="M137.416 237.714C138.638 238.273 139.778 238.995 140.805 239.861C141.262 240.243 141.733 240.601 142.218 240.935C142.453 241.098 142.709 241.252 142.955 241.395C143.207 241.524 143.467 241.636 143.733 241.732C143.784 241.747 143.828 241.778 143.86 241.821C143.891 241.863 143.909 241.914 143.909 241.967C143.909 242.02 143.891 242.072 143.86 242.114C143.828 242.156 143.784 242.187 143.733 242.203C142.515 242.499 141.235 241.701 140.314 241.006C139.151 240.164 138.117 239.158 137.242 238.021C137.099 237.918 137.222 237.714 137.416 237.714Z" fill="#263238"/>
<path d="M57.3846 241.467C57.3796 241.49 57.3796 241.514 57.3846 241.538C57.3916 241.621 57.4252 241.7 57.4806 241.763C57.5359 241.825 57.6099 241.868 57.6917 241.886C57.9935 241.963 58.3021 242.011 58.6132 242.029C59.6954 242.046 60.7746 241.908 61.8177 241.62C63.2783 241.274 64.6988 240.777 66.0563 240.137C68.7099 238.856 71.1649 237.199 73.3459 235.219C80.7685 228.737 85.99 219.504 88.8669 207.756C89.0512 206.979 89.2457 206.191 89.43 205.414C90.4538 201.171 91.4776 196.795 93.8324 193.145C95.0705 191.215 96.7563 189.612 98.7467 188.472C100.82 187.433 103.125 186.94 105.442 187.04C105.562 187.035 105.676 186.991 105.767 186.914C105.859 186.837 105.922 186.732 105.948 186.616C105.974 186.499 105.96 186.377 105.909 186.269C105.859 186.161 105.774 186.073 105.668 186.018C103.016 184.719 99.7193 185.946 98.4293 186.529C96.1418 187.614 94.1373 189.213 92.5731 191.202C89.5016 194.995 88.355 199.862 87.2492 204.566L86.9626 205.741C85.7814 211.055 83.9557 216.206 81.5261 221.078C79.0283 225.861 75.6806 230.15 71.6463 233.737C69.6934 235.527 67.5189 237.059 65.1758 238.297C63.9725 238.901 62.727 239.417 61.4491 239.841C61.0191 239.984 60.5789 240.096 60.1387 240.219C59.2734 240.421 58.4324 240.716 57.6303 241.098C57.5598 241.132 57.4996 241.184 57.4563 241.248C57.413 241.313 57.3882 241.389 57.3846 241.467Z" fill="#263238"/>
<path d="M83.072 235.669C83.066 235.748 83.082 235.827 83.1181 235.897C83.1543 235.968 83.2092 236.027 83.2767 236.068C83.3366 236.111 83.4077 236.136 83.4815 236.139C83.5561 236.143 83.6303 236.126 83.6967 236.092C83.7631 236.058 83.8195 236.008 83.8603 235.945C84.7579 234.839 85.94 233.998 87.2799 233.512C88.488 232.949 89.7472 232.489 90.9656 231.988L91.5184 231.763C94.8663 230.454 97.5897 229.289 100.088 228.093C111.165 222.786 117.769 215.915 119.745 207.643C120.867 203.232 120.313 198.562 118.189 194.535C117.225 192.618 115.871 190.924 114.214 189.559C112.557 188.195 110.633 187.191 108.565 186.611C108.443 186.579 108.313 186.593 108.2 186.649C108.087 186.706 107.999 186.801 107.951 186.918C107.902 187.024 107.895 187.145 107.931 187.257C107.967 187.369 108.043 187.463 108.145 187.521C112.113 189.816 115.214 193.352 116.97 197.582C119.213 203.512 118.127 213.205 107.664 221.048C103.752 223.807 99.537 226.113 95.1018 227.919C92.8904 228.89 90.3923 229.964 87.9965 231.262C87.0044 231.76 86.0588 232.345 85.1708 233.011C84.3544 233.699 83.6619 234.522 83.1232 235.444C83.0824 235.512 83.0645 235.591 83.072 235.669Z" fill="#263238"/>
<path d="M54.1087 243.542C55.6135 244.445 57.3203 244.958 59.0742 245.035C62.2851 245.084 65.4558 244.317 68.2885 242.806C72.5024 240.581 76.3239 237.684 79.6017 234.227C79.919 233.9 80.2159 233.563 80.5231 233.205L80.7995 232.908C80.8729 232.874 80.939 232.825 80.994 232.765C83.5843 230.189 87.1369 228.757 90.5462 227.367C91.7339 226.886 92.9727 226.344 94.1296 225.853C99.8527 223.195 103.753 220.557 106.763 217.285C109.816 214.126 111.741 210.051 112.241 205.69C112.599 201.907 111.708 196.631 108.053 194.177C104.398 191.723 99.7708 193.472 97.0577 196.427C93.9044 199.872 92.297 204.739 90.9967 208.696L90.5462 210.077C89.3636 214.031 87.8498 217.879 86.021 221.58C83.9989 225.403 81.4675 228.935 78.4959 232.08C75.5402 235.208 72.1716 237.918 68.483 240.137C63.6302 243.031 58.9001 243.91 54.4465 242.786H54.3646C54.272 242.782 54.1804 242.806 54.1018 242.856C54.0233 242.905 53.9614 242.977 53.9244 243.062C53.8954 243.151 53.8978 243.247 53.9314 243.334C53.9649 243.422 54.0275 243.495 54.1087 243.542ZM85.1303 227.489C85.8674 226.467 86.5124 225.444 87.0857 224.422C89.2233 220.629 90.9398 216.614 92.2048 212.449C92.4198 211.784 92.6246 211.12 92.8498 210.404C94.0272 206.682 95.2455 202.827 97.4058 199.576C98.4397 197.839 99.989 196.467 101.839 195.65C102.682 195.318 103.586 195.168 104.491 195.21C105.571 195.251 106.602 195.675 107.398 196.406C110.47 199.269 110.664 204.514 109.446 208.441C108.059 212.384 105.524 215.823 102.167 218.318C98.3682 221.334 93.8736 223.348 89.8808 225.127L89.5019 225.291C88.0788 226.037 86.5534 226.723 85.1303 227.489Z" fill="#263238"/>
<path d="M91.795 220.68C91.7705 220.77 91.7729 220.866 91.802 220.955C91.8311 221.044 91.8856 221.122 91.9589 221.181C92.0342 221.243 92.1276 221.279 92.2251 221.283C92.2901 221.287 92.3553 221.276 92.4156 221.252C92.4759 221.227 92.5298 221.189 92.5731 221.14C92.7984 220.915 94.457 219.729 95.2555 219.187C95.5115 219.013 95.7777 218.85 96.0336 218.666C96.5763 218.308 97.1394 217.94 97.6717 217.531C99.2681 216.324 100.768 214.994 102.156 213.553C104.838 210.741 106.098 207.93 105.872 205.179C105.869 204.5 105.675 203.836 105.313 203.262C104.951 202.687 104.436 202.225 103.825 201.928C103.081 201.679 102.278 201.673 101.531 201.91C100.784 202.147 100.131 202.615 99.6682 203.247C98.7368 204.486 98.0109 205.867 97.5182 207.337C97.0472 208.523 96.6275 209.76 96.2077 210.946L95.8698 211.907C94.7182 214.769 93.3739 217.549 91.8462 220.23C91.7976 220.293 91.7672 220.369 91.7582 220.448C91.7492 220.527 91.7619 220.607 91.795 220.68ZM97.0267 213.604C97.993 211.084 99.1286 208.631 100.426 206.263L100.487 206.161C100.835 205.547 101.665 204.116 102.463 203.952H102.637C102.806 203.966 102.966 204.031 103.098 204.136C103.794 204.678 103.692 206.181 103.364 207.316C102.607 210.036 100.293 212.234 98.4908 214.003L97.0575 215.373C96.566 215.833 96.0848 216.304 95.6036 216.774C96.2179 215.639 96.6582 214.525 97.0267 213.604Z" fill="#263238"/>
<path d="M98.2658 266.813C96.4973 270.321 94.9117 273.918 93.5153 277.59C93.5119 277.614 93.5162 277.638 93.5275 277.659C93.5389 277.681 93.5568 277.698 93.5786 277.708C93.6003 277.718 93.6248 277.721 93.6484 277.717C93.6721 277.712 93.6936 277.7 93.7098 277.682C95.7063 274.717 97.3649 271.547 99.2384 268.48C100.467 266.507 102.689 261.895 105.688 262.642C106.948 262.948 107.849 264.339 108.545 265.331C109.458 266.702 110.449 268.02 111.514 269.277C113.152 271.138 116.224 273.572 118.906 272.917C119.029 272.917 119.1 272.693 118.978 272.631C118.261 272.253 117.503 272.018 116.797 271.609C116.018 271.17 115.296 270.638 114.647 270.024C113.394 268.747 112.288 267.334 111.35 265.811C109.814 263.439 108.023 260.31 104.685 260.699C101.593 261.057 99.4842 264.298 98.2658 266.813Z" fill="#263238"/>
<path d="M53.965 246.19C57.2105 250.454 63.0155 249.697 67.2132 247.428C69.6321 246.024 71.9149 244.398 74.0318 242.571C76.2711 240.685 78.6689 238.995 81.1985 237.52C81.2297 237.51 81.2559 237.489 81.2712 237.46C81.2866 237.431 81.2899 237.398 81.2804 237.366C81.2709 237.335 81.2494 237.309 81.2206 237.294C81.1918 237.278 81.158 237.275 81.1268 237.285C75.9361 238.113 72.1889 242.397 67.9606 245.096C63.9882 247.652 58.2241 249.186 54.1288 245.955C54.0265 245.832 53.8627 246.057 53.965 246.19Z" fill="#263238"/>
<path d="M138.491 254.268C138.819 254.268 138.952 253.777 138.614 253.695C133.372 252.397 129.236 248.471 126.697 243.798C124.401 239.539 123.076 234.825 122.817 229.995C122.58 226.362 123.117 222.72 124.393 219.31C124.731 218.172 125.318 217.124 126.113 216.242C126.294 216.014 126.521 215.827 126.779 215.693C127.037 215.559 127.321 215.482 127.612 215.467C127.903 215.451 128.193 215.498 128.465 215.603C128.736 215.709 128.981 215.871 129.185 216.079C129.745 216.856 130.248 217.673 130.69 218.522C131.895 220.327 133.499 221.832 135.379 222.919C137.249 224.005 139.36 224.613 141.522 224.688C143.818 224.747 146.084 224.163 148.064 223.001C148.197 222.919 148.136 222.663 147.972 222.715C145.243 223.547 142.329 223.554 139.596 222.735C136.863 221.916 134.434 220.308 132.615 218.113C131.366 216.508 130.69 214.024 128.304 213.84C125.919 213.655 124.26 215.557 123.318 217.531C121.222 222.26 120.532 227.492 121.332 232.602C122.592 241.61 128.018 253.787 138.491 254.268Z" fill="#263238"/>
<path d="M100.61 274.196C100.281 275.127 100.132 276.112 100.17 277.099C100.177 277.129 100.193 277.156 100.215 277.177C100.237 277.198 100.264 277.212 100.294 277.219C100.324 277.225 100.355 277.223 100.384 277.213C100.412 277.203 100.437 277.185 100.456 277.161C100.932 276.417 101.294 275.608 101.531 274.758C101.849 273.879 102.176 272.999 102.555 272.14C102.929 271.277 103.367 270.443 103.866 269.646C104.03 269.295 104.251 268.973 104.521 268.695L104.593 268.644L104.756 268.807C104.91 268.954 105.054 269.111 105.186 269.278C106.226 270.704 107.347 272.07 108.545 273.367C109.568 274.318 111.196 275.351 112.64 275.024C112.659 275.015 112.676 275 112.688 274.982C112.699 274.964 112.706 274.943 112.706 274.922C112.706 274.9 112.699 274.879 112.688 274.861C112.676 274.843 112.659 274.828 112.64 274.819C111.818 274.399 111.057 273.869 110.377 273.245C109.744 272.589 109.171 271.877 108.667 271.118C108.084 270.32 107.562 269.472 106.927 268.705C106.292 267.938 105.586 266.946 104.572 266.946C103.559 266.946 103.077 267.856 102.678 268.582C102.192 269.449 101.781 270.355 101.45 271.292C101.173 272.253 100.866 273.214 100.61 274.196Z" fill="#263238"/>
<path d="M140.938 248.757C140.978 248.769 141.02 248.767 141.058 248.75C141.096 248.734 141.127 248.705 141.145 248.668C141.164 248.632 141.169 248.589 141.159 248.549C141.149 248.509 141.125 248.474 141.092 248.45C139.834 247.39 138.669 246.223 137.611 244.963C136.603 243.651 135.667 242.286 134.806 240.874C133.092 238.441 131.624 235.845 130.424 233.123C129.804 231.801 129.483 230.36 129.482 228.9C129.676 226.855 131.734 228.348 132.625 229.115C133.616 230.084 134.677 230.98 135.799 231.794C138.028 233.227 140.674 233.871 143.314 233.624C144.583 233.398 145.805 232.959 146.928 232.326C147.184 232.213 146.999 231.866 146.743 231.947C145.739 232.193 144.704 232.29 143.672 232.234C142.823 232.249 141.974 232.198 141.133 232.08C139.384 231.808 137.721 231.14 136.27 230.127C134.529 228.89 131.335 224.739 128.898 226.743C126.789 228.471 128.417 232.489 129.267 234.452C130.673 237.432 132.389 240.256 134.386 242.878C136.024 245.127 138.195 247.816 140.938 248.757Z" fill="#263238"/>
<path d="M60.497 256.579C62.7284 257.022 65.0451 256.633 67.0084 255.485C67.4282 255.26 67.8172 255.004 68.2268 254.748C68.0118 254.994 67.807 255.229 67.6125 255.474C66.2061 257.19 65.3246 259.274 65.0734 261.476C65.0727 261.506 65.0814 261.536 65.0984 261.561C65.1154 261.586 65.1398 261.604 65.1682 261.615C65.1965 261.625 65.2273 261.626 65.2562 261.617C65.2852 261.609 65.3108 261.592 65.3294 261.568C66.476 259.82 67.6534 258.061 68.9639 256.456C70.2744 254.851 71.7999 253.266 73.0592 251.579C73.108 251.504 73.1341 251.417 73.1341 251.327C73.1341 251.238 73.1081 251.151 73.0593 251.076C73.0104 251.001 72.9409 250.942 72.859 250.906C72.7772 250.87 72.6867 250.859 72.5984 250.873C70.428 251.364 68.8001 252.918 66.8753 253.941C64.8388 255.006 62.689 255.839 60.4662 256.425C60.3843 256.425 60.3843 256.558 60.497 256.579Z" fill="#263238"/>
<path d="M84.2605 266.149C83.0961 268.315 82.0702 270.551 81.189 272.846C81.1605 272.902 81.1553 272.966 81.1745 273.026C81.1937 273.085 81.2357 273.135 81.2914 273.163C81.3471 273.192 81.4118 273.197 81.4713 273.178C81.5308 273.159 81.5803 273.117 81.6088 273.061C83.3493 270.72 84.7519 268.122 86.3695 265.689C87.9871 263.256 89.5945 261.047 91.3555 258.828C94.155 255.216 97.5476 252.105 101.389 249.626C102.373 248.998 103.4 248.438 104.46 247.949C105.554 247.331 106.778 246.981 108.033 246.927C110.306 247.049 111.781 249.227 112.794 250.914C115.241 255.004 117.33 259.319 121.118 262.438C122.777 263.88 124.779 264.873 126.933 265.321C127.85 265.586 128.828 265.558 129.728 265.239C130.004 265.065 130.179 264.81 129.902 264.564C129.81 264.493 129.667 264.564 129.728 264.707C129.789 264.851 128.407 264.575 128.346 264.554L127.465 264.309C126.847 264.118 126.247 263.872 125.674 263.573C124.58 263.003 123.55 262.317 122.602 261.528C120.581 259.723 118.884 257.586 117.586 255.209C116.408 253.215 115.364 251.119 114.053 249.207C113.033 247.481 111.477 246.134 109.62 245.373C107.286 244.616 104.921 245.454 102.812 246.395C100.777 247.315 98.8512 248.457 97.0684 249.8C93.4322 252.554 90.3127 255.929 87.854 259.769C86.5455 261.832 85.346 263.961 84.2605 266.149Z" fill="#263238"/>
<path d="M90.1266 270.709C89.407 272.417 88.8981 274.206 88.6114 276.036C88.6087 276.066 88.6162 276.096 88.6326 276.121C88.649 276.146 88.6734 276.165 88.7018 276.174C88.7303 276.184 88.7611 276.183 88.7892 276.173C88.8174 276.163 88.8413 276.144 88.8571 276.118C89.8809 274.339 90.5976 272.366 91.6623 270.587C92.7271 268.807 93.71 267.049 94.7338 265.341C96.6492 262.274 98.8684 259.407 101.358 256.783C102.535 255.587 103.917 254.564 105.637 254.738C107.251 255.065 108.699 255.944 109.733 257.223C112.046 259.81 113.111 263.358 115.497 265.893C116.554 267.051 117.873 267.939 119.345 268.484C120.816 269.028 122.396 269.213 123.953 269.022C124.056 269.022 124.087 268.808 123.953 268.777C121.949 268.298 120.07 267.395 118.445 266.129C116.861 264.771 115.557 263.118 114.606 261.262C112.845 258.194 111.135 254.861 107.808 253.327C106.349 252.627 104.673 252.525 103.139 253.041C101.54 253.737 100.135 254.811 99.044 256.17C96.4431 258.986 94.2042 262.115 92.379 265.484C91.5049 267.17 90.7522 268.916 90.1266 270.709Z" fill="#263238"/>
<path d="M75.3117 268.981C75.2871 269.063 75.2933 269.151 75.3291 269.228C75.365 269.305 75.428 269.367 75.5062 269.401H75.6393C75.6976 269.401 75.755 269.387 75.8068 269.361C75.8585 269.334 75.9029 269.295 75.9362 269.247C77.4852 266.828 79.1632 264.493 80.9632 262.253C82.8544 259.956 84.8745 257.768 87.0139 255.699C90.5588 252.083 94.3454 248.712 98.3475 245.608C100.322 244.105 102.466 242.839 104.736 241.835C106.896 240.894 109.855 239.616 111.903 241.436C113.091 242.668 114.033 244.115 114.677 245.7C114.964 246.293 115.251 246.865 115.548 247.407C116.792 249.717 118.256 251.901 119.919 253.931C121.534 255.91 123.468 257.607 125.642 258.951C127.721 260.259 130.092 261.032 132.543 261.2C132.627 261.209 132.711 261.185 132.777 261.134C132.844 261.083 132.889 261.008 132.901 260.924C132.923 260.844 132.913 260.759 132.873 260.686C132.833 260.613 132.766 260.559 132.686 260.536C125.878 258.153 121.506 252.949 119.049 249.002C118.363 247.898 117.739 246.702 117.155 245.557C116.571 244.411 115.967 243.256 115.271 242.152C113.787 239.749 111.882 238.522 109.65 238.45C106.968 238.379 104.183 239.544 102.064 240.546C99.7353 241.67 97.535 243.041 95.5013 244.636C91.3879 247.977 87.5499 251.643 84.0244 255.597C80.3693 259.534 76.7655 263.889 75.3117 268.981Z" fill="#263238"/>
<path d="M139.218 252.121C139.556 252.284 139.761 251.783 139.505 251.579C136.076 248.974 133.119 245.803 130.762 242.203C128.831 239.066 127.498 235.599 126.83 231.978C126.476 230.124 126.295 228.242 126.287 226.354C126.287 224.974 125.929 221.487 127.956 221.477C129.983 221.467 131.099 223.9 132.277 225.066C133.622 226.429 135.208 227.532 136.956 228.317C138.689 229.128 140.617 229.427 142.515 229.179C144.412 228.931 146.199 228.146 147.665 226.917C147.688 226.897 147.704 226.87 147.708 226.841C147.713 226.811 147.706 226.78 147.69 226.755C147.673 226.73 147.648 226.711 147.619 226.703C147.59 226.695 147.559 226.699 147.532 226.712C143.027 229.217 137.119 227.264 133.638 223.911C132.226 222.561 131.079 220.608 129.072 220.066C128.666 219.908 128.231 219.838 127.796 219.86C127.361 219.883 126.936 219.997 126.549 220.196C126.161 220.396 125.821 220.675 125.55 221.015C125.279 221.356 125.084 221.751 124.977 222.172C124.569 224.056 124.452 225.99 124.629 227.908C124.722 229.853 125.017 231.782 125.509 233.665C127.526 241.149 132.174 248.562 139.218 252.121Z" fill="#263238"/>
<path d="M72.4247 261.712C71.6058 263.123 70.9955 264.645 70.6125 266.231C70.5726 266.419 70.5985 266.615 70.6861 266.786C70.7738 266.958 70.9177 267.094 71.0937 267.172C71.1701 267.197 71.2491 267.214 71.3292 267.223C71.4556 267.228 71.5811 267.2 71.6928 267.141C71.8045 267.081 71.8981 266.993 71.964 266.885C72.568 265.955 73.1414 265.004 73.7147 264.063C74.9355 261.949 76.304 259.923 77.8099 258C80.053 255.292 82.4892 252.75 85.0995 250.393C90.373 245.992 95.8935 241.896 101.634 238.123C109.825 232.684 115.445 229.811 116.735 230.404C117.616 230.813 117.657 232.275 117.698 233.471C117.698 233.812 117.715 234.154 117.749 234.493C117.959 236.168 118.26 237.831 118.65 239.473C119.337 242.619 120.522 245.636 122.162 248.409C123.669 250.933 125.713 253.093 128.151 254.738C129.482 255.607 132.932 257.56 136.106 256.957C136.189 256.925 136.26 256.869 136.312 256.797C136.364 256.725 136.394 256.64 136.398 256.551C136.402 256.463 136.381 256.375 136.336 256.298C136.292 256.221 136.226 256.159 136.147 256.119C135.625 255.914 135.123 255.73 134.601 255.546C133.503 255.174 132.432 254.726 131.396 254.207C129.9 253.4 128.522 252.392 127.301 251.211C124.819 248.714 122.951 245.676 121.844 242.336C120.813 239.08 120.126 235.725 119.797 232.326C119.788 231.601 119.615 230.888 119.29 230.24C118.965 229.592 118.498 229.025 117.923 228.584C116.715 227.796 114.637 228.338 113.613 228.778C107.736 231.293 88.8569 243.338 81.3319 250.311C78.991 252.533 76.8814 254.986 75.0354 257.632C74.0903 258.943 73.2187 260.305 72.4247 261.712Z" fill="#263238"/>
<path d="M57.4769 252.09C61.4185 253.797 66.0871 252.09 69.6807 250.311C73.2743 248.532 76.2331 246.129 79.6015 244.176C80.4717 243.685 81.342 243.225 82.2429 242.806C82.6934 242.601 83.1541 242.407 83.6148 242.233C83.8503 242.141 84.1267 241.967 84.3725 242.049C84.6182 242.131 84.6694 242.049 84.4748 242.243C84.2803 242.438 84.352 242.417 84.2803 242.499C83.1132 243.951 81.2805 244.994 79.8779 246.2C77.0091 248.622 74.4013 251.336 72.0969 254.298C69.9264 257.11 67.6638 260.341 66.9779 263.889C66.9779 264.063 67.1826 264.124 67.2748 264.002C68.6569 262.12 69.8138 260.075 71.1857 258.184C72.533 256.34 74.022 254.603 75.6393 252.99C77.0829 251.538 78.5879 250.137 80.1134 248.777C81.6389 247.417 83.2463 246.252 84.6182 244.81C85.5703 243.787 87.2699 241.742 85.4065 240.72C83.9015 239.902 81.6696 241.303 80.3386 241.967C76.571 243.849 73.1719 246.395 69.5067 248.419C67.6206 249.482 65.6177 250.322 63.5378 250.924C61.5544 251.431 59.5227 251.726 57.4769 251.804C57.3131 251.814 57.3131 252.028 57.4769 252.09Z" fill="#263238"/>
<path d="M104.49 272.028C104.489 271.991 104.489 271.953 104.49 271.916C104.503 271.88 104.523 271.848 104.55 271.822C104.577 271.796 104.609 271.776 104.644 271.764C104.68 271.752 104.718 271.749 104.755 271.754C104.792 271.759 104.828 271.772 104.859 271.793L104.941 271.844C105.299 271.977 105.535 272.498 105.668 272.805C105.801 273.112 106.006 273.572 106.18 273.94C106.517 274.676 106.814 275.433 107.203 276.159C107.224 276.19 107.233 276.229 107.227 276.266C107.222 276.304 107.202 276.338 107.173 276.362C107.144 276.386 107.107 276.398 107.069 276.397C107.031 276.395 106.995 276.38 106.968 276.353C106.242 275.86 105.623 275.228 105.146 274.492C104.931 274.135 104.743 273.762 104.582 273.378C104.482 273.136 104.416 272.881 104.388 272.621C104.358 272.418 104.393 272.21 104.49 272.028Z" fill="#263238"/>
<path d="M24.2951 161.724H21.2236V125.876H57.1186V128.944H24.2951V161.724Z" fill="#979782"/>
<path d="M179.035 283.47H143.14V280.402H175.963V247.622H179.035V283.47Z" fill="#979782"/>
<path d="M57.1186 283.47H21.2236V247.622H24.2951V280.402H57.1186V283.47Z" fill="#979782"/>
<path d="M179.035 161.724H175.963V128.944H143.14V125.876H179.035V161.724Z" fill="#979782"/>
<path d="M186.938 291.373H184.512V290.607H186.17V288.95H186.938V291.373Z" fill="#979782"/>
<path d="M180.396 291.373H176.301V290.606H180.396V291.373ZM172.206 291.373H168.11V290.606H172.206V291.373ZM164.015 291.373H159.92V290.606H164.015V291.373ZM155.825 291.373H151.729V290.606H155.825V291.373ZM147.634 291.373H143.539V290.606H147.634V291.373ZM139.444 291.373H135.348V290.606H139.444V291.373ZM131.253 291.373H127.158V290.606H131.253V291.373ZM123.063 291.373H118.967V290.606H123.063V291.373ZM114.872 291.373H110.777V290.606H114.872V291.373ZM106.682 291.373H102.586V290.606H106.682V291.373ZM98.491 291.373H94.3958V290.606H98.491V291.373ZM90.3005 291.373H86.2053V290.606H90.3005V291.373ZM82.11 291.373H78.0147V290.606H82.11V291.373ZM73.9195 291.373H69.8242V290.606H73.9195V291.373ZM65.729 291.373H61.6337V290.606H65.729V291.373ZM57.5385 291.373H53.4432V290.606H57.5385V291.373ZM49.3479 291.373H45.2527V290.606H49.3479V291.373ZM41.1574 291.373H37.0622V290.606H41.1574V291.373ZM32.9669 291.373H28.8717V290.606H32.9669V291.373ZM24.7764 291.373H20.6812V290.606H24.7764V291.373Z" fill="#979782"/>
<path d="M15.7463 291.373H13.3198V288.95H14.0877V290.607H15.7463V291.373Z" fill="#979782"/>
<path d="M14.0882 284.829H13.2891V280.739H14.0574L14.0882 284.829ZM14.0882 276.65H13.2891V272.56H14.0574L14.0882 276.65ZM14.0882 268.47H13.2891V264.38H14.0574L14.0882 268.47ZM14.0882 260.29H13.2891V256.2H14.0574L14.0882 260.29ZM14.0882 252.11H13.2891V248.02H14.0574L14.0882 252.11ZM14.0882 243.931H13.2891V239.841H14.0574L14.0882 243.931ZM14.0882 235.751H13.2891V231.661H14.0574L14.0882 235.751ZM14.0882 227.571H13.2891V223.481H14.0574L14.0882 227.571ZM14.0882 219.391H13.2891V215.301H14.0574L14.0882 219.391ZM14.0882 211.212H13.2891V207.122H14.0574L14.0882 211.212ZM14.0882 203.032H13.2891V198.942H14.0574L14.0882 203.032ZM14.0882 194.852H13.2891V190.762H14.0574L14.0882 194.852ZM14.0882 186.672H13.2891V182.582H14.0574L14.0882 186.672ZM14.0882 178.492H13.2891V174.403H14.0574L14.0882 178.492ZM14.0882 170.313H13.2891V166.223H14.0574L14.0882 170.313ZM14.0882 162.082H13.2891V157.992H14.0574L14.0882 162.082ZM14.0882 153.902H13.2891V149.812H14.0574L14.0882 153.902ZM14.0882 145.722H13.2891V141.632H14.0574L14.0882 145.722ZM14.0882 137.543H13.2891V133.453H14.0574L14.0882 137.543ZM14.0882 129.363H13.2891V125.273H14.0574L14.0882 129.363Z" fill="#979782"/>
<path d="M14.0877 120.406H13.3198V117.983H15.7463V118.75H14.0877V120.406Z" fill="#979782"/>
<path d="M180.396 118.75H176.301V117.983H180.396V118.75ZM172.206 118.75H168.11V117.983H172.206V118.75ZM164.015 118.75H159.92V117.983H164.015V118.75ZM155.825 118.75H151.729V117.983H155.825V118.75ZM147.634 118.75H143.539V117.983H147.634V118.75ZM139.444 118.75H135.348V117.983H139.444V118.75ZM131.253 118.75H127.158V117.983H131.253V118.75ZM123.063 118.75H118.967V117.983H123.063V118.75ZM114.872 118.75H110.777V117.983H114.872V118.75ZM106.682 118.75H102.586V117.983H106.682V118.75ZM98.491 118.75H94.3958V117.983H98.491V118.75ZM90.3005 118.75H86.2053V117.983H90.3005V118.75ZM82.11 118.75H78.0147V117.983H82.11V118.75ZM73.9195 118.75H69.8242V117.983H73.9195V118.75ZM65.729 118.75H61.6337V117.983H65.729V118.75ZM57.5385 118.75H53.4432V117.983H57.5385V118.75ZM49.3479 118.75H45.2527V117.983H49.3479V118.75ZM41.1574 118.75H37.0622V117.983H41.1574V118.75ZM32.9669 118.75H28.8717V117.983H32.9669V118.75ZM24.7764 118.75H20.6812V117.983H24.7764V118.75Z" fill="#979782"/>
<path d="M186.938 120.406H186.17V118.75H184.512V117.983H186.938V120.406Z" fill="#979782"/>
<path d="M186.938 284.829H186.17V280.739H186.938V284.829ZM186.938 276.65H186.17V272.56H186.938V276.65ZM186.938 268.47H186.17V264.38H186.938V268.47ZM186.938 260.29H186.17V256.2H186.938V260.29ZM186.938 252.11H186.17V248.02H186.938V252.11ZM186.938 243.931H186.17V239.841H186.938V243.931ZM186.938 235.751H186.17V231.661H186.938V235.751ZM186.938 227.571H186.17V223.481H186.938V227.571ZM186.938 219.391H186.17V215.301H186.938V219.391ZM186.938 211.212H186.17V207.122H186.938V211.212ZM186.938 203.032H186.17V198.942H186.938V203.032ZM186.938 194.852H186.17V190.762H186.938V194.852ZM186.938 186.672H186.17V182.582H186.938V186.672ZM186.938 178.492H186.17V174.403H186.938V178.492ZM186.938 170.313H186.17V166.223H186.938V170.313ZM186.938 162.082H186.17V157.992H186.938V162.082ZM186.938 153.902H186.17V149.812H186.938V153.902ZM186.938 145.722H186.17V141.632H186.938V145.722ZM186.938 137.543H186.17V133.453H186.938V137.543ZM186.938 129.363H186.17V125.273H186.938V129.363Z" fill="#979782"/>
<path d="M236.859 409.489H331.398C332.176 406.421 332.924 403.456 333.681 400.512C334.541 397.103 335.384 393.801 336.21 390.604C336.384 389.888 336.579 389.172 336.763 388.467C337.388 386.003 337.992 383.6 338.596 381.31C338.954 379.878 339.312 378.477 339.62 377.097C339.927 375.717 340.336 374.295 340.643 372.946C340.736 372.588 340.828 372.22 340.92 371.923C341.012 371.627 341.114 371.136 341.207 370.758L341.565 369.357C341.698 368.866 341.821 368.386 341.933 367.905C342.179 366.995 342.404 366.105 342.619 365.226C342.957 363.938 343.275 362.67 343.592 361.433C343.725 360.901 343.868 360.359 344.002 359.838C344.227 358.969 344.442 358.13 344.647 357.312C344.79 356.76 344.923 356.218 345.056 355.697C345.619 353.529 346.131 351.494 346.612 349.562C346.745 349.061 346.858 348.539 346.991 348.09C347.196 347.261 347.401 346.474 347.595 345.707C347.728 345.227 347.841 344.767 347.953 344.306C348.373 342.681 348.752 341.239 349.08 339.9C349.172 339.552 349.254 339.215 349.346 338.877L349.929 336.566C350.001 336.3 350.063 336.035 350.134 335.789C350.206 335.544 350.267 335.268 350.318 335.043C350.37 334.818 350.411 334.705 350.441 334.562C350.472 334.419 350.564 334.102 350.615 333.918C350.631 333.821 350.655 333.725 350.687 333.632L350.902 332.773H259.004C259.004 332.773 255.933 343.212 251.121 360.032C250.097 363.457 249.073 367.189 247.937 371.075C244.671 382.189 240.914 395.277 236.859 409.489Z" fill="#37474F"/>
<path d="M315.919 409.489H318.274C321.775 395.024 325.167 380.536 328.45 366.024C329.242 362.493 330.024 358.958 330.795 355.421L331.01 354.398C331.016 354.363 331.008 354.327 330.989 354.297C330.969 354.267 330.939 354.245 330.905 354.236C330.87 354.227 330.833 354.231 330.801 354.248C330.77 354.265 330.746 354.293 330.734 354.327L330.641 354.654C329.577 358.444 328.519 362.244 327.468 366.054C323.505 380.471 319.656 394.949 315.919 409.489Z" fill="#263238"/>
<path d="M261.943 332.681L266.038 352.987L269.335 369.613L275.007 397.986L275.59 400.9L276.563 405.747L277.29 409.417H331.409C332.177 406.35 332.934 403.375 333.682 400.44C334.542 397.032 335.384 393.729 336.21 390.532C336.384 389.817 336.579 389.101 336.763 388.396C337.388 385.931 337.992 383.529 338.596 381.238C338.954 379.807 339.312 378.406 339.62 377.026C339.927 375.645 340.336 374.224 340.643 372.874C340.736 372.517 340.828 372.148 340.92 371.852C341.012 371.555 341.114 371.065 341.207 370.686L341.565 369.286C341.698 368.795 341.821 368.314 341.933 367.834C342.179 366.924 342.404 366.034 342.619 365.155C342.957 363.866 343.275 362.599 343.592 361.361C343.735 360.819 343.868 360.288 344.002 359.766C344.227 358.897 344.442 358.059 344.647 357.241C344.79 356.689 344.923 356.147 345.056 355.625C345.619 353.458 346.131 351.423 346.612 349.491C346.745 348.99 346.858 348.468 346.991 348.018C347.196 347.19 347.401 346.403 347.595 345.636C347.728 345.155 347.841 344.695 347.953 344.235C348.373 342.609 348.752 341.168 349.08 339.828C349.172 339.481 349.254 339.143 349.346 338.806L349.929 336.495C350.001 336.229 350.063 335.963 350.134 335.718C350.206 335.472 350.267 335.196 350.319 334.971C350.37 334.747 350.411 334.634 350.441 334.491C350.472 334.348 350.564 334.031 350.615 333.847C350.631 333.749 350.655 333.654 350.687 333.56L350.902 332.702L261.943 332.681Z" fill="#263238"/>
<path d="M261.933 332.65C261.933 333.161 262.322 338.642 263.202 346.965C263.458 349.408 263.755 352.077 264.103 354.96C264.646 359.5 265.311 364.5 266.151 369.786C267.564 378.989 269.406 389.07 271.802 398.906C272.652 402.444 273.594 405.951 274.587 409.387H393.349C391.947 391.309 390.667 374.96 389.653 362.077C388.22 343.938 387.319 332.579 387.319 332.579H279.573L261.933 332.65Z" fill="#37474F"/>
<path d="M262.188 343.55C262.322 347.793 262.496 352.037 262.772 356.259C263.059 360.84 263.478 365.41 264.083 369.981C264.094 370.149 264.114 370.316 264.144 370.482C264.71 374.763 265.352 379.033 266.069 383.293C266.755 387.261 267.256 391.545 269.017 395.226C269.685 396.644 270.628 397.917 271.792 398.968C272.865 399.942 274.174 400.619 275.59 400.931C275.822 400.989 276.058 401.027 276.297 401.043C276.358 401.043 276.43 401.043 276.501 401.043C276.457 401.066 276.42 401.102 276.397 401.145C276.373 401.189 276.363 401.239 276.368 401.289C276.419 402.71 276.368 404.162 276.542 405.573C276.542 405.634 276.542 405.696 276.542 405.757C276.686 406.984 276.911 408.201 277.136 409.428H279.184C279.184 409.428 279.184 409.428 279.184 409.356C278.825 408.017 278.529 406.667 278.16 405.266C277.791 403.866 277.341 402.547 277.024 401.176C277.008 401.121 276.971 401.073 276.921 401.043C278.216 401.108 279.5 400.775 280.599 400.087C281.697 399.399 282.558 398.391 283.064 397.199C283.579 395.381 283.614 393.462 283.166 391.627L282.061 384.336C281.365 379.878 280.474 375.461 279.675 371.044C279.563 370.369 279.44 369.695 279.317 368.999C277.73 359.971 276.061 350.932 274.065 341.986C273.993 341.618 273.901 341.25 273.819 340.871C273.737 340.493 273.369 340.697 273.389 340.933C273.45 341.536 273.512 342.139 273.584 342.742C273.932 346.178 274.341 349.593 274.812 352.967C275.385 356.975 275.785 361.004 276.348 365.012L276.931 369.102C277.853 375.696 278.815 382.291 279.941 388.856C280.474 391.923 282.378 397.373 277.976 398.324C276.969 398.547 275.915 398.413 274.996 397.945C273.056 396.793 271.601 394.976 270.901 392.833C269.652 389.336 269.212 385.492 268.567 381.852C267.837 377.837 267.195 373.812 266.642 369.776C265.925 364.746 265.188 359.715 264.39 354.695C264.001 352.129 263.591 349.583 263.182 347.006C262.997 345.83 262.803 344.644 262.608 343.458C262.578 343.223 262.188 343.294 262.188 343.55Z" fill="#263238"/>
<path d="M367.294 375.083C362.348 375.034 357.427 374.375 352.643 373.12C350.431 372.547 348.251 371.842 346.09 371.136C343.944 370.539 341.935 369.532 340.173 368.171C336.845 365.298 335.289 360.779 333.846 356.77C332.266 352.247 330.983 347.626 330.006 342.936C329.955 342.701 329.617 342.773 329.607 342.998C329.513 348.308 330.203 353.603 331.655 358.713C332.853 363.048 334.46 367.915 337.972 370.983C341.657 374.173 346.674 375.298 351.394 375.88C356.705 376.499 362.073 376.427 367.365 375.666C367.404 375.661 367.441 375.649 367.474 375.63C367.508 375.611 367.537 375.585 367.561 375.555C367.585 375.525 367.602 375.49 367.613 375.453C367.623 375.416 367.626 375.377 367.621 375.338C367.617 375.3 367.604 375.263 367.585 375.23C367.566 375.196 367.541 375.167 367.51 375.143C367.48 375.119 367.445 375.102 367.408 375.091C367.371 375.081 367.332 375.078 367.294 375.083Z" fill="#263238"/>
<path d="M375.525 343.028C375.791 349.674 376.071 356.32 376.364 362.966C377.047 378.447 377.794 393.927 378.607 409.407H380.839C379.815 393.886 378.74 378.382 377.614 362.895C377.122 356.256 376.617 349.63 376.098 343.018C376.097 342.942 376.065 342.87 376.011 342.817C375.956 342.764 375.883 342.736 375.806 342.737C375.73 342.738 375.658 342.77 375.605 342.824C375.553 342.879 375.524 342.952 375.525 343.028Z" fill="#263238"/>
<path d="M275.119 195.957C228.331 238.072 184.952 284.196 181.553 307.733C176.854 340.329 196.91 349.378 205.92 349.46C230.409 349.705 274.915 250.587 290.395 212.746C305.424 175.998 285.398 186.703 275.119 195.957Z" fill="#D3766A"/>
<path d="M204.497 263.358L256.527 291.598C256.527 291.598 288.87 231.927 296.323 204.269C303.776 176.611 292.647 177.388 268.219 198.922C243.791 220.455 204.497 263.358 204.497 263.358Z" fill="#C7C7C7"/>
<path d="M204.497 263.358L256.527 291.598C256.527 291.598 288.87 231.927 296.323 204.269C303.776 176.611 292.647 177.388 268.219 198.922C243.791 220.455 204.497 263.358 204.497 263.358Z" fill="#D3EAED"/>
<path opacity="0.1" d="M296.323 204.259C288.869 231.927 256.517 291.609 256.517 291.609L209.145 265.883L296.394 183.983C299.302 186.212 299.425 192.787 296.323 204.259Z" fill="black"/>
<path d="M215.206 255.393C235.262 268.95 254.705 277.754 258.605 279.993C258.79 280.106 258.943 279.799 258.749 279.697C254.807 277.703 233.46 264.431 215.359 255.065C215.155 254.953 214.981 255.26 215.206 255.393Z" fill="#263238"/>
<path d="M244.794 369.52L397.148 369.96C397.148 369.96 383.839 255.444 327.918 187.848C314.977 172.194 294.132 180.691 285.337 189.014C263.018 210.107 244.364 368.968 244.794 369.52Z" fill="#D3EAED"/>
<path d="M297.203 181.622C300.858 184.29 304.37 187.235 307.882 189.965L318.12 197.889C321.191 200.292 324.263 203.001 327.754 204.893C330.897 206.611 334.552 207.378 337.92 205.844C338.744 205.462 339.517 204.982 340.224 204.412L340.572 204.954C338.857 206.379 336.737 207.23 334.511 207.388C331.143 207.582 328 206.048 325.297 204.208C321.877 201.897 318.693 199.229 315.427 196.703C309.09 191.805 302.834 186.693 296.323 182.01C296.579 181.877 296.886 181.744 297.203 181.622ZM357.967 272.713C363.358 272.681 368.739 273.157 374.041 274.135C373.918 273.777 373.785 273.409 373.641 273.051C368.983 272.199 364.259 271.758 359.523 271.732C345.732 271.476 327.283 272.335 318.949 258.838C315.663 253.522 314.598 246.456 318.212 241.007C321.396 236.201 327.344 234.125 332.924 234.177C335.834 234.194 338.714 234.763 341.412 235.853C344.598 237.304 347.537 239.243 350.124 241.6C355.08 245.812 359.697 250.751 365.901 253.092L365.41 251.906C363.563 251.114 361.811 250.115 360.188 248.931C354.424 244.769 349.766 239.003 343.357 235.751C338.45 233.28 332.829 232.61 327.478 233.86C322.358 235.097 317.802 238.42 315.908 243.481C313.799 249.125 315.448 255.587 318.816 260.403C327.478 272.744 344.524 272.54 357.967 272.713ZM334.583 220.097C338.614 218.168 342.782 216.537 347.053 215.22C346.869 214.923 346.684 214.606 346.49 214.31C336.661 217.06 327.58 223.267 317.444 225.005C305.145 226.952 292.556 224.361 282.03 217.715C279.147 215.914 276.457 213.82 274.004 211.467C273.881 211.795 273.768 212.122 273.656 212.49C275.999 214.691 278.542 216.669 281.252 218.4C291.417 224.903 303.514 227.712 315.509 226.355C322.236 225.445 328.419 222.878 334.583 220.097ZM343.797 328.734C351.31 331.446 358.986 333.679 366.782 335.421C375.423 337.466 386.111 339.184 393.094 345.022C393.002 344.521 392.899 344 392.797 343.519C385.825 338.213 375.822 336.516 367.498 334.573C359.68 332.815 351.977 330.582 344.432 327.886C337.951 325.503 331.542 322.303 326.802 317.14C324.758 314.955 323.18 312.378 322.162 309.566C321.145 306.754 320.71 303.765 320.884 300.78C321.283 294.748 324.723 289.257 330.672 287.376C337.05 285.331 344.166 287.733 349.49 291.363C355.571 295.525 359.943 301.772 364.621 307.334C369.055 312.641 373.969 317.559 380.45 320.238C382.881 321.267 385.471 321.872 388.108 322.027C388.036 321.731 387.975 321.414 387.893 321.107C382.723 320.78 377.655 318.244 373.641 315.136C367.734 310.575 363.495 304.226 358.632 298.643C354.179 293.531 349.08 288.991 342.507 286.864C336.815 285.024 330.273 285.208 325.461 289.124C321.263 292.56 319.594 298.122 319.881 303.387C320.23 309.146 322.685 314.575 326.781 318.643C331.47 323.377 337.593 326.424 343.787 328.714L343.797 328.734ZM325.276 354.777C324.191 359.715 324.703 364.766 324.406 369.756H325.348C325.706 363.621 324.734 357.21 327.283 351.433C327.891 349.956 328.813 348.628 329.985 347.541C331.157 346.453 332.551 345.633 334.071 345.135C337.475 344.259 341.082 344.663 344.207 346.27C350.82 349.501 354.353 356.495 357.567 362.711C358.816 365.094 360.096 367.558 361.571 369.868H362.676C359.031 364.347 356.707 358.049 352.776 352.691C348.978 347.579 343.265 343.346 336.559 343.795C330.344 344.215 326.515 349.041 325.266 354.777H325.276ZM265.547 369.613H266.755C268.118 367.215 269.093 364.616 269.642 361.914C271.117 355.124 270.666 348.1 270.195 341.229C269.069 325.309 266.315 309.052 269.806 293.234C271.141 286.756 273.668 280.581 277.259 275.024C281.027 269.401 286.474 264.114 293.057 261.967C294.789 261.325 296.633 261.038 298.478 261.124C300.323 261.21 302.132 261.667 303.797 262.468C306.601 264.044 308.82 266.483 310.124 269.421C313.451 276.497 311.393 284.502 308.22 291.23C302.005 304.359 291.92 315.422 286.914 329.184C284.7 335.33 283.774 341.865 284.193 348.383C284.612 354.902 286.368 361.264 289.351 367.077C289.801 367.946 290.272 368.805 290.774 369.654H291.89C289.428 365.614 287.591 361.226 286.443 356.638C284.765 350.109 284.548 343.291 285.808 336.669C287.201 329.512 290.385 322.937 293.999 316.72C297.613 310.504 301.923 304.451 305.599 298.101C309.274 291.752 312.837 284.625 312.765 277.049C312.694 271.2 309.97 265.004 304.79 261.947C298.647 258.307 291.286 260.781 285.911 264.605C275.335 272.141 269.97 284.789 268.004 297.263C265.445 313.541 268.649 329.982 269.417 346.28C269.734 352.783 269.714 359.501 267.431 365.707C266.948 367.074 266.316 368.384 265.547 369.613ZM280.822 232.193C277.534 229.411 273.406 227.812 269.1 227.653C269.028 227.919 268.956 228.205 268.874 228.471C269.906 228.521 270.933 228.648 271.946 228.849C278.232 230.097 284.6 234.984 284.672 241.886C284.764 249.401 278.375 254.984 272.192 258.092C268.567 259.912 264.769 261.323 261.052 262.887C260.991 263.215 260.919 263.532 260.858 263.91C263.213 262.887 265.608 262.008 268.025 261.027C274.423 258.409 280.873 254.892 284.058 248.45C285.465 245.775 285.912 242.699 285.323 239.735C284.734 236.771 283.146 234.098 280.822 232.162V232.193Z" fill="white"/>
<path d="M338.617 192.961C382.989 226.978 429.255 284.748 429.982 318.06C430.668 350.983 412.147 347.711 409.034 346.689C376.068 336.464 336.344 245.106 321.621 207.919C307.001 171.039 327.6 184.546 338.617 192.961Z" fill="#D3766A"/>
<path d="M409.905 259.319L358.386 288.49C358.386 288.49 324.969 229.401 317.024 201.877C309.079 174.352 320.229 174.955 345.087 196.028C369.945 217.101 409.905 259.319 409.905 259.319Z" fill="#D3EAED"/>
<path d="M399.052 251.548C379.231 265.454 359.953 274.615 356.052 276.916C355.868 277.028 355.714 276.721 355.899 276.619C359.799 274.574 380.91 260.904 398.837 251.221C399.093 251.109 399.267 251.415 399.052 251.548Z" fill="#263238"/>
<path d="M361.693 286.475C360.645 286.879 359.62 287.34 358.622 287.856C353.677 278.03 354.578 280.279 349.53 270.474C347.066 265.702 344.595 260.907 342.118 256.088C339.558 251.098 337.265 245.863 334.439 241.057C334.424 241.027 334.398 241.005 334.366 240.994C334.335 240.984 334.3 240.986 334.27 241.001C334.24 241.016 334.218 241.042 334.207 241.074C334.197 241.105 334.199 241.14 334.214 241.17C335.852 245.894 338.074 250.474 340.173 255.034C339.712 254.329 339.272 253.603 338.76 252.918C337.623 251.394 336.507 249.851 335.504 248.255C335.34 248.01 334.931 248.204 335.084 248.46C336.108 249.994 336.907 251.579 337.756 253.194C338.606 254.81 339.538 256.333 340.49 257.887C341.442 259.441 342.435 260.791 343.459 262.212L343.828 262.744C345.179 265.597 346.49 268.459 347.923 271.281C352.878 281.169 357.977 288.95 358.161 288.899C359.463 288.278 360.713 287.553 361.898 286.731C361.98 286.649 361.836 286.465 361.693 286.475Z" fill="#263238"/>
<path d="M208.183 348.304C223.458 346.075 232.109 317.743 249.064 272.642C252.033 264.728 212.606 219.402 207.251 226.692C200.504 235.894 182.68 286.803 180.857 300.647C177.345 327.927 190.409 350.912 208.183 348.304Z" fill="#D3766A"/>
<path d="M231.679 318.274C233.051 314.44 234.505 310.637 235.969 306.833L240.402 295.453C241.938 291.68 243.412 287.887 244.897 284.103C245.654 282.208 246.385 280.31 247.088 278.408C247.814 276.507 248.521 274.594 249.064 272.631C248.214 276.624 247.068 280.547 245.634 284.369C244.293 288.224 242.808 292.028 241.354 295.831C239.9 299.635 238.283 303.387 236.686 307.129C235.089 310.872 233.409 314.604 231.679 318.274Z" fill="#263238"/>
<path d="M193.102 259.38C195.241 243.9 199.613 222.306 205.152 217.776C210.967 213.032 232.088 197.153 238.18 195.046C244.272 192.94 271.464 182.603 276.46 185.486C280.464 187.797 275.723 198.298 262.793 203.339C251.418 207.756 245.562 211.887 242.316 213.287C239.071 214.688 231.054 225.445 233.204 230.189C234.484 232.98 242.634 236.262 247.702 233.972C252.769 231.682 254.018 221.702 259.803 216.948C265.588 212.193 275.805 212.797 276.399 215.547C276.993 218.297 273.614 219.586 268.393 228.952C265.035 234.964 264.81 249.401 257.192 259.769C253.363 264.973 246.719 278.817 246.719 278.817L193.102 259.38Z" fill="#D3766A"/>
<path d="M265.209 212.674C267.078 212.405 268.832 211.61 270.267 210.384C270.844 209.83 271.246 209.119 271.424 208.339C271.49 207.912 271.49 207.477 271.424 207.05C271.409 206.593 271.235 206.156 270.932 205.813C270.83 205.742 270.983 205.619 271.034 205.721C271.173 205.936 271.327 206.141 271.495 206.335C271.614 206.518 271.714 206.713 271.792 206.917C271.945 207.322 272.018 207.753 272.007 208.185C271.966 209.132 271.605 210.036 270.983 210.752C270.236 211.516 269.323 212.097 268.315 212.452C267.306 212.807 266.229 212.925 265.168 212.797C265.148 212.827 265.148 212.694 265.209 212.674Z" fill="#263238"/>
<path d="M205.152 217.776C210.076 210.056 222.68 196.11 235.17 191.324C243.606 188.083 272.662 202.193 271.823 207.735C270.983 213.277 266.018 213.308 258.667 212.438C255.994 212.121 241.835 207.05 239.419 210.015C235.958 214.289 231.556 228.859 231.556 228.859L205.152 217.776Z" fill="#D3766A"/>
<path d="M271.096 205.567C267.502 199.637 259.619 196.478 251.766 193.983C251.643 193.983 251.572 194.126 251.695 194.167C253.691 194.801 266.489 200.67 271.014 205.67C271.065 205.721 271.137 205.629 271.096 205.567Z" fill="#263238"/>
<path d="M205.152 217.776C210.076 210.056 222.68 196.11 235.17 191.325C243.606 188.084 266.601 206.14 265.751 211.692C264.902 217.244 257.786 217.684 249.903 214.954C247.353 214.065 238.815 208.073 236.399 211.038C232.938 215.302 224.492 225.895 224.492 225.895L205.152 217.776Z" fill="#D3766A"/>
<path d="M229.314 219.31C230.113 218.093 230.338 217.664 231.188 216.457C232.037 215.251 232.826 214.064 233.727 212.93C234.427 211.872 235.307 210.944 236.327 210.189C237.382 209.589 238.603 209.345 239.808 209.494C242.542 209.75 245.009 211.478 247.333 212.807C249.923 214.289 255.288 216.692 259.404 216.253C260.535 216.187 261.64 215.887 262.649 215.373C263.414 215.024 264.079 214.49 264.584 213.819C266.366 210.752 264.134 207.357 261.861 204.913C257.612 200.363 251.899 197.071 246.361 194.362C244.999 193.697 243.627 193.073 242.265 192.439C240.723 191.617 239.024 191.132 237.279 191.018C234.423 191.018 229.744 193.901 228.3 194.781C228.188 194.842 228.106 194.668 228.208 194.597C229.969 193.503 234.351 189.944 238.917 190.169C240.6 190.423 242.225 190.97 243.719 191.785C245.326 192.47 246.913 193.216 248.48 193.993C251.537 195.494 254.473 197.227 257.264 199.177C259.885 201.048 262.68 203.267 264.431 205.956C265.247 207.147 265.726 208.536 265.816 209.976C265.906 211.416 265.604 212.853 264.943 214.136C263.683 216.181 260.991 216.733 259.762 216.897C258.556 217.055 257.334 217.055 256.128 216.897C253.442 216.318 250.801 215.549 248.224 214.596C245.726 213.574 243.473 211.917 240.904 211.14C240.297 210.933 239.654 210.848 239.014 210.892C238.374 210.936 237.75 211.107 237.177 211.396C236.127 212.097 235.188 212.952 234.392 213.932C232.674 215.62 231.118 217.465 229.744 219.443C229.406 220.015 229.027 219.841 229.314 219.31Z" fill="#263238"/>
<path d="M201.507 224.524C203.309 220.843 206.35 205.69 209.278 201.007C212.206 196.324 225.557 180.282 231.802 180.977C239.655 181.846 231.485 195.966 227.379 201.784C223.274 207.602 223.98 217.489 223.98 217.489L201.507 224.524Z" fill="#D3766A"/>
<path d="M233.102 192.183C231.638 194.024 230.348 196.069 229.079 198.042C227.772 199.876 226.602 201.804 225.577 203.809C224.718 205.862 224.203 208.041 224.052 210.261C223.949 211.355 223.919 212.439 223.908 213.533C223.898 214.627 224.011 215.935 223.99 217.121C223.985 217.137 223.984 217.153 223.986 217.169C223.989 217.185 223.995 217.2 224.005 217.213C224.014 217.226 224.027 217.237 224.041 217.244C224.055 217.252 224.071 217.256 224.088 217.256C224.104 217.256 224.12 217.252 224.134 217.244C224.148 217.237 224.161 217.226 224.17 217.213C224.18 217.2 224.186 217.185 224.189 217.169C224.191 217.153 224.19 217.137 224.185 217.121C224.324 214.941 224.608 212.772 225.035 210.629C225.416 208.399 226.073 206.225 226.99 204.157C228.823 200.067 231.505 196.386 233.368 192.306C233.409 192.153 233.205 192.051 233.102 192.183Z" fill="#263238"/>
<path d="M224.072 219.187C224.187 221.022 224.57 222.831 225.209 224.555C225.791 226.306 226.495 228.015 227.318 229.667C228.113 231.317 228.998 232.921 229.97 234.473C230.912 236.037 232.017 237.448 233.174 238.941C235.527 241.855 237.404 245.124 238.734 248.624C239.98 252.125 240.603 255.818 240.576 259.534C240.236 255.872 239.374 252.278 238.017 248.859C236.561 245.5 234.657 242.352 232.355 239.503C231.185 238.054 230.104 236.535 229.12 234.953C228.158 233.352 227.303 231.688 226.56 229.974C225.147 226.569 223.837 222.929 224.072 219.187Z" fill="#263238"/>
<path d="M280.085 197.551C280.306 199.953 280.647 202.341 281.109 204.709C281.472 206.864 282.03 208.983 282.777 211.038C284.242 214.729 287.037 218.195 291.347 219.146C293.352 219.53 295.413 219.508 297.409 219.081C299.405 218.654 301.295 217.831 302.967 216.661C306.54 214.31 309.325 210.976 311.874 207.735C313.465 205.731 314.956 203.666 316.348 201.539C317.045 200.455 317.761 199.392 318.396 198.277C319.031 197.163 319.635 196.038 320.351 194.975C320.413 194.883 320.597 194.975 320.546 195.046C319.154 197.562 314.976 205.537 313.584 207.51C311.035 211.109 308.26 214.78 304.564 217.438C301.023 220.129 296.574 221.339 292.156 220.812C290.038 220.482 288.041 219.615 286.353 218.297C284.665 216.978 283.342 215.25 282.511 213.277C281.533 210.921 280.909 208.433 280.658 205.895C280.31 203.114 280.126 200.312 280.003 197.521C280.023 197.521 280.085 197.521 280.085 197.551Z" fill="#263238"/>
<path d="M294.838 212.203C304.237 211.948 315.826 194.453 318.918 181.949C319.123 181.09 308.045 151.98 306.448 145.978C306.1 144.751 271.157 165.119 271.157 165.119C271.157 165.119 278.211 176.703 280.924 187.173C281.139 188.053 285.747 212.449 294.838 212.203Z" fill="#D3766A"/>
<path d="M271.157 165.119C271.157 165.119 278.211 176.703 280.924 187.183C280.924 187.388 281.273 188.911 281.815 191.12C299.292 184.709 307.779 170.671 311.67 161.233C309.284 154.628 307.083 148.422 306.448 145.998C306.1 144.751 271.157 165.119 271.157 165.119Z" fill="#263238"/>
<path d="M251.091 97.2777C248.848 97.656 241.323 115.508 242.419 123.32C243.514 131.132 248.623 146.264 250.957 146.193C253.292 146.121 252.862 96.9812 251.091 97.2777Z" fill="#263238"/>
<path d="M304.862 104.2C312.581 116.398 316.072 156.765 308.957 167.931C298.606 184.116 276.4 191.447 261.298 177.859C246.647 164.669 243.023 111.981 251.49 101.296C263.94 85.5604 293.456 86.1841 304.862 104.2Z" fill="#D3766A"/>
<path d="M275.816 129.976C277.008 130.143 278.207 130.249 279.41 130.293C280.792 130.396 281.887 130.631 283.147 129.925C283.48 129.684 283.725 129.341 283.844 128.947C283.962 128.553 283.947 128.132 283.802 127.747C283.085 126.142 281.427 125.59 279.768 125.396C278.106 125.135 276.406 125.499 274.997 126.418C274.682 126.647 274.441 126.963 274.304 127.327C274.167 127.692 274.141 128.088 274.228 128.468C274.316 128.847 274.513 129.192 274.795 129.461C275.077 129.729 275.433 129.908 275.816 129.976Z" fill="#263238"/>
<path d="M277.434 138.79C277.434 138.677 277.659 138.892 277.669 139.005C277.864 141.735 278.549 144.823 281.099 145.477C281.181 145.477 281.191 145.63 281.099 145.63C278.007 145.518 277.137 141.397 277.434 138.79Z" fill="#263238"/>
<path d="M279.532 135.702C283.883 134.915 285.122 143.657 281.098 144.373C277.075 145.089 275.897 136.357 279.532 135.702Z" fill="#263238"/>
<path d="M261.749 140.58C261.749 140.477 261.554 140.743 261.575 140.845C262.046 143.545 262.127 146.704 259.803 147.952C259.732 147.952 259.803 148.125 259.803 148.105C262.783 147.297 262.619 143.095 261.749 140.58Z" fill="#263238"/>
<path d="M258.923 138.136C254.521 138.433 255.422 147.205 259.496 146.939C263.571 146.674 262.619 137.901 258.923 138.136Z" fill="#263238"/>
<path d="M254.909 133.483C256.048 133.077 257.166 132.613 258.257 132.093C259.537 131.541 260.612 131.234 261.4 130.048C261.584 129.679 261.641 129.26 261.564 128.856C261.486 128.451 261.277 128.083 260.97 127.809C259.588 126.715 257.848 127.001 256.281 127.594C254.682 128.146 253.347 129.272 252.534 130.753C252.374 131.1 252.317 131.486 252.371 131.864C252.426 132.242 252.588 132.596 252.838 132.885C253.089 133.173 253.418 133.383 253.785 133.489C254.153 133.595 254.543 133.593 254.909 133.483Z" fill="#263238"/>
<path d="M283.023 160.916C282.471 161.642 282 162.603 280.976 162.828C279.965 162.954 278.939 162.864 277.966 162.562C277.956 162.556 277.944 162.551 277.932 162.549C277.921 162.546 277.908 162.546 277.896 162.549C277.885 162.551 277.873 162.556 277.863 162.563C277.853 162.569 277.844 162.578 277.838 162.588C277.831 162.598 277.826 162.609 277.824 162.621C277.822 162.633 277.822 162.645 277.824 162.657C277.826 162.669 277.831 162.68 277.838 162.69C277.845 162.7 277.853 162.709 277.863 162.716C278.322 163.201 278.905 163.553 279.549 163.733C280.193 163.913 280.874 163.915 281.518 163.738C282.049 163.516 282.503 163.143 282.821 162.664C283.14 162.186 283.31 161.624 283.31 161.049C283.32 160.845 283.105 160.814 283.023 160.916Z" fill="#263238"/>
<path d="M279.03 153.217C278.494 154.387 277.722 155.433 276.762 156.29C275.801 157.147 274.674 157.796 273.45 158.197C272.387 158.559 271.277 158.769 270.154 158.82C269.939 158.841 269.723 158.841 269.509 158.82C269.308 158.831 269.106 158.831 268.905 158.82C268.755 158.813 268.612 158.757 268.498 158.661C268.383 158.565 268.303 158.434 268.27 158.289C268.26 158.197 268.26 158.104 268.27 158.013V157.777C267.912 155.733 267.666 152.502 267.666 152.502C266.959 152.992 263.315 155.283 263.223 154.189C262.485 145.099 261.656 134.997 262.833 125.805C262.845 125.747 262.877 125.695 262.922 125.658C262.968 125.62 263.025 125.6 263.084 125.6C263.143 125.6 263.201 125.62 263.246 125.658C263.292 125.695 263.323 125.747 263.335 125.805C264.359 134.516 263.919 143.35 264.85 152.103C266.141 151.265 267.544 150.614 269.017 150.17C269.324 150.17 269.386 156.305 269.621 157.276C269.614 157.307 269.614 157.338 269.621 157.368C273.184 157.368 275.682 155.886 278.744 153.054C278.918 152.849 279.153 152.982 279.03 153.217Z" fill="#263238"/>
<path d="M309.601 138.851C302.557 140.436 297.991 132.982 294.06 122.236C291.756 115.948 291.746 102.809 291.746 102.809C291.746 102.809 274.669 113.77 264.216 114.241C253.762 114.711 243.739 107.012 243.125 98.9036C242.603 91.8997 253.118 81.3069 268.454 78.5871C279.153 76.6955 298.483 82.8815 308.055 93.3618C308.055 93.3618 322.46 98.014 321.815 108.494C321.17 118.975 317.597 137.052 309.601 138.851Z" fill="#263238"/>
<path d="M308.987 138.105C299.865 141.346 293.006 127.881 291.787 120.57C290.518 112.953 292.422 104.824 292.75 97.186H292.688C290.723 106.664 288.818 118.576 293.18 127.625C295.924 133.33 301.626 142.604 309.172 138.606C309.428 138.463 309.274 138.003 308.987 138.105Z" fill="#263238"/>
<path d="M323.505 105.1C321.345 98.9651 313.328 93.7403 307.124 93.0757C307.062 93.0757 307.042 93.1677 307.124 93.1779C314.68 94.8343 324.14 102.022 322.983 110.396C322.051 117.083 320.085 125.989 316.369 131.694C316.277 131.838 316.492 131.97 316.594 131.838C319.604 127.921 320.515 123.208 321.713 118.545C322.706 114.425 324.959 109.343 323.505 105.1Z" fill="#263238"/>
<path d="M309.55 94.098C299.435 83.0553 279.235 71.6855 264.083 77.5136C264.083 77.5136 264.083 77.6056 264.083 77.5851C280.361 72.8307 297.254 84.9469 309.038 94.6808C309.407 94.9671 309.837 94.4048 309.55 94.098Z" fill="#263238"/>
<path d="M305.076 139.884C305.076 139.884 310.554 125.13 317.045 126.755C323.536 128.381 321.693 148.227 315.683 152.389C314.95 152.982 314.104 153.421 313.197 153.679C312.289 153.937 311.339 154.01 310.403 153.893C309.467 153.775 308.564 153.47 307.749 152.996C306.934 152.521 306.223 151.887 305.66 151.131L305.076 139.884Z" fill="#D3766A"/>
<path d="M316.41 132.4C316.523 132.4 316.574 132.502 316.492 132.574C312.325 135.641 310.994 140.641 310.451 145.569C311.383 143.524 313.031 142.042 315.775 143.085C315.919 143.136 315.857 143.361 315.714 143.361C314.825 143.315 313.943 143.546 313.19 144.02C312.437 144.494 311.849 145.188 311.506 146.009C310.952 147.387 310.543 148.82 310.288 150.283C310.175 150.763 309.366 150.733 309.397 150.211C309.392 150.174 309.392 150.136 309.397 150.099C307.728 144.209 310.195 134.69 316.41 132.4Z" fill="#263238"/>
<path d="M286.351 205.353L307.851 269.37C308.691 271.231 307.851 272.856 305.967 273L272.222 275.545C271.192 275.551 270.182 275.266 269.307 274.724C268.432 274.181 267.729 273.403 267.277 272.478L245.777 208.461C244.938 206.59 245.777 204.964 247.661 204.821L281.385 202.234C282.424 202.232 283.441 202.523 284.32 203.075C285.199 203.628 285.903 204.417 286.351 205.353Z" fill="#37474F"/>
<path d="M282.337 205.619L303.837 269.635C304.677 271.496 303.837 273.132 301.954 273.275L268.219 275.862C267.184 275.861 266.171 275.567 265.296 275.016C264.421 274.464 263.72 273.676 263.274 272.744L241.774 208.727C240.924 206.866 241.774 205.24 243.658 205.097L277.433 202.51C278.46 202.516 279.465 202.81 280.333 203.36C281.2 203.91 281.895 204.693 282.337 205.619Z" fill="#455A64"/>
<path d="M273.338 209.31C273.393 209.875 273.616 210.412 273.976 210.851C274.337 211.291 274.82 211.614 275.365 211.779C275.91 211.944 276.491 211.944 277.036 211.78C277.58 211.615 278.064 211.292 278.425 210.853C278.786 210.413 279.008 209.877 279.064 209.311C279.12 208.746 279.007 208.176 278.738 207.675C278.47 207.174 278.059 206.763 277.557 206.496C277.055 206.228 276.484 206.115 275.918 206.171C275.159 206.246 274.461 206.618 273.977 207.207C273.494 207.796 273.264 208.552 273.338 209.31Z" fill="#263238"/>
<path d="M415.997 347.118C401.315 349.255 382.784 338.018 334.767 303.827C328.112 299.062 348.937 243.266 356.267 247.939C365.533 253.838 400.209 278.766 402.513 280.913C421.996 299.062 425.979 345.585 415.997 347.118Z" fill="#D3766A"/>
<path d="M373.498 264.574C373.498 264.574 359.717 245.72 349.407 238.041C335.596 227.817 319.44 224.586 312.55 223.655C298.217 221.712 262.383 226.896 262.025 237.489C261.738 247.08 298.186 239.923 298.186 239.923C298.186 239.923 259.824 241.088 261.605 252.693C263.387 264.298 305.24 253.603 305.24 253.603C305.24 253.603 265.844 255.648 269.581 267.366C272.406 276.19 310.851 268.623 310.851 268.623C310.851 268.623 277.003 270.668 279.512 279.87C282.296 290.034 318.212 285.279 318.212 285.279C328.624 307.569 342.65 313.98 353.195 317.344C355.745 318.152 373.498 264.574 373.498 264.574Z" fill="#D3766A"/>
<path d="M311.475 238.675C306.96 238.675 302.394 238.593 297.899 238.962C293.405 239.33 288.91 239.872 284.467 240.659C273.563 242.602 267.062 245.526 267.471 245.383C277.464 242.162 293.538 240.567 298.042 240.188C302.547 239.81 307.001 239.217 311.495 238.839C311.608 238.829 311.577 238.675 311.475 238.675Z" fill="#263238"/>
<path d="M313.123 254.871C307.359 255.086 301.636 255.086 295.882 255.556C290.128 256.026 284.763 256.977 279.081 257.836C278.641 257.898 278.825 258.112 279.266 258.061C284.968 257.427 290.302 257.284 296.015 256.722C301.728 256.159 307.431 255.362 313.144 255.004C313.266 255.004 313.266 254.871 313.123 254.871Z" fill="#263238"/>
<path d="M317.045 268.521C308.22 268.398 299.384 269.902 290.753 271.589C290.323 271.67 290.589 271.926 291.03 271.865C299.753 270.679 306.581 269.687 317.045 268.797C317.198 268.807 317.229 268.521 317.045 268.521Z" fill="#263238"/>
<path d="M389.285 271.077C393.094 273.582 396.759 276.292 400.312 279.165C402.094 280.587 403.802 282.099 405.431 283.694C407.117 285.28 408.599 287.07 409.843 289.021C412.207 292.948 414.192 297.091 415.771 301.393C417.41 305.659 418.571 310.093 419.232 314.614C418.741 312.396 418.126 310.208 417.389 308.06C416.682 305.902 415.904 303.776 415.034 301.68C413.37 297.476 411.342 293.425 408.973 289.574C407.805 287.662 406.394 285.909 404.775 284.359C403.189 282.754 401.479 281.292 399.779 279.758C398.08 278.224 396.319 276.813 394.558 275.372C392.797 273.93 391.077 272.478 389.285 271.077Z" fill="#263238"/>
<path d="M243.924 70.6735C243.924 70.6735 239.717 104.313 232.796 111.889C224.492 120.969 218.462 119.64 215.114 124.322C211.756 119.629 205.736 120.969 197.423 111.879C190.512 104.313 186.314 70.6735 186.314 70.6735C204.538 61.8394 215.125 51.9316 215.125 51.9316C215.442 52.2486 225.977 61.9723 243.924 70.6735Z" fill="#979782"/>
<path opacity="0.2" d="M215.114 51.9419V124.322C211.756 119.629 205.736 120.969 197.423 111.879C190.512 104.313 186.314 70.6735 186.314 70.6735C204.538 61.8394 215.125 51.9316 215.125 51.9316L215.114 51.9419Z" fill="black"/>
<path opacity="0.1" d="M243.924 70.6735C243.924 70.6735 239.716 104.313 232.795 111.889C224.492 120.969 218.462 119.64 215.114 124.323V51.9419C215.441 52.2486 225.976 61.9723 243.924 70.6735Z" fill="black"/>
<path d="M239.45 73.383C239.45 73.383 235.897 101.808 230.051 108.198C223.038 115.887 217.94 114.752 215.114 118.709C212.278 114.752 207.19 115.887 200.166 108.198C194.32 101.808 190.778 73.383 190.778 73.383C206.135 65.919 215.114 57.5552 215.114 57.5552C215.114 57.5552 224.052 65.9394 239.45 73.383Z" fill="#979782"/>
<path opacity="0.1" d="M215.114 57.5654V118.709C212.288 114.752 207.19 115.877 200.176 108.198C194.33 101.797 190.788 73.3727 190.788 73.3727C206.145 65.9087 215.114 57.5449 215.114 57.5449V57.5654Z" fill="black"/>
<path d="M226.017 82.7178H204.21V102.472H226.017V82.7178Z" fill="white"/>
<path d="M223.837 88.8223H221.615V79.9984C221.615 78.2765 220.93 76.625 219.711 75.4074C218.492 74.1898 216.838 73.5057 215.114 73.5057C213.39 73.5057 211.736 74.1898 210.517 75.4074C209.298 76.625 208.613 78.2765 208.613 79.9984V88.8223H206.391V79.9984C206.309 78.807 206.473 77.6114 206.874 76.486C207.274 75.3607 207.902 74.3295 208.718 73.4566C209.534 72.5837 210.521 71.8877 211.618 71.4118C212.715 70.936 213.898 70.6904 215.094 70.6904C216.289 70.6904 217.472 70.936 218.569 71.4118C219.666 71.8877 220.653 72.5837 221.469 73.4566C222.285 74.3295 222.913 75.3607 223.313 76.486C223.714 77.6114 223.878 78.807 223.796 79.9984L223.837 88.8223Z" fill="white"/>
<path d="M215.8 92.9325L216.506 96.2658H213.517L214.223 92.9325C213.947 92.7613 213.734 92.505 213.617 92.2023C213.5 91.8995 213.485 91.567 213.574 91.2549C213.663 90.9428 213.852 90.6682 214.111 90.4727C214.37 90.2772 214.686 90.1714 215.011 90.1714C215.336 90.1714 215.652 90.2772 215.912 90.4727C216.171 90.6682 216.36 90.9428 216.449 91.2549C216.538 91.567 216.523 91.8995 216.406 92.2023C216.289 92.505 216.076 92.7613 215.8 92.9325Z" fill="#37474F"/>
<path d="M215.493 203.727H211.131V202.95H215.114V203.216H215.493V203.727ZM207.036 203.727H202.941V202.95H207.036V203.727ZM198.845 203.727H194.75V202.95H198.845V203.727ZM190.655 203.727H186.56V202.95H190.655V203.727ZM215.493 199.136H214.725V195.046H215.493V199.136ZM215.493 190.957H214.725V186.867H215.493V190.957ZM215.493 182.777H214.725V178.687H215.493V182.777ZM215.493 174.597H214.725V170.507H215.493V174.597ZM215.493 166.417H214.725V162.327H215.493V166.417ZM215.493 158.238H214.725V154.148H215.493V158.238ZM215.493 150.058H214.725V145.968H215.493V150.058ZM215.493 141.878H214.725V137.788H215.493V141.878ZM215.493 133.698H214.725V129.608H215.493V133.698Z" fill="#979782"/>
<path d="M216.844 128.77C216.844 128.428 216.743 128.094 216.553 127.81C216.363 127.526 216.092 127.304 215.776 127.174C215.46 127.043 215.112 127.009 214.776 127.075C214.441 127.142 214.133 127.306 213.891 127.548C213.649 127.79 213.484 128.098 213.417 128.433C213.35 128.768 213.385 129.115 213.516 129.431C213.646 129.747 213.868 130.017 214.153 130.207C214.437 130.397 214.772 130.498 215.114 130.498C215.573 130.498 216.013 130.316 216.338 129.992C216.662 129.668 216.844 129.228 216.844 128.77Z" fill="#979782"/>
<path d="M66.0671 83.1474H13.5352V15.7974H52.5425L66.0671 28.6396V83.1474Z" fill="#EBEBEB"/>
<path d="M52.5425 15.7974L66.0671 28.6396H52.5425V15.7974Z" fill="#DBDBDB"/>
<path d="M18.6646 28.8237L47.874 28.8237V27.0958L18.6646 27.0958V28.8237Z" fill="#DBDBDB"/>
<path d="M18.6646 33.1895L47.874 33.1895V31.4615L18.6646 31.4615V33.1895Z" fill="#DBDBDB"/>
<path d="M18.6646 37.5659L47.874 37.5659V35.8379H18.6646V37.5659Z" fill="#DBDBDB"/>
<path d="M18.6645 41.9316L61.46 41.9316V40.2037L18.6645 40.2037V41.9316Z" fill="#DBDBDB"/>
<path d="M18.6645 46.2979L61.46 46.2979V44.5699L18.6645 44.5699V46.2979Z" fill="#DBDBDB"/>
<path d="M18.6645 50.6636L61.46 50.6636V48.9356L18.6645 48.9356V50.6636Z" fill="#DBDBDB"/>
<path d="M18.6645 55.0293L61.46 55.0293V53.3013L18.6645 53.3013V55.0293Z" fill="#DBDBDB"/>
<path d="M18.6645 59.3853L61.46 59.3853V57.6573L18.6645 57.6573V59.3853Z" fill="#DBDBDB"/>
<path d="M18.6645 63.751L61.46 63.751V62.023L18.6645 62.023V63.751Z" fill="#DBDBDB"/>
<path d="M18.6645 68.1172H61.46V66.3892H18.6645V68.1172Z" fill="#DBDBDB"/>
<path d="M18.6645 72.4829H61.46V70.7549H18.6645V72.4829Z" fill="#DBDBDB"/>
<path d="M18.6645 76.8491H61.46V75.1212H18.6645V76.8491Z" fill="#DBDBDB"/>
<path d="M69.6164 89.2777C74.3135 87.3222 76.5339 81.9341 74.5758 77.2432C72.6177 72.5522 67.2225 70.3347 62.5254 72.2902C57.8283 74.2458 55.6079 79.6338 57.566 84.3248C59.5241 89.0158 64.9192 91.2333 69.6164 89.2777Z" fill="#263238"/>
<path d="M70.6334 78.4644H61.501V86.7464H70.6334V78.4644Z" fill="white"/>
<path d="M69.7222 81.0103H68.7905V77.3192C68.7905 76.5978 68.5036 75.9061 67.9928 75.396C67.4821 74.8859 66.7894 74.5994 66.0672 74.5994C65.3449 74.5994 64.6522 74.8859 64.1415 75.396C63.6307 75.9061 63.3438 76.5978 63.3438 77.3192V81.0103H62.4326V77.3192C62.4326 76.3511 62.8177 75.4226 63.5031 74.7381C64.1886 74.0535 65.1183 73.6689 66.0876 73.6689C67.057 73.6689 67.9867 74.0535 68.6721 74.7381C69.3576 75.4226 69.7426 76.3511 69.7426 77.3192L69.7222 81.0103Z" fill="white"/>
<path d="M66.4556 82.6975L66.8344 84.5175H65.2168L65.5956 82.6975C65.447 82.6043 65.3327 82.4654 65.2701 82.3016C65.2074 82.1379 65.1998 81.9583 65.2484 81.7899C65.2969 81.6215 65.399 81.4734 65.5392 81.368C65.6794 81.2626 65.8501 81.2056 66.0256 81.2056C66.2011 81.2056 66.3718 81.2626 66.512 81.368C66.6522 81.4734 66.7543 81.6215 66.8029 81.7899C66.8514 81.9583 66.8438 82.1379 66.7811 82.3016C66.7185 82.4654 66.6042 82.6043 66.4556 82.6975Z" fill="#263238"/>
<path d="M102.064 118.361H101.337V114.271H102.105L102.064 118.361ZM102.064 110.182H101.337V106.092H102.105L102.064 110.182ZM102.064 102.002H101.337V97.9119H102.105L102.064 102.002ZM102.064 93.822H101.337V89.7322H102.105L102.064 93.822ZM102.064 85.6423H101.337V81.5524H102.105L102.064 85.6423ZM102.064 77.4625H101.337V73.3726H102.105L102.064 77.4625ZM102.064 69.2828H101.337V65.1929H102.105L102.064 69.2828ZM102.064 61.103H101.337V57.0131H102.105L102.064 61.103ZM98.2656 56.7371H94.1703V55.9702H98.2656V56.7371ZM90.0751 56.7371H85.9798V55.9702H90.0751V56.7371ZM81.8846 56.7371H77.7893V55.9702H81.8846V56.7371ZM73.6941 56.7371H71.9229V55.9702H73.6941V56.7371Z" fill="#979782"/>
<path d="M71.9641 54.6919C71.6177 54.69 71.2786 54.7913 70.9902 54.9829C70.7018 55.1746 70.4773 55.4478 70.3452 55.7676C70.2132 56.0874 70.1798 56.4393 70.2491 56.7783C70.3185 57.1172 70.4876 57.4277 70.7347 57.6701C70.9818 57.9126 71.2958 58.0758 71.6363 58.139C71.9769 58.2022 72.3286 58.1625 72.6464 58.025C72.9643 57.8874 73.2338 57.6583 73.4204 57.3669C73.6071 57.0755 73.7025 56.7351 73.6944 56.3892C73.6837 55.9371 73.497 55.5069 73.174 55.19C72.8509 54.8731 72.4169 54.6945 71.9641 54.6919Z" fill="#979782"/>
<path d="M131.498 345.799H129.093V345.074H131.498V345.799ZM124.997 345.799H120.902V345.074H124.997V345.799ZM116.807 345.799H112.711V345.074H116.807V345.799ZM108.616 345.799H104.521V345.074H108.616V345.799ZM102.064 344.164H101.337V340.074H102.105L102.064 344.164ZM102.064 335.984H101.337V331.894H102.105L102.064 335.984ZM102.064 327.804H101.337V323.714H102.105L102.064 327.804ZM102.064 319.624H101.337V315.534H102.105L102.064 319.624ZM102.064 311.445H101.337V307.355H102.105L102.064 311.445ZM102.064 303.265H101.337V299.175H102.105L102.064 303.265ZM102.064 295.085H101.337V290.995H102.105L102.064 295.085Z" fill="#979782"/>
<path d="M131.407 347.149C132.363 347.149 133.137 346.375 133.137 345.421C133.137 344.467 132.363 343.693 131.407 343.693C130.451 343.693 129.677 344.467 129.677 345.421C129.677 346.375 130.451 347.149 131.407 347.149Z" fill="#979782"/>
<path d="M202.879 334.205H137.458V373.631H202.879V334.205Z" fill="#455A64"/>
<path d="M160.882 339.164H142.597V362.517H160.882V339.164Z" fill="white"/>
<path d="M151.74 352.834C154.132 352.834 156.071 350.898 156.071 348.509C156.071 346.12 154.132 344.184 151.74 344.184C149.348 344.184 147.409 346.12 147.409 348.509C147.409 350.898 149.348 352.834 151.74 352.834Z" fill="#455A64"/>
<path d="M160.882 362.517H142.597C142.597 362.517 143.098 358.161 143.989 356.863C144.88 355.564 147.235 354.102 151.739 354.102C156.244 354.102 158.599 355.564 159.49 356.863C160.38 358.161 160.882 362.517 160.882 362.517Z" fill="#455A64"/>
<path d="M195.712 339.164H165.612V340.299H195.712V339.164Z" fill="white"/>
<path d="M195.712 350.268H165.612V351.403H195.712V350.268Z" fill="white"/>
<path d="M195.712 353.54H165.612V354.675H195.712V353.54Z" fill="white"/>
<path d="M195.712 356.801H165.612V357.936H195.712V356.801Z" fill="white"/>
<path d="M195.712 360.073H165.612V361.208H195.712V360.073Z" fill="white"/>
<path d="M195.712 363.334H165.612V364.469H195.712V363.334Z" fill="white"/>
<path d="M189.989 342.436H165.612V343.57H189.989V342.436Z" fill="white"/>
<path d="M206.424 382.135C211.122 380.179 213.342 374.791 211.384 370.1C209.426 365.409 204.031 363.192 199.334 365.147C194.636 367.103 192.416 372.491 194.374 377.182C196.332 381.873 201.727 384.09 206.424 382.135Z" fill="#263238"/>
<path d="M207.445 371.31H198.313V379.592H207.445V371.31Z" fill="white"/>
<path d="M206.535 373.856H205.603V370.165C205.603 369.444 205.316 368.752 204.805 368.242C204.295 367.732 203.602 367.445 202.88 367.445C202.157 367.445 201.465 367.732 200.954 368.242C200.443 368.752 200.156 369.444 200.156 370.165V373.856H199.225V370.165C199.225 369.197 199.61 368.268 200.295 367.584C200.981 366.899 201.91 366.515 202.88 366.515C203.849 366.515 204.779 366.899 205.464 367.584C206.15 368.268 206.535 369.197 206.535 370.165V373.856Z" fill="white"/>
<path d="M203.269 375.543L203.647 377.363H202.02L202.409 375.543C202.289 375.468 202.192 375.364 202.125 375.24C202.059 375.116 202.026 374.977 202.03 374.837C202.034 374.696 202.074 374.559 202.147 374.439C202.221 374.319 202.324 374.22 202.447 374.152C202.57 374.084 202.709 374.049 202.849 374.051C202.99 374.053 203.128 374.092 203.249 374.163C203.37 374.234 203.471 374.336 203.541 374.458C203.61 374.58 203.647 374.718 203.647 374.858C203.648 374.995 203.613 375.13 203.547 375.249C203.48 375.369 203.385 375.47 203.269 375.543Z" fill="#263238"/>
<path d="M429.961 409.489L376.221 409.734L322.471 409.826L214.98 410L107.49 409.826L53.7502 409.734L0 409.489L53.7502 409.233L107.49 409.151L214.98 408.978L322.471 409.151L376.221 409.243L429.961 409.489Z" fill="#263238"/>
</svg>
