<svg width="231" height="166" viewBox="0 0 231 166" fill="none" xmlns="http://www.w3.org/2000/svg">
<g filter="url(#filter0_d_1723_2266)">
<rect width="222" height="158" transform="translate(4.05664)" fill="white"/>
<path d="M89.8435 73.0908H87.3311V85.803H89.8435V73.0908Z" fill="#2A3362"/>
<path d="M99.5675 81.2929C99.5675 83.0474 98.4197 83.8356 96.8914 83.8356C95.363 83.8356 94.3415 83.0474 94.3415 81.3819V76.8516H91.8291V81.9554C91.8291 84.4966 93.4495 85.9827 96.1443 85.9827C97.838 85.9827 98.7846 85.3693 99.4194 84.6761H99.566L99.7843 85.8048H102.096V76.8516H99.5675V81.2929Z" fill="#2A3362"/>
<path d="M124.212 84.0317C122.374 84.0317 121.337 83.2081 121.173 82.0089H129.147C129.183 81.7595 129.202 81.5078 129.201 81.2559C129.184 78.0353 126.706 76.6719 124.055 76.6719C120.978 76.6719 118.665 78.4815 118.665 81.4C118.665 84.1743 120.887 85.9825 124.219 85.9825C127.005 85.9825 128.861 84.7663 129.245 82.903H126.762C126.452 83.6376 125.56 84.0317 124.212 84.0317ZM124.056 78.6242C125.66 78.6242 126.587 79.322 126.734 80.3111H121.227C121.463 79.3634 122.392 78.6242 124.049 78.6242H124.056Z" fill="#2A3362"/>
<path d="M133.47 78.1365H133.314L133.077 76.8467H130.794V85.8045H133.306V81.9552C133.306 80.2176 134.325 79.2514 136.22 79.2514C136.564 79.2467 136.908 79.2765 137.246 79.3403V76.8513H136.895C135.22 76.8513 134.18 77.1917 133.47 78.1365Z" fill="#2A3362"/>
<path d="M149.582 83.0106H149.437L147.288 77.4067H144.702L142.59 82.9937H142.426L140.424 76.8516H137.929L141.006 85.8048H143.738L145.923 80.0921H146.068L148.217 85.8048H150.966L154.043 76.8516H151.548L149.582 83.0106Z" fill="#2A3362"/>
<path d="M164.044 83.1973V80.2007C164.044 77.7653 161.949 76.6733 159.345 76.6733C156.578 76.6733 154.849 77.9631 154.612 79.8939H157.124C157.307 79.052 158.035 78.5873 159.345 78.5873C160.655 78.5873 161.528 79.0704 161.528 80.055V80.2835L157.431 80.5902C155.538 80.7344 154.156 81.5579 154.156 83.3124C154.156 85.1205 155.741 85.9793 158.071 85.9793C159.951 85.9793 161.098 85.464 161.8 84.6865H161.924C162.319 85.5606 163.119 85.8014 163.989 85.8014H165.045V83.9779H164.808C164.279 83.9779 164.044 83.728 164.044 83.1973ZM161.53 82.248C161.53 83.6636 159.814 84.1282 158.344 84.1282C157.342 84.1282 156.687 83.8783 156.687 83.1973C156.687 82.5839 157.252 82.2848 158.091 82.2128L161.531 81.9628L161.53 82.248Z" fill="#2A3362"/>
<path d="M173.332 76.8516L170.4 83.3342H170.236L167.268 76.8516H164.555L168.797 85.8048H171.802L176.025 76.8516H173.332Z" fill="#2A3362"/>
<path d="M184.056 82.903C183.745 83.6376 182.854 84.0317 181.507 84.0317C179.668 84.0317 178.631 83.2081 178.467 82.0089H186.441C186.478 81.7595 186.496 81.5078 186.496 81.2559C186.478 78.0353 184 76.6719 181.349 76.6719C178.272 76.6719 175.961 78.4815 175.961 81.4C175.961 84.1743 178.182 85.9825 181.513 85.9825C184.3 85.9825 186.156 84.7663 186.539 82.903H184.056ZM181.343 78.6242C182.946 78.6242 183.874 79.322 184.021 80.3111H178.515C178.754 79.3634 179.68 78.6242 181.337 78.6242H181.343Z" fill="#2A3362"/>
<path d="M83.2481 76.1921C83.2481 75.4039 83.8127 75.0649 84.541 75.0649C84.8797 75.068 85.2165 75.116 85.5422 75.2076L85.9617 73.4163C85.3536 73.2048 84.7135 73.0959 84.0684 73.0942C82.211 73.0942 80.7185 74.0619 80.7185 76.0664V76.8516H78.5508V78.8131H80.7185V85.8048H83.2481V78.8116H86.0802V76.8516H83.2481V76.1921Z" fill="#2A3362"/>
<path d="M107.639 74.3271H105.3L105.169 76.8515H103.191V78.813H105.122V83.2267C105.122 84.7297 105.902 85.9872 108.241 85.9872C108.848 85.9872 109.452 85.9214 110.044 85.7909V83.9061C109.703 83.9813 109.355 84.0234 109.005 84.0319C107.75 84.0319 107.641 83.3341 107.641 82.7958V78.8084H110.136V76.8515H107.639V74.3271Z" fill="#2A3362"/>
<path d="M115.53 74.3271H113.198L113.067 76.8515H111.085V78.813H113.016V83.2267C113.016 84.7297 113.795 85.9872 116.135 85.9872C116.74 85.9854 117.343 85.918 117.933 85.7863V83.9061C117.592 83.9813 117.244 84.0234 116.894 84.0319C115.639 84.0319 115.53 83.3341 115.53 82.7958V78.8084H118.033V76.8515H115.53V74.3271Z" fill="#2A3362"/>
<path d="M43.5781 72.7523C43.5781 71.3153 44.0054 70.0884 44.9022 69.2065L46.4617 70.7402C44.7259 72.4409 46.2418 77.7288 51.184 82.5935C56.1262 87.4581 61.5066 88.9472 63.2408 87.2434L64.8003 88.777C61.8746 91.6541 55.2107 89.6128 49.6323 84.1256C45.763 80.3191 43.5781 76.0005 43.5781 72.7523Z" fill="#009A46"/>
<path d="M53.4129 90.0986C51.9516 90.0986 50.704 89.6784 49.8057 88.7966L51.3652 87.263C53.0979 88.9668 58.4751 87.4762 63.422 82.6131C68.3689 77.75 69.8816 72.4621 68.149 70.7582L69.7085 69.2246C72.6358 72.1017 70.5584 78.6548 64.9784 84.1405C61.1076 87.9516 56.716 90.0986 53.4129 90.0986Z" fill="#FF5805"/>
<path d="M65.4942 81.946C64.5475 79.2652 62.6137 76.4004 60.0483 73.8792C54.4698 68.3919 47.8059 66.3491 44.8802 69.2277C44.6728 69.4332 44.8521 69.9408 45.2826 70.3641C45.713 70.7874 46.2292 70.9622 46.4366 70.7583C48.1708 69.0544 53.5481 70.5451 58.4934 75.4097C60.8327 77.7101 62.5763 80.2789 63.4169 82.656C64.153 84.7402 64.0812 86.4211 63.2235 87.2646C63.0145 87.4685 63.1954 87.9777 63.6243 88.3994C64.0532 88.8212 64.5709 88.9991 64.7799 88.7936C66.2786 87.3198 66.5328 84.8844 65.4942 81.946Z" fill="#F5AFCB"/>
<path d="M69.7056 69.2278C68.2037 67.7509 65.7303 67.5009 62.7391 68.5238C60.0146 69.4532 57.0998 71.3564 54.5359 73.8777C48.9575 79.3634 46.8802 85.9166 49.8059 88.7952C50.0148 88.9991 50.531 88.8228 50.9615 88.401C51.3919 87.9793 51.5713 87.4701 51.3623 87.2646C49.625 85.5608 51.1455 80.2729 56.0924 75.4082C58.4317 73.1078 61.0439 71.3932 63.4612 70.5666C65.5806 69.8443 67.2899 69.9133 68.1492 70.7568C68.3566 70.9608 68.8743 70.7844 69.3032 70.3611C69.7321 69.9378 69.913 69.4317 69.7056 69.2278Z" fill="#FF9B00"/>
</g>
<defs>
<filter id="filter0_d_1723_2266" x="0.0566406" y="0" width="230" height="166" filterUnits="userSpaceOnUse" color-interpolation-filters="sRGB">
<feFlood flood-opacity="0" result="BackgroundImageFix"/>
<feColorMatrix in="SourceAlpha" type="matrix" values="0 0 0 0 0 0 0 0 0 0 0 0 0 0 0 0 0 0 127 0" result="hardAlpha"/>
<feOffset dy="4"/>
<feGaussianBlur stdDeviation="2"/>
<feComposite in2="hardAlpha" operator="out"/>
<feColorMatrix type="matrix" values="0 0 0 0 0.572549 0 0 0 0 0.790196 0 0 0 0 0.819608 0 0 0 1 0"/>
<feBlend mode="normal" in2="BackgroundImageFix" result="effect1_dropShadow_1723_2266"/>
<feBlend mode="normal" in="SourceGraphic" in2="effect1_dropShadow_1723_2266" result="shape"/>
</filter>
</defs>
</svg>
