<svg width="231" height="166" viewBox="0 0 231 166" fill="none" xmlns="http://www.w3.org/2000/svg">
<g filter="url(#filter0_d_1723_2266)">
<rect width="222" height="158" transform="translate(4.05664)" fill="white"/>
<path d="M89.8435 73.0908H87.3311V85.803H89.8435V73.0908Z" fill="#2A3362"/>
<path d="M99.5673 81.2929C99.5673 83.0474 98.4195 83.8356 96.8911 83.8356C95.3628 83.8356 94.3413 83.0474 94.3413 81.3819V76.8516H91.8289V81.9554C91.8289 84.4966 93.4492 85.9827 96.1441 85.9827C97.8378 85.9827 98.7844 85.3693 99.4191 84.6761H99.5657L99.7841 85.8048H102.095V76.8516H99.5673V81.2929Z" fill="#2A3362"/>
<path d="M124.213 84.0317C122.374 84.0317 121.337 83.2081 121.173 82.0089H129.147C129.184 81.7595 129.202 81.5078 129.202 81.2559C129.184 78.0353 126.706 76.6719 124.055 76.6719C120.978 76.6719 118.665 78.4815 118.665 81.4C118.665 84.1743 120.888 85.9825 124.219 85.9825C127.006 85.9825 128.862 84.7663 129.245 82.903H126.762C126.452 83.6376 125.56 84.0317 124.213 84.0317ZM124.057 78.6242C125.66 78.6242 126.588 79.322 126.734 80.3111H121.228C121.463 79.3634 122.393 78.6242 124.049 78.6242H124.057Z" fill="#2A3362"/>
<path d="M133.47 78.1365H133.314L133.077 76.8467H130.794V85.8045H133.306V81.9552C133.306 80.2176 134.325 79.2514 136.22 79.2514C136.564 79.2467 136.908 79.2765 137.246 79.3403V76.8513H136.895C135.22 76.8513 134.18 77.1917 133.47 78.1365Z" fill="#2A3362"/>
<path d="M149.582 83.0106H149.437L147.288 77.4067H144.702L142.59 82.9937H142.426L140.424 76.8516H137.929L141.006 85.8048H143.738L145.923 80.0921H146.068L148.217 85.8048H150.966L154.043 76.8516H151.548L149.582 83.0106Z" fill="#2A3362"/>
<path d="M164.043 83.1973V80.2007C164.043 77.7653 161.949 76.6733 159.344 76.6733C156.578 76.6733 154.848 77.9631 154.611 79.8939H157.124C157.306 79.052 158.034 78.5873 159.344 78.5873C160.654 78.5873 161.528 79.0704 161.528 80.055V80.2835L157.431 80.5902C155.538 80.7344 154.156 81.5579 154.156 83.3124C154.156 85.1205 155.74 85.9793 158.07 85.9793C159.951 85.9793 161.097 85.464 161.799 84.6865H161.924C162.318 85.5606 163.118 85.8014 163.989 85.8014H165.044V83.9779H164.807C164.279 83.9779 164.043 83.728 164.043 83.1973ZM161.529 82.248C161.529 83.6636 159.814 84.1282 158.343 84.1282C157.342 84.1282 156.687 83.8783 156.687 83.1973C156.687 82.5839 157.251 82.2848 158.09 82.2128L161.531 81.9628L161.529 82.248Z" fill="#2A3362"/>
<path d="M173.332 76.8516L170.4 83.3342H170.236L167.269 76.8516H164.555L168.797 85.8048H171.802L176.025 76.8516H173.332Z" fill="#2A3362"/>
<path d="M184.057 82.903C183.745 83.6376 182.854 84.0317 181.507 84.0317C179.668 84.0317 178.631 83.2081 178.467 82.0089H186.441C186.478 81.7595 186.496 81.5078 186.496 81.2559C186.479 78.0353 184.001 76.6719 181.349 76.6719C178.272 76.6719 175.961 78.4815 175.961 81.4C175.961 84.1743 178.182 85.9825 181.513 85.9825C184.3 85.9825 186.156 84.7663 186.54 82.903H184.057ZM181.343 78.6242C182.946 78.6242 183.874 79.322 184.021 80.3111H178.516C178.754 79.3634 179.681 78.6242 181.337 78.6242H181.343Z" fill="#2A3362"/>
<path d="M83.2484 76.1921C83.2484 75.4039 83.8129 75.0649 84.5412 75.0649C84.88 75.068 85.2167 75.116 85.5424 75.2076L85.962 73.4163C85.3538 73.2048 84.7137 73.0959 84.0687 73.0942C82.2113 73.0942 80.7188 74.0619 80.7188 76.0664V76.8516H78.551V78.8131H80.7188V85.8048H83.2484V78.8116H86.0805V76.8516H83.2484V76.1921Z" fill="#2A3362"/>
<path d="M107.639 74.3271H105.3L105.169 76.8515H103.192V78.813H105.122V83.2267C105.122 84.7297 105.902 85.9872 108.241 85.9872C108.848 85.9872 109.452 85.9214 110.044 85.7909V83.9061C109.703 83.9813 109.355 84.0234 109.006 84.0319C107.75 84.0319 107.641 83.3341 107.641 82.7958V78.8084H110.136V76.8515H107.639V74.3271Z" fill="#2A3362"/>
<path d="M115.529 74.3271H113.198L113.067 76.8515H111.084V78.813H113.015V83.2267C113.015 84.7297 113.795 85.9872 116.134 85.9872C116.739 85.9854 117.342 85.918 117.932 85.7863V83.9061C117.591 83.9813 117.243 84.0234 116.894 84.0319C115.638 84.0319 115.529 83.3341 115.529 82.7958V78.8084H118.032V76.8515H115.529V74.3271Z" fill="#2A3362"/>
<path d="M43.5784 72.7523C43.5784 71.3153 44.0057 70.0884 44.9024 69.2065L46.462 70.7402C44.7262 72.4409 46.2421 77.7288 51.1842 82.5935C56.1264 87.4581 61.5068 88.9472 63.241 87.2434L64.8006 88.777C61.8749 91.6541 55.211 89.6128 49.6325 84.1256C45.7633 80.3191 43.5784 76.0005 43.5784 72.7523Z" fill="#009A46"/>
<path d="M53.4126 90.0986C51.9513 90.0986 50.7037 89.6784 49.8054 88.7966L51.365 87.263C53.0976 88.9668 58.4749 87.4762 63.4218 82.6131C68.3686 77.75 69.8814 72.4621 68.1487 70.7582L69.7083 69.2246C72.6355 72.1017 70.5582 78.6548 64.9782 84.1405C61.1074 87.9516 56.7157 90.0986 53.4126 90.0986Z" fill="#FF5805"/>
<path d="M65.4944 81.946C64.5478 79.2652 62.614 76.4004 60.0485 73.8792C54.47 68.3919 47.8061 66.3491 44.8804 69.2277C44.673 69.4332 44.8524 69.9408 45.2828 70.3641C45.7132 70.7874 46.2294 70.9622 46.4369 70.7583C48.1711 69.0544 53.5484 70.5451 58.4937 75.4097C60.833 77.7101 62.5765 80.2789 63.4171 82.656C64.1532 84.7402 64.0815 86.4211 63.2237 87.2646C63.0148 87.4685 63.1957 87.9777 63.6245 88.3994C64.0534 88.8212 64.5712 88.9991 64.7802 88.7936C66.2789 87.3198 66.5331 84.8844 65.4944 81.946Z" fill="#F5AFCB"/>
<path d="M69.7053 69.2278C68.2035 67.7509 65.7301 67.5009 62.7389 68.5238C60.0144 69.4532 57.0996 71.3564 54.5357 73.8777C48.9572 79.3634 46.8799 85.9166 49.8056 88.7952C50.0146 88.9991 50.5308 88.8228 50.9612 88.401C51.3917 87.9793 51.571 87.4701 51.362 87.2646C49.6247 85.5608 51.1453 80.2729 56.0921 75.4082C58.4314 73.1078 61.0437 71.3932 63.4609 70.5666C65.5804 69.8443 67.2896 69.9133 68.1489 70.7568C68.3563 70.9608 68.8741 70.7844 69.303 70.3611C69.7318 69.9378 69.9128 69.4317 69.7053 69.2278Z" fill="#FF9B00"/>
</g>
<defs>
<filter id="filter0_d_1723_2266" x="0.0566406" y="0" width="230" height="166" filterUnits="userSpaceOnUse" color-interpolation-filters="sRGB">
<feFlood flood-opacity="0" result="BackgroundImageFix"/>
<feColorMatrix in="SourceAlpha" type="matrix" values="0 0 0 0 0 0 0 0 0 0 0 0 0 0 0 0 0 0 127 0" result="hardAlpha"/>
<feOffset dy="4"/>
<feGaussianBlur stdDeviation="2"/>
<feComposite in2="hardAlpha" operator="out"/>
<feColorMatrix type="matrix" values="0 0 0 0 0.572549 0 0 0 0 0.790196 0 0 0 0 0.819608 0 0 0 1 0"/>
<feBlend mode="normal" in2="BackgroundImageFix" result="effect1_dropShadow_1723_2266"/>
<feBlend mode="normal" in="SourceGraphic" in2="effect1_dropShadow_1723_2266" result="shape"/>
</filter>
</defs>
</svg>
