<svg width="72" height="166" viewBox="0 0 72 166" fill="none" xmlns="http://www.w3.org/2000/svg">
<g filter="url(#filter0_d_1723_2293)">
<rect width="222" height="158" transform="translate(4.05664)" fill="white"/>
<g clip-path="url(#clip0_1723_2293)">
<path d="M58.3978 66H51.2109L51.1971 66.0253L50.2052 67.8567H58.3978C64.4664 67.8567 69.3891 72.8448 69.3891 78.9979C69.3891 85.1511 64.4679 90.1392 58.3978 90.1392C52.3277 90.1392 47.406 85.1506 47.406 78.9979C47.4055 77.834 47.5853 76.6772 47.9389 75.5699H50.0374C48.5498 79.2959 49.6381 83.5698 52.719 86.1007C55.7998 88.6316 60.1503 88.8257 63.4386 86.579C66.727 84.3322 68.1815 80.1718 67.0227 76.3277C65.8638 72.4835 62.3635 69.8577 58.3978 69.8576H49.122L48.1169 71.7138H58.3978C61.6274 71.7145 64.4597 73.8991 65.3213 77.0539C66.1829 80.2088 64.862 83.5587 62.0925 85.2425C59.3229 86.9264 55.7853 86.5305 53.4449 84.2747C51.1045 82.019 50.5365 78.4577 52.0564 75.5693H54.4338C52.8469 77.4576 52.7702 80.2107 54.2493 82.1867C55.7285 84.1628 58.365 84.8293 60.5864 83.7888C62.8079 82.7483 64.0157 80.2811 63.4895 77.8587C62.9633 75.4363 60.845 73.7113 58.3978 73.7126H47.0337L46.0281 75.5699C45.7271 76.687 45.5744 77.8399 45.5742 78.9979C45.5742 86.1761 51.3154 91.9959 58.3978 91.9959C65.4802 91.9959 71.2214 86.1761 71.2214 78.9979C71.2214 71.8198 65.4797 66 58.3978 66ZM58.3978 75.5699C60.2657 75.5699 61.7799 77.1047 61.7799 78.9979C61.7799 80.8912 60.2657 82.426 58.3978 82.426C56.5299 82.426 55.0157 80.8912 55.0157 78.9979C55.0157 77.1047 56.5299 75.5699 58.3978 75.5699ZM76.858 79.2724C76.858 75.6614 79.2482 73.1244 82.8328 73.1244C85.0425 73.1244 86.8462 74.1065 87.7932 75.7528L85.7192 77.2384C85.0649 76.1865 84.073 75.6841 82.9006 75.6841C80.9627 75.6841 79.6766 77.0797 79.6766 79.2724C79.6766 81.4434 80.9617 82.8602 82.9006 82.8602C84.0735 82.8602 85.0649 82.3345 85.7192 81.2831L87.7932 82.7687C86.8462 84.4373 85.0425 85.3971 82.8328 85.3971C79.2482 85.3971 76.858 82.8602 76.858 79.2724ZM88.1828 79.2724C88.1828 75.8898 90.5506 73.1244 94.2259 73.1244C97.9237 73.1244 100.268 75.8898 100.268 79.2724C100.268 82.6322 97.9226 85.3971 94.2259 85.3971C90.5531 85.3971 88.1828 82.6317 88.1828 79.2724ZM97.4499 79.2724C97.4499 77.1469 96.2097 75.6614 94.2259 75.6614C92.2421 75.6614 91.0014 77.1469 91.0014 79.2724C91.0014 81.3746 92.2416 82.8602 94.2259 82.8602C96.2102 82.8602 97.4499 81.3746 97.4499 79.2724ZM118.324 73.4433L114.806 85.0761H111.835L109.347 76.8714L106.838 85.0761H103.863L100.365 73.4433H103.094L105.471 81.8305L108.024 73.4433H110.665L113.219 81.8305L115.573 73.4433H118.324ZM156.977 73.4433L153.455 85.0761H150.484L147.997 76.8714L145.488 85.0761H142.519L139.019 73.4459H141.749L144.125 81.8331L146.676 73.4433H149.317L151.87 81.8305L154.225 73.4433H156.977ZM126.557 73.3989V76.0041C126.139 75.9339 125.717 75.8958 125.294 75.8898C123.287 75.8898 122.228 76.9184 122.228 79.3406V85.0782H119.478V73.4433H122.181V75.3869C122.745 74.0388 123.985 73.2386 125.563 73.2386C125.901 73.232 126.238 73.2862 126.557 73.3989ZM137.969 73.4433V83.9105C137.969 87.8188 135.827 89.9665 132.039 89.9665C130.077 89.9665 128.274 89.3726 127.191 88.344L128.431 86.31C129.4 87.0853 130.663 87.4756 131.881 87.4756C134.001 87.4756 135.263 86.2645 135.263 83.909V82.9057C134.61 84.1855 133.212 84.9624 131.52 84.9624C129.085 84.9624 127.552 83.4086 127.552 80.5745V73.4433H130.303V79.8663C130.303 81.6491 131.024 82.426 132.467 82.426C134.136 82.426 135.241 81.3979 135.241 79.7061V73.4433H137.969ZM157.7 69.7651C157.7 68.7592 158.399 68.0278 159.459 68.0278C160.496 68.0278 161.193 68.7592 161.193 69.7651C161.193 70.771 160.494 71.5019 159.459 71.5019C158.399 71.5019 157.7 70.7705 157.7 69.7651ZM158.084 73.4444H160.834V85.0772H158.084V73.4444ZM162.219 83.1802L163.707 81.4201C164.608 82.426 166.007 83.0199 167.472 83.0199C168.78 83.0199 169.501 82.5175 169.501 81.7861C169.501 81.1689 169.05 80.7807 167.901 80.5062L166.029 80.072C163.639 79.5009 162.624 78.3808 162.624 76.781C162.624 74.6327 164.383 73.1244 167.36 73.1244C169.389 73.1244 171.08 73.8326 172.072 74.9759L170.606 76.781C169.614 75.9126 168.487 75.5011 167.291 75.5011C166.006 75.5011 165.375 75.9813 165.375 76.69C165.375 77.2384 165.758 77.5811 166.976 77.8551L168.96 78.3353C171.372 78.8837 172.252 80.0033 172.252 81.6031C172.252 83.9116 170.493 85.3971 167.449 85.3971C165.172 85.3971 163.256 84.5287 162.219 83.1802ZM184.468 80.0948H175.921C176.215 81.9691 177.432 82.9744 179.303 82.9744C180.589 82.9744 181.671 82.4947 182.505 81.5116L184.151 83.1574C183.069 84.5742 181.333 85.3971 179.213 85.3971C175.56 85.3971 173.125 82.9744 173.125 79.3179C173.125 75.7068 175.471 73.1244 178.943 73.1244C182.28 73.1244 184.534 75.4784 184.534 79.0207C184.534 79.3797 184.512 79.7385 184.468 80.0948ZM175.921 78.1988H181.786C181.651 76.4843 180.613 75.5476 178.968 75.5476C177.275 75.5471 176.216 76.5297 175.921 78.1988Z" fill="#0066F5"/>
</g>
</g>
<defs>
<filter id="filter0_d_1723_2293" x="0.0566406" y="0" width="230" height="166" filterUnits="userSpaceOnUse" color-interpolation-filters="sRGB">
<feFlood flood-opacity="0" result="BackgroundImageFix"/>
<feColorMatrix in="SourceAlpha" type="matrix" values="0 0 0 0 0 0 0 0 0 0 0 0 0 0 0 0 0 0 127 0" result="hardAlpha"/>
<feOffset dy="4"/>
<feGaussianBlur stdDeviation="2"/>
<feComposite in2="hardAlpha" operator="out"/>
<feColorMatrix type="matrix" values="0 0 0 0 0.572549 0 0 0 0 0.790196 0 0 0 0 0.819608 0 0 0 1 0"/>
<feBlend mode="normal" in2="BackgroundImageFix" result="effect1_dropShadow_1723_2293"/>
<feBlend mode="normal" in="SourceGraphic" in2="effect1_dropShadow_1723_2293" result="shape"/>
</filter>
<clipPath id="clip0_1723_2293">
<rect width="138.965" height="26" fill="white" transform="translate(45.5742 66)"/>
</clipPath>
</defs>
</svg>
