<svg width="221" height="50" viewBox="0 0 221 50" fill="none" xmlns="http://www.w3.org/2000/svg">
<path d="M22.2334 3.11841C22.2444 3.37658 22.3895 3.61924 22.6797 4.10458L24.3497 6.8977C24.6413 7.38542 24.7871 7.62928 24.9716 7.75542C25.1491 7.87674 25.3075 7.9277 25.5223 7.9326C25.7457 7.93771 26.0415 7.80919 26.6332 7.55215C28.4441 6.76546 30.4225 6.4148 32.408 6.53925C34.9375 6.6978 37.3596 7.61999 39.3549 9.18423C41.3502 10.7485 42.8251 12.8813 43.585 15.3015C44.345 17.7218 44.3543 20.3157 43.6118 22.7414C42.8693 25.167 41.4099 27.3104 39.4259 28.8891C37.4419 30.4677 35.0266 31.4074 32.4983 31.5842C29.9701 31.761 27.4477 31.1667 25.2637 29.8795C23.5493 28.8692 22.1067 27.4692 21.047 25.8021C20.7007 25.2574 20.5276 24.985 20.3397 24.864C20.159 24.7476 19.9993 24.701 19.7844 24.702C19.561 24.703 19.3037 24.8232 18.7892 25.0637L15.8426 26.4408C15.3306 26.6801 15.0746 26.7998 14.9211 27.0075C14.7933 27.1804 14.7163 27.4243 14.7218 27.6393C14.7284 27.8976 14.8584 28.1237 15.1184 28.5759C16.7583 31.4277 19.1131 33.8147 21.9617 35.4935C25.2795 37.4488 29.1113 38.3516 32.9519 38.083C36.7926 37.8144 40.4618 36.387 43.4756 33.9889C46.4895 31.5908 48.7065 28.3347 49.8344 24.6499C50.9623 20.9651 50.9481 17.0246 49.7937 13.3481C48.6393 9.67153 46.3988 6.43152 43.3677 4.05527C40.3366 1.67902 36.6573 0.27812 32.8148 0.0372747C29.5155 -0.169518 26.2291 0.487239 23.2746 1.92988C22.8062 2.15862 22.572 2.27299 22.422 2.48329C22.2971 2.65835 22.2243 2.9035 22.2334 3.11841Z" fill="#92CAD1"/>
<path d="M28.4366 46.8816C28.4256 46.6235 28.2805 46.3808 27.9903 45.8955L26.3203 43.1023C26.0287 42.6146 25.8829 42.3708 25.6984 42.2446C25.5209 42.1233 25.3625 42.0723 25.1477 42.0674C24.9243 42.0623 24.6285 42.1908 24.0368 42.4479C22.3602 43.1763 20.5382 43.5315 18.6981 43.4805C16.3133 43.4143 13.9968 42.6683 12.0207 41.3302C10.0447 39.9922 8.49104 38.1175 7.54226 35.9263C6.59348 33.7351 6.28895 31.3185 6.66443 28.9601C7.03991 26.6017 8.07981 24.3996 9.66202 22.6122C11.2442 20.8248 13.3031 19.5264 15.5968 18.8695C17.8905 18.2126 20.3238 18.2244 22.611 18.9035C24.3759 19.4276 25.9972 20.3321 27.3646 21.5461C27.8472 21.9746 28.0884 22.1888 28.3023 22.2534C28.5081 22.3156 28.6744 22.3164 28.8807 22.2564C29.0953 22.1939 29.3096 22.0075 29.7382 21.6346L32.1929 19.4995C32.6194 19.1285 32.8327 18.943 32.9232 18.7011C32.9986 18.4996 33.0056 18.244 32.9413 18.0387C32.864 17.7922 32.6769 17.6106 32.3027 17.2475C30.1029 15.1126 27.4146 13.5346 24.4619 12.6578C20.9873 11.6261 17.2909 11.6082 13.8065 12.6061C10.3221 13.604 7.19456 15.5764 4.79102 18.2916C2.38748 21.0069 0.807763 24.3522 0.237371 27.9348C-0.333022 31.5174 0.12959 35.1885 1.57089 38.5171C3.01218 41.8457 5.37232 44.6936 8.37416 46.7263C11.376 48.759 14.8949 49.8921 18.5177 49.9927C21.5965 50.0781 24.6416 49.4148 27.3954 48.0702C27.8638 47.8414 28.098 47.7271 28.248 47.5168C28.3729 47.3417 28.4457 47.0966 28.4366 46.8816Z" fill="#92CAD1"/>
<path d="M76.2866 38.1858C74.4471 38.1858 72.8603 37.7798 71.5263 36.9678C70.2005 36.1475 69.1772 35.004 68.4563 33.5374C67.7437 32.0625 67.3874 30.3473 67.3874 28.3918C67.3874 26.4363 67.7437 24.7128 68.4563 23.2213C69.1772 21.7216 70.1798 20.5532 71.4641 19.7164C72.7567 18.8712 74.2648 18.4486 75.9883 18.4486C76.9826 18.4486 77.9645 18.6143 78.9339 18.9458C79.9034 19.2772 80.7859 19.8158 81.5813 20.5615C82.3768 21.299 83.0107 22.2767 83.483 23.4948C83.9553 24.7128 84.1914 26.2126 84.1914 27.9941V29.2369H69.4755V26.7014H81.2085C81.2085 25.6243 80.993 24.6631 80.5621 23.8179C80.1396 22.9727 79.5347 22.3057 78.7475 21.8168C77.9686 21.328 77.0489 21.0835 75.9883 21.0835C74.82 21.0835 73.8091 21.3735 72.9556 21.9536C72.1104 22.5253 71.46 23.271 71.0043 24.1908C70.5485 25.1105 70.3207 26.0966 70.3207 27.1489V28.8392C70.3207 30.281 70.5692 31.5032 71.0664 32.5058C71.5719 33.5001 72.272 34.2583 73.1669 34.7803C74.0618 35.294 75.1017 35.5509 76.2866 35.5509C77.0572 35.5509 77.7532 35.4432 78.3746 35.2277C79.0044 35.004 79.5471 34.6726 80.0028 34.2334C80.4586 33.786 80.8107 33.2308 81.0593 32.5679L83.8931 33.3634C83.5948 34.3245 83.0935 35.1697 82.3892 35.8989C81.6849 36.6198 80.8149 37.1832 79.7791 37.5892C78.7434 37.9869 77.5792 38.1858 76.2866 38.1858ZM90.3282 18.6972L94.9021 26.5026L99.4759 18.6972H102.857L96.6919 28.2426L102.857 37.7881H99.4759L94.9021 30.3804L90.3282 37.7881H86.9475L93.0129 28.2426L86.9475 18.6972H90.3282ZM114.012 38.1858C112.222 38.1858 110.681 37.7632 109.388 36.9181C108.095 36.0729 107.101 34.9087 106.405 33.4255C105.709 31.9423 105.361 30.2478 105.361 28.3421C105.361 26.4031 105.717 24.6921 106.43 23.2089C107.151 21.7174 108.153 20.5532 109.438 19.7164C110.73 18.8712 112.238 18.4486 113.962 18.4486C115.304 18.4486 116.514 18.6972 117.591 19.1943C118.668 19.6915 119.551 20.3875 120.239 21.2824C120.926 22.1773 121.353 23.2213 121.519 24.4145H118.585C118.362 23.5445 117.865 22.7739 117.094 22.1027C116.332 21.4233 115.304 21.0835 114.012 21.0835C112.868 21.0835 111.866 21.3818 111.004 21.9784C110.15 22.5667 109.483 23.3995 109.003 24.4767C108.53 25.5455 108.294 26.8009 108.294 28.2426C108.294 29.7175 108.526 31.0019 108.99 32.0956C109.463 33.1894 110.126 34.0387 110.979 34.6436C111.841 35.2484 112.852 35.5509 114.012 35.5509C114.774 35.5509 115.466 35.4183 116.087 35.1531C116.709 34.888 117.235 34.5068 117.666 34.0097C118.097 33.5125 118.403 32.9159 118.585 32.2199H121.519C121.353 33.3468 120.943 34.3618 120.288 35.265C119.642 36.1599 118.784 36.8725 117.715 37.4028C116.655 37.9248 115.42 38.1858 114.012 38.1858Z" fill="#92CAD1"/>
<path d="M133.96 38.1485C131.947 38.1485 130.219 37.7342 128.777 36.9056C127.344 36.077 126.242 34.9253 125.471 33.4504C124.701 31.9672 124.315 30.252 124.315 28.3048C124.315 26.3493 124.701 24.6341 125.471 23.1592C126.25 21.676 127.356 20.5201 128.79 19.6915C130.231 18.8629 131.951 18.4486 133.948 18.4486C135.713 18.4486 137.25 18.7676 138.559 19.4056C139.876 20.0436 140.904 20.9468 141.641 22.1151C142.387 23.2752 142.781 24.6382 142.822 26.2043H137.142C137.026 25.2265 136.695 24.4601 136.148 23.9049C135.609 23.3498 134.905 23.0722 134.035 23.0722C133.33 23.0722 132.713 23.271 132.183 23.6688C131.652 24.0582 131.238 24.6382 130.94 25.4088C130.65 26.1711 130.505 27.1157 130.505 28.2426C130.505 29.3695 130.65 30.3224 130.94 31.1013C131.238 31.8719 131.652 32.4561 132.183 32.8538C132.713 33.2432 133.33 33.4379 134.035 33.4379C134.598 33.4379 135.095 33.3178 135.526 33.0775C135.965 32.8372 136.326 32.4851 136.608 32.021C136.889 31.5487 137.067 30.977 137.142 30.3058H142.822C142.764 31.8802 142.37 33.2557 141.641 34.4323C140.92 35.6089 139.905 36.5245 138.596 37.1791C137.295 37.8254 135.75 38.1485 133.96 38.1485ZM154.844 38.1485C152.839 38.1485 151.115 37.7384 149.673 36.9181C148.24 36.0895 147.134 34.9377 146.355 33.4628C145.584 31.9796 145.199 30.2603 145.199 28.3048C145.199 26.341 145.584 24.6217 146.355 23.1468C147.134 21.6636 148.24 20.5118 149.673 19.6915C151.115 18.8629 152.839 18.4486 154.844 18.4486C156.849 18.4486 158.568 18.8629 160.002 19.6915C161.444 20.5118 162.55 21.6636 163.32 23.1468C164.099 24.6217 164.489 26.341 164.489 28.3048C164.489 30.2603 164.099 31.9796 163.32 33.4628C162.55 34.9377 161.444 36.0895 160.002 36.9181C158.568 37.7384 156.849 38.1485 154.844 38.1485ZM154.881 33.5622C155.61 33.5622 156.228 33.3385 156.733 32.8911C157.239 32.4436 157.624 31.8222 157.889 31.0267C158.162 30.2313 158.299 29.3115 158.299 28.2675C158.299 27.2069 158.162 26.2789 157.889 25.4834C157.624 24.6879 157.239 24.0665 156.733 23.6191C156.228 23.1716 155.61 22.9479 154.881 22.9479C154.127 22.9479 153.489 23.1716 152.967 23.6191C152.453 24.0665 152.06 24.6879 151.786 25.4834C151.521 26.2789 151.389 27.2069 151.389 28.2675C151.389 29.3115 151.521 30.2313 151.786 31.0267C152.06 31.8222 152.453 32.4436 152.967 32.8911C153.489 33.3385 154.127 33.5622 154.881 33.5622ZM167.602 37.7881V18.6972H173.382V22.2021H173.593C173.991 21.0421 174.662 20.1265 175.607 19.4553C176.551 18.7842 177.678 18.4486 178.987 18.4486C180.313 18.4486 181.448 18.7883 182.393 19.4678C183.337 20.1472 183.938 21.0587 184.195 22.2021H184.394C184.75 21.067 185.446 20.1597 186.482 19.4802C187.518 18.7925 188.74 18.4486 190.148 18.4486C191.955 18.4486 193.421 19.0286 194.548 20.1887C195.675 21.3404 196.239 22.923 196.239 24.9365V37.7881H190.161V26.3286C190.161 25.3757 189.916 24.6507 189.428 24.1535C188.939 23.6481 188.305 23.3953 187.526 23.3953C186.689 23.3953 186.03 23.6688 185.55 24.2156C185.077 24.7542 184.841 25.4793 184.841 26.3907V37.7881H179V26.2664C179 25.3798 178.759 24.6797 178.279 24.1659C177.798 23.6522 177.164 23.3953 176.377 23.3953C175.847 23.3953 175.379 23.5238 174.973 23.7806C174.567 24.0292 174.248 24.3855 174.016 24.8495C173.792 25.3135 173.68 25.8604 173.68 26.4901V37.7881H167.602ZM200.005 44.9472V18.6972H206.02V21.966H206.207C206.455 21.386 206.807 20.8267 207.263 20.2881C207.727 19.7495 208.315 19.3103 209.028 18.9706C209.749 18.6226 210.611 18.4486 211.613 18.4486C212.939 18.4486 214.178 18.7966 215.33 19.4926C216.49 20.1887 217.426 21.2617 218.138 22.7117C218.851 24.1618 219.207 26.0096 219.207 28.2551C219.207 30.4177 218.864 32.2282 218.176 33.6865C217.496 35.1449 216.577 36.2386 215.417 36.9678C214.265 37.6969 212.985 38.0615 211.576 38.0615C210.615 38.0615 209.782 37.9041 209.078 37.5892C208.373 37.2744 207.781 36.8601 207.3 36.3463C206.828 35.8326 206.464 35.2816 206.207 34.6933H206.082V44.9472H200.005ZM205.958 28.2426C205.958 29.2701 206.095 30.165 206.368 30.9273C206.65 31.6896 207.052 32.282 207.574 32.7046C208.104 33.1189 208.738 33.3261 209.475 33.3261C210.221 33.3261 210.855 33.1189 211.377 32.7046C211.899 32.282 212.293 31.6896 212.558 30.9273C212.831 30.165 212.968 29.2701 212.968 28.2426C212.968 27.2152 212.831 26.3244 212.558 25.5704C212.293 24.8164 211.899 24.2322 211.377 23.8179C210.863 23.4036 210.23 23.1965 209.475 23.1965C208.73 23.1965 208.096 23.3995 207.574 23.8055C207.052 24.2115 206.65 24.7915 206.368 25.5455C206.095 26.2996 205.958 27.1986 205.958 28.2426Z" fill="white"/>
</svg>
