<svg width="129" height="33" viewBox="0 0 129 33" fill="none" xmlns="http://www.w3.org/2000/svg">
<g clip-path="url(#clip0_1468_1899)">
<path fill-rule="evenodd" clip-rule="evenodd" d="M109.023 32.8559C107.917 32.5581 117.851 20.0628 116.195 15.0035C115.368 12.3281 107.093 12.6259 107.093 11.7316C107.093 10.8383 123.101 8.46288 124.609 10.691C126.961 13.8201 110.403 33.4514 109.023 32.8559ZM128.332 3.9973C128.332 6.13525 126.728 7.86454 124.746 7.86454C122.767 7.86454 121.161 6.13525 121.161 3.9973C121.161 1.86043 122.767 0.130963 124.746 0.130963C126.728 0.130963 128.332 1.86043 128.332 3.9973Z" fill="#ED342B"/>
<path fill-rule="evenodd" clip-rule="evenodd" d="M7.88437 14.1791C5.61041 14.1791 3.7667 16.0362 3.7667 18.3275C3.7667 20.6184 5.61041 22.4756 7.88437 22.4756C10.1583 22.4756 12.002 20.6184 12.002 18.3275C12.002 16.0362 10.1583 14.1791 7.88437 14.1791ZM13.1658 25.7524L11.7178 24.2929C10.6138 25.0147 9.29804 25.4349 7.88437 25.4349C3.98792 25.4349 0.829102 22.2529 0.829102 18.3275C0.829102 14.4016 3.98792 11.2196 7.88437 11.2196C11.7806 11.2196 14.9395 14.4016 14.9395 18.3275C14.9395 19.7977 14.496 21.164 13.7367 22.298L15.4876 24.0618L13.1658 25.7524ZM102.733 17.0993L103.156 14.8292C103.156 14.8292 99.8928 13.8315 97.2407 15.6804V24.761H100.057L100.057 17.3831C101.184 16.5316 102.733 17.0993 102.733 17.0993ZM32.813 19.7542C32.813 19.0303 32.9294 18.348 33.1625 17.7069C33.3959 17.0659 33.7329 16.5073 34.1739 16.0311C34.6151 15.5547 35.1505 15.177 35.781 14.8976C36.4111 14.6186 37.1294 14.4785 37.936 14.4785C38.465 14.4785 38.9505 14.5262 39.3915 14.6215C39.8325 14.7167 40.2615 14.8531 40.677 15.0312L40.0913 17.2975C39.8265 17.1957 39.5363 17.1067 39.2216 17.0309C38.9062 16.9544 38.5532 16.9165 38.1628 16.9165C37.3308 16.9165 36.7102 17.1766 36.3008 17.6974C35.8913 18.2182 35.6865 18.9036 35.6865 19.7542C35.6865 20.6557 35.8787 21.3541 36.2629 21.849C36.6473 22.3443 37.3182 22.592 38.2762 22.592C38.6164 22.592 38.982 22.5604 39.3727 22.4968C39.7631 22.4329 40.1224 22.3318 40.4503 22.1921L40.8473 24.5153C40.5194 24.6552 40.1098 24.7754 39.6182 24.877C39.1267 24.9788 38.5847 25.0295 37.9925 25.0295C37.0852 25.0295 36.304 24.8931 35.6488 24.6203C34.9933 24.3475 34.4544 23.9757 34.0325 23.5061C33.6096 23.0363 33.3014 22.4809 33.1061 21.8396C32.9107 21.1984 32.813 20.5032 32.813 19.7542ZM67.0212 16.5001C65.1904 16.5001 65.0493 18.4863 65.0493 18.4863H68.9927C68.9927 18.4863 68.852 16.5001 67.0212 16.5001ZM71.387 20.4729H65.0493C65.0493 20.4729 65.1904 22.6015 68.0071 22.6015C69.415 22.6015 70.8239 22.1756 70.8239 22.1756L71.1052 24.4456C71.1052 24.4456 69.6969 25.013 67.7254 25.013C64.9085 25.013 62.3737 23.5941 62.3737 19.6217C62.3737 16.5001 64.345 14.5139 67.1619 14.5139C71.387 14.5139 71.6687 18.7701 71.387 20.4729ZM90.6703 16.5001C88.8393 16.5001 88.6986 18.4863 88.6986 18.4863H92.6422C92.6422 18.4863 92.5011 16.5001 90.6703 16.5001ZM95.0361 20.4729H88.6986C88.6986 20.4729 88.8393 22.6015 91.6561 22.6015C93.0644 22.6015 94.4724 22.1756 94.4724 22.1756L94.7542 24.4456C94.7542 24.4456 93.3463 25.013 91.3745 25.013C88.5576 25.013 86.0226 23.5941 86.0226 19.6217C86.0226 16.5001 87.9946 14.5139 90.8113 14.5139C95.0361 14.5139 95.3178 18.7701 95.0361 20.4729Z" fill="#003C58"/>
<path fill-rule="evenodd" clip-rule="evenodd" d="M30.6475 24.7622H27.8311V14.7443H30.6475V24.7622Z" fill="#003C58"/>
<path fill-rule="evenodd" clip-rule="evenodd" d="M25.8381 14.7457L25.8429 23.821C25.8429 23.821 24.4297 24.9604 21.3312 24.9604C18.5149 24.9604 16.9658 23.5416 16.9658 20.42V14.7454H19.7822V20.42C19.7822 22.4067 20.7681 22.5483 21.6128 22.5483C22.4582 22.5483 23.0221 22.1227 23.0221 22.1227L23.0212 14.7457H25.8381ZM45.6541 18.3407C45.9315 18.0378 46.2173 17.7224 46.5132 17.3943C46.8091 17.0662 47.0958 16.741 47.3726 16.4192C47.6495 16.0968 47.9109 15.7909 48.1564 15.5006C48.402 15.2106 48.6128 14.9577 48.7891 14.7429H52.1387C51.4701 15.5165 50.8183 16.2545 50.1817 16.9575C49.5453 17.6605 48.8491 18.3858 48.0927 19.1334C48.4709 19.4766 48.8613 19.8871 49.2651 20.3638C49.6681 20.8411 50.0589 21.3337 50.4367 21.8428C50.8154 22.3515 51.1616 22.8602 51.4766 23.369C51.792 23.8779 52.0567 24.3418 52.2707 24.7613H49.0319C48.8305 24.4304 48.6006 24.0649 48.3433 23.6635C48.0854 23.2627 47.8116 22.8616 47.5223 22.4609C47.2328 22.0603 46.9275 21.6752 46.6068 21.3059C46.2861 20.9372 45.9683 20.6252 45.6541 20.3702V24.7613H42.8374V12.2409L45.6541 11.7402V18.3407ZM53.9051 12.2418L56.7219 11.741V14.6932H59.5094V17.0549H56.7219V20.5779C56.7219 21.175 56.8259 21.6512 57.0337 22.0062C57.2417 22.3619 57.6604 22.5395 58.2911 22.5395C58.5936 22.5395 58.9054 22.511 59.2268 22.4539C59.548 22.3967 59.8411 22.3177 60.1058 22.2157L60.5026 24.4253C60.1624 24.5651 59.7842 24.6854 59.3684 24.7872C58.9528 24.8883 58.4421 24.939 57.8372 24.939C57.068 24.939 56.432 24.8345 55.9281 24.625C55.4238 24.4155 55.0208 24.1235 54.718 23.749C54.4156 23.3748 54.2042 22.9207 54.0848 22.3872C53.9646 21.8539 53.9051 21.2636 53.9051 20.6162V12.2418ZM77.4223 24.9517C76.6025 24.9393 75.9382 24.8501 75.4276 24.6856C74.9174 24.5204 74.5135 24.2885 74.2182 23.9898C73.9214 23.6919 73.7198 23.3298 73.6129 22.9044C73.5057 22.4792 73.4522 21.9995 73.4522 21.4662V12.2407L76.2689 11.7399V20.8948C76.2689 21.1494 76.2877 21.3776 76.3257 21.5811C76.3634 21.784 76.436 21.9555 76.5431 22.0949C76.6501 22.2351 76.8045 22.3492 77.0064 22.4378C77.2078 22.5269 77.4791 22.5838 77.8192 22.6089L77.4223 24.9517ZM83.7842 24.9517C82.9645 24.9393 82.2999 24.8501 81.7895 24.6856C81.2791 24.5204 80.8753 24.2885 80.5799 23.9898C80.2835 23.6919 80.0815 23.3298 79.9747 22.9044C79.8676 22.4792 79.814 21.9995 79.814 21.4662V12.2407L82.6307 11.7399V20.8948C82.6307 21.1494 82.6498 21.3776 82.6875 21.5811C82.7254 21.784 82.7978 21.9555 82.9048 22.0949C83.0119 22.2351 83.1664 22.3492 83.3681 22.4378C83.5697 22.5269 83.8408 22.5838 84.181 22.6089L83.7842 24.9517Z" fill="#003C58"/>
</g>
<defs>
<clipPath id="clip0_1468_1899">
<rect width="127.658" height="33" fill="white" transform="translate(0.75)"/>
</clipPath>
</defs>
</svg>
