<svg width="231" height="166" viewBox="0 0 231 166" fill="none" xmlns="http://www.w3.org/2000/svg">
<g filter="url(#filter0_d_1723_2286)">
<rect width="222" height="158" transform="translate(4.05664)" fill="white"/>
<g clip-path="url(#clip0_1723_2286)">
<path fill-rule="evenodd" clip-rule="evenodd" d="M159.501 95.3559C158.395 95.0581 168.329 82.5628 166.673 77.5035C165.847 74.8281 157.571 75.1259 157.571 74.2316C157.571 73.3383 173.579 70.9629 175.087 73.191C177.439 76.3201 160.881 95.9514 159.501 95.3559ZM178.81 66.4973C178.81 68.6353 177.206 70.3645 175.225 70.3645C173.245 70.3645 171.639 68.6353 171.639 66.4973C171.639 64.3604 173.245 62.631 175.225 62.631C177.206 62.631 178.81 64.3604 178.81 66.4973Z" fill="#ED342B"/>
<path fill-rule="evenodd" clip-rule="evenodd" d="M58.3624 76.6791C56.0884 76.6791 54.2447 78.5362 54.2447 80.8275C54.2447 83.1184 56.0884 84.9756 58.3624 84.9756C60.6363 84.9756 62.4801 83.1184 62.4801 80.8275C62.4801 78.5362 60.6363 76.6791 58.3624 76.6791ZM63.6438 88.2524L62.1958 86.7929C61.0919 87.5147 59.7761 87.9349 58.3624 87.9349C54.4659 87.9349 51.3071 84.7529 51.3071 80.8275C51.3071 76.9016 54.4659 73.7196 58.3624 73.7196C62.2587 73.7196 65.4175 76.9016 65.4175 80.8275C65.4175 82.2977 64.974 83.664 64.2148 84.798L65.9656 86.5618L63.6438 88.2524ZM153.211 79.5993L153.634 77.3292C153.634 77.3292 150.371 76.3315 147.719 78.1804V87.261H150.535L150.535 79.8831C151.662 79.0316 153.211 79.5993 153.211 79.5993ZM83.291 82.2542C83.291 81.5303 83.4075 80.848 83.6405 80.2069C83.874 79.5659 84.2109 79.0073 84.652 78.5311C85.0931 78.0547 85.6285 77.677 86.2591 77.3976C86.8891 77.1186 87.6074 76.9785 88.4141 76.9785C88.9431 76.9785 89.4285 77.0262 89.8695 77.1215C90.3105 77.2167 90.7395 77.3531 91.1551 77.5312L90.5693 79.7975C90.3045 79.6957 90.0143 79.6067 89.6996 79.5309C89.3843 79.4544 89.0312 79.4165 88.6408 79.4165C87.8088 79.4165 87.1882 79.6766 86.7788 80.1974C86.3693 80.7182 86.1646 81.4036 86.1646 82.2542C86.1646 83.1557 86.3567 83.8541 86.741 84.349C87.1254 84.8443 87.7963 85.092 88.7542 85.092C89.0944 85.092 89.46 85.0604 89.8508 84.9968C90.2412 84.9329 90.6004 84.8318 90.9284 84.6921L91.3253 87.0153C90.9974 87.1552 90.5879 87.2754 90.0962 87.377C89.6048 87.4788 89.0627 87.5295 88.4705 87.5295C87.5632 87.5295 86.782 87.3931 86.1269 87.1203C85.4714 86.8475 84.9325 86.4757 84.5106 86.0061C84.0876 85.5363 83.7795 84.9809 83.5841 84.3396C83.3887 83.6984 83.291 83.0032 83.291 82.2542ZM117.499 79.0001C115.668 79.0001 115.527 80.9863 115.527 80.9863H119.471C119.471 80.9863 119.33 79.0001 117.499 79.0001ZM121.865 82.9729H115.527C115.527 82.9729 115.668 85.1015 118.485 85.1015C119.893 85.1015 121.302 84.6756 121.302 84.6756L121.583 86.9456C121.583 86.9456 120.175 87.513 118.203 87.513C115.387 87.513 112.852 86.0941 112.852 82.1217C112.852 79.0001 114.823 77.0139 117.64 77.0139C121.865 77.0139 122.147 81.2701 121.865 82.9729ZM141.148 79.0001C139.317 79.0001 139.177 80.9863 139.177 80.9863H143.12C143.12 80.9863 142.979 79.0001 141.148 79.0001ZM145.514 82.9729H139.177C139.177 82.9729 139.317 85.1015 142.134 85.1015C143.542 85.1015 144.95 84.6756 144.95 84.6756L145.232 86.9456C145.232 86.9456 143.824 87.513 141.853 87.513C139.036 87.513 136.501 86.0941 136.501 82.1217C136.501 79.0001 138.473 77.0139 141.289 77.0139C145.514 77.0139 145.796 81.2701 145.514 82.9729Z" fill="#003C58"/>
<path fill-rule="evenodd" clip-rule="evenodd" d="M81.1258 87.2622H78.3093V77.2443H81.1258V87.2622Z" fill="#003C58"/>
<path fill-rule="evenodd" clip-rule="evenodd" d="M76.3161 77.2457L76.3209 86.321C76.3209 86.321 74.9077 87.4604 71.8093 87.4604C68.9929 87.4604 67.4438 86.0416 67.4438 82.92V77.2454H70.2602V82.92C70.2602 84.9067 71.2461 85.0483 72.0908 85.0483C72.9363 85.0483 73.5001 84.6227 73.5001 84.6227L73.4992 77.2457H76.3161ZM96.1322 80.8407C96.4095 80.5378 96.6953 80.2224 96.9912 79.8943C97.2871 79.5662 97.5738 79.241 97.8506 78.9192C98.1276 78.5968 98.3889 78.2909 98.6344 78.0006C98.88 77.7106 99.0908 77.4577 99.2671 77.2429H102.617C101.948 78.0165 101.296 78.7545 100.66 79.4575C100.023 80.1605 99.3271 80.8858 98.5707 81.6334C98.9489 81.9766 99.3393 82.3871 99.7432 82.8638C100.146 83.3411 100.537 83.8337 100.915 84.3428C101.293 84.8515 101.64 85.3602 101.955 85.869C102.27 86.3779 102.535 86.8418 102.749 87.2613H99.5099C99.3085 86.9304 99.0786 86.5649 98.8213 86.1635C98.5634 85.7627 98.2897 85.3616 98.0003 84.9609C97.7108 84.5603 97.4055 84.1752 97.0848 83.8059C96.7641 83.4372 96.4463 83.1252 96.1322 82.8702V87.2613H93.3154V74.7409L96.1322 74.2402V80.8407ZM104.383 74.7418L107.2 74.241V77.1932H109.987V79.5549H107.2V83.0779C107.2 83.675 107.304 84.1512 107.512 84.5062C107.72 84.8619 108.138 85.0395 108.769 85.0395C109.072 85.0395 109.383 85.011 109.705 84.9539C110.026 84.8967 110.319 84.8177 110.584 84.7157L110.981 86.9253C110.64 87.0651 110.262 87.1854 109.846 87.2872C109.431 87.3883 108.92 87.439 108.315 87.439C107.546 87.439 106.91 87.3345 106.406 87.125C105.902 86.9155 105.499 86.6235 105.196 86.249C104.894 85.8748 104.682 85.4207 104.563 84.8872C104.443 84.3539 104.383 83.7636 104.383 83.1162V74.7418ZM127.9 87.4517C127.081 87.4393 126.416 87.3501 125.906 87.1856C125.395 87.0204 124.992 86.7885 124.696 86.4898C124.399 86.1919 124.198 85.8298 124.091 85.4044C123.984 84.9792 123.93 84.4995 123.93 83.9662V74.7407L126.747 74.2399V83.3948C126.747 83.6494 126.766 83.8776 126.804 84.0811C126.841 84.284 126.914 84.4555 127.021 84.5949C127.128 84.7351 127.282 84.8492 127.484 84.9378C127.686 85.0269 127.957 85.0838 128.297 85.1089L127.9 87.4517ZM134.262 87.4517C133.442 87.4393 132.778 87.3501 132.268 87.1856C131.757 87.0204 131.353 86.7885 131.058 86.4898C130.762 86.1919 130.56 85.8298 130.453 85.4044C130.346 84.9792 130.292 84.4995 130.292 83.9662V74.7407L133.109 74.2399V83.3948C133.109 83.6494 133.128 83.8776 133.166 84.0811C133.203 84.284 133.276 84.4555 133.383 84.5949C133.49 84.7351 133.644 84.8492 133.846 84.9378C134.048 85.0269 134.319 85.0838 134.659 85.1089L134.262 87.4517Z" fill="#003C58"/>
</g>
</g>
<defs>
<filter id="filter0_d_1723_2286" x="0.0566406" y="0" width="230" height="166" filterUnits="userSpaceOnUse" color-interpolation-filters="sRGB">
<feFlood flood-opacity="0" result="BackgroundImageFix"/>
<feColorMatrix in="SourceAlpha" type="matrix" values="0 0 0 0 0 0 0 0 0 0 0 0 0 0 0 0 0 0 127 0" result="hardAlpha"/>
<feOffset dy="4"/>
<feGaussianBlur stdDeviation="2"/>
<feComposite in2="hardAlpha" operator="out"/>
<feColorMatrix type="matrix" values="0 0 0 0 0.572549 0 0 0 0 0.790196 0 0 0 0 0.819608 0 0 0 1 0"/>
<feBlend mode="normal" in2="BackgroundImageFix" result="effect1_dropShadow_1723_2286"/>
<feBlend mode="normal" in="SourceGraphic" in2="effect1_dropShadow_1723_2286" result="shape"/>
</filter>
<clipPath id="clip0_1723_2286">
<rect width="127.658" height="33" fill="white" transform="translate(51.2278 62.5)"/>
</clipPath>
</defs>
</svg>
