<svg width="231" height="166" viewBox="0 0 231 166" fill="none" xmlns="http://www.w3.org/2000/svg">
<g filter="url(#filter0_d_1723_2286)">
<rect width="222" height="158" transform="translate(4.05664)" fill="white"/>
<g clip-path="url(#clip0_1723_2286)">
<path fill-rule="evenodd" clip-rule="evenodd" d="M159.501 95.3559C158.394 95.0581 168.329 82.5628 166.672 77.5035C165.846 74.8281 157.57 75.1259 157.57 74.2316C157.57 73.3383 173.578 70.9629 175.086 73.191C177.438 76.3201 160.88 95.9514 159.501 95.3559ZM178.81 66.4973C178.81 68.6353 177.206 70.3645 175.224 70.3645C173.245 70.3645 171.638 68.6353 171.638 66.4973C171.638 64.3604 173.245 62.631 175.224 62.631C177.206 62.631 178.81 64.3604 178.81 66.4973Z" fill="#ED342B"/>
<path fill-rule="evenodd" clip-rule="evenodd" d="M58.3619 76.6791C56.088 76.6791 54.2442 78.5362 54.2442 80.8275C54.2442 83.1184 56.088 84.9756 58.3619 84.9756C60.6358 84.9756 62.4796 83.1184 62.4796 80.8275C62.4796 78.5362 60.6358 76.6791 58.3619 76.6791ZM63.6434 88.2524L62.1953 86.7929C61.0914 87.5147 59.7756 87.9349 58.3619 87.9349C54.4655 87.9349 51.3066 84.7529 51.3066 80.8275C51.3066 76.9016 54.4655 73.7196 58.3619 73.7196C62.2582 73.7196 65.417 76.9016 65.417 80.8275C65.417 82.2977 64.9735 83.664 64.2143 84.798L65.9651 86.5618L63.6434 88.2524ZM153.211 79.5993L153.633 77.3292C153.633 77.3292 150.37 76.3315 147.718 78.1804V87.261H150.535L150.535 79.8831C151.661 79.0316 153.211 79.5993 153.211 79.5993ZM83.2905 82.2542C83.2905 81.5303 83.407 80.848 83.64 80.2069C83.8735 79.5659 84.2105 79.0073 84.6515 78.5311C85.0927 78.0547 85.628 77.677 86.2586 77.3976C86.8886 77.1186 87.607 76.9785 88.4136 76.9785C88.9426 76.9785 89.428 77.0262 89.869 77.1215C90.3101 77.2167 90.7391 77.3531 91.1546 77.5312L90.5688 79.7975C90.304 79.6957 90.0138 79.6067 89.6991 79.5309C89.3838 79.4544 89.0307 79.4165 88.6403 79.4165C87.8083 79.4165 87.1877 79.6766 86.7783 80.1974C86.3688 80.7182 86.1641 81.4036 86.1641 82.2542C86.1641 83.1557 86.3563 83.8541 86.7405 84.349C87.1249 84.8443 87.7958 85.092 88.7537 85.092C89.0939 85.092 89.4595 85.0604 89.8503 84.9968C90.2407 84.9329 90.5999 84.8318 90.9279 84.6921L91.3248 87.0153C90.9969 87.1552 90.5874 87.2754 90.0957 87.377C89.6043 87.4788 89.0622 87.5295 88.4701 87.5295C87.5627 87.5295 86.7815 87.3931 86.1264 87.1203C85.4709 86.8475 84.932 86.4757 84.5101 86.0061C84.0871 85.5363 83.779 84.9809 83.5836 84.3396C83.3882 83.6984 83.2905 83.0032 83.2905 82.2542ZM117.499 79.0001C115.668 79.0001 115.527 80.9863 115.527 80.9863H119.47C119.47 80.9863 119.33 79.0001 117.499 79.0001ZM121.865 82.9729H115.527C115.527 82.9729 115.668 85.1015 118.485 85.1015C119.893 85.1015 121.301 84.6756 121.301 84.6756L121.583 86.9456C121.583 86.9456 120.174 87.513 118.203 87.513C115.386 87.513 112.851 86.0941 112.851 82.1217C112.851 79.0001 114.823 77.0139 117.639 77.0139C121.865 77.0139 122.146 81.2701 121.865 82.9729ZM141.148 79.0001C139.317 79.0001 139.176 80.9863 139.176 80.9863H143.12C143.12 80.9863 142.979 79.0001 141.148 79.0001ZM145.514 82.9729H139.176C139.176 82.9729 139.317 85.1015 142.134 85.1015C143.542 85.1015 144.95 84.6756 144.95 84.6756L145.232 86.9456C145.232 86.9456 143.824 87.513 141.852 87.513C139.035 87.513 136.5 86.0941 136.5 82.1217C136.5 79.0001 138.472 77.0139 141.289 77.0139C145.514 77.0139 145.795 81.2701 145.514 82.9729Z" fill="#003C58"/>
<path fill-rule="evenodd" clip-rule="evenodd" d="M81.125 87.2622H78.3086V77.2443H81.125V87.2622Z" fill="#003C58"/>
<path fill-rule="evenodd" clip-rule="evenodd" d="M76.3156 77.2457L76.3204 86.321C76.3204 86.321 74.9073 87.4604 71.8088 87.4604C68.9924 87.4604 67.4434 86.0416 67.4434 82.92V77.2454H70.2597V82.92C70.2597 84.9067 71.2457 85.0483 72.0904 85.0483C72.9358 85.0483 73.4996 84.6227 73.4996 84.6227L73.4987 77.2457H76.3156ZM96.1317 80.8407C96.409 80.5378 96.6948 80.2224 96.9907 79.8943C97.2866 79.5662 97.5733 79.241 97.8501 78.9192C98.1271 78.5968 98.3885 78.2909 98.6339 78.0006C98.8796 77.7106 99.0903 77.4577 99.2666 77.2429H102.616C101.948 78.0165 101.296 78.7545 100.659 79.4575C100.023 80.1605 99.3266 80.8858 98.5702 81.6334C98.9484 81.9766 99.3388 82.3871 99.7427 82.8638C100.146 83.3411 100.536 83.8337 100.914 84.3428C101.293 84.8515 101.639 85.3602 101.954 85.869C102.27 86.3779 102.534 86.8418 102.748 87.2613H99.5094C99.308 86.9304 99.0781 86.5649 98.8208 86.1635C98.563 85.7627 98.2892 85.3616 97.9998 84.9609C97.7103 84.5603 97.405 84.1752 97.0843 83.8059C96.7637 83.4372 96.4458 83.1252 96.1317 82.8702V87.2613H93.3149V74.7409L96.1317 74.2402V80.8407ZM104.383 74.7418L107.199 74.241V77.1932H109.987V79.5549H107.199V83.0779C107.199 83.675 107.303 84.1512 107.511 84.5062C107.719 84.8619 108.138 85.0395 108.769 85.0395C109.071 85.0395 109.383 85.011 109.704 84.9539C110.026 84.8967 110.319 84.8177 110.583 84.7157L110.98 86.9253C110.64 87.0651 110.262 87.1854 109.846 87.2872C109.43 87.3883 108.92 87.439 108.315 87.439C107.546 87.439 106.91 87.3345 106.406 87.125C105.901 86.9155 105.498 86.6235 105.196 86.249C104.893 85.8748 104.682 85.4207 104.562 84.8872C104.442 84.3539 104.383 83.7636 104.383 83.1162V74.7418ZM127.9 87.4517C127.08 87.4393 126.416 87.3501 125.905 87.1856C125.395 87.0204 124.991 86.7885 124.696 86.4898C124.399 86.1919 124.197 85.8298 124.09 85.4044C123.983 84.9792 123.93 84.4995 123.93 83.9662V74.7407L126.746 74.2399V83.3948C126.746 83.6494 126.765 83.8776 126.803 84.0811C126.841 84.284 126.914 84.4555 127.021 84.5949C127.128 84.7351 127.282 84.8492 127.484 84.9378C127.685 85.0269 127.957 85.0838 128.297 85.1089L127.9 87.4517ZM134.262 87.4517C133.442 87.4393 132.777 87.3501 132.267 87.1856C131.757 87.0204 131.353 86.7885 131.057 86.4898C130.761 86.1919 130.559 85.8298 130.452 85.4044C130.345 84.9792 130.292 84.4995 130.292 83.9662V74.7407L133.108 74.2399V83.3948C133.108 83.6494 133.127 83.8776 133.165 84.0811C133.203 84.284 133.275 84.4555 133.382 84.5949C133.489 84.7351 133.644 84.8492 133.846 84.9378C134.047 85.0269 134.318 85.0838 134.659 85.1089L134.262 87.4517Z" fill="#003C58"/>
</g>
</g>
<defs>
<filter id="filter0_d_1723_2286" x="0.0566406" y="0" width="230" height="166" filterUnits="userSpaceOnUse" color-interpolation-filters="sRGB">
<feFlood flood-opacity="0" result="BackgroundImageFix"/>
<feColorMatrix in="SourceAlpha" type="matrix" values="0 0 0 0 0 0 0 0 0 0 0 0 0 0 0 0 0 0 127 0" result="hardAlpha"/>
<feOffset dy="4"/>
<feGaussianBlur stdDeviation="2"/>
<feComposite in2="hardAlpha" operator="out"/>
<feColorMatrix type="matrix" values="0 0 0 0 0.572549 0 0 0 0 0.790196 0 0 0 0 0.819608 0 0 0 1 0"/>
<feBlend mode="normal" in2="BackgroundImageFix" result="effect1_dropShadow_1723_2286"/>
<feBlend mode="normal" in="SourceGraphic" in2="effect1_dropShadow_1723_2286" result="shape"/>
</filter>
<clipPath id="clip0_1723_2286">
<rect width="127.658" height="33" fill="white" transform="translate(51.2275 62.5)"/>
</clipPath>
</defs>
</svg>
