<svg width="231" height="166" viewBox="0 0 231 166" fill="none" xmlns="http://www.w3.org/2000/svg">
<g filter="url(#filter0_d_1723_2283)">
<rect width="222" height="158" transform="translate(4.05664)" fill="white"/>
<path d="M82.5411 89.7621L82.0497 92.3175C81.9841 92.5141 81.9841 92.6779 81.9841 92.8745C81.9841 93.4314 82.3118 93.6935 82.7704 93.6935C83.3601 93.6935 83.786 93.3004 83.9498 92.3175L84.474 89.7621H84.9982L84.5068 92.3175C84.2775 93.5952 83.655 94.1194 82.7377 94.1194C81.9841 94.1194 81.46 93.7263 81.46 92.8417L81.4927 92.2192L81.9514 89.7294H82.5411V89.7621ZM85.7517 94.1194L86.1449 91.9244C86.2432 91.564 86.2432 91.2692 86.3087 91.0071H86.7673L86.6691 91.5968C86.9311 91.1381 87.357 90.9088 87.8157 90.9088C88.1761 90.9088 88.5692 91.1381 88.5692 91.7606L88.5365 92.2848L88.1761 94.0539H87.6191L87.9468 92.2848L87.9795 91.8589C87.9795 91.564 87.8485 91.3347 87.4881 91.3347C87.1277 91.3347 86.5708 91.7606 86.4397 92.5469L86.1449 94.0539H85.7517V94.1194ZM89.7159 94.1194L90.3056 91.0071H90.8625L90.2728 94.1194H89.7159ZM90.4039 90.1225C90.4039 89.9587 90.6004 89.7621 90.7643 89.7621C90.9608 89.7621 91.0919 89.8932 91.0919 90.0897C91.0919 90.3191 90.9608 90.4501 90.7315 90.4501C90.5349 90.4501 90.4039 90.3191 90.4039 90.1225ZM93.1559 90.188L93.0248 91.0071H93.7456L93.6473 91.4002H92.9265L92.6644 92.9072C92.5989 93.1038 92.5989 93.2349 92.5989 93.4314C92.5989 93.5952 92.6972 93.6935 92.8938 93.6935H93.1231L93.0576 94.1194L92.6644 94.1522C92.2058 94.1522 92.0092 93.8901 92.0092 93.5625L92.042 92.9728L92.3696 91.4002H91.9109L92.0092 91.0071H92.4679L92.5989 90.3191L93.1559 90.188ZM96.5958 93.9228C96.3665 94.0539 95.9734 94.1522 95.5802 94.1522C94.7612 94.1522 94.4008 93.5952 94.4008 92.9072C94.4008 91.9899 95.0888 90.9088 96.0716 90.9088C96.6613 90.9088 96.989 91.2692 96.989 91.6951C96.989 92.5141 96.0716 92.7434 94.925 92.6779C94.8922 92.8417 94.925 93.1038 94.9905 93.3004C95.1215 93.5625 95.3509 93.6935 95.6785 93.6935C96.0389 93.6935 96.301 93.5625 96.4975 93.4642L96.5958 93.9228ZM95.9734 91.3347C95.4819 91.3347 95.1215 91.8261 94.9905 92.2848C95.8095 92.2848 96.432 92.1865 96.432 91.6951C96.432 91.4657 96.2682 91.3347 95.9734 91.3347ZM101.117 89.5328L100.429 93.1038C100.363 93.4314 100.298 93.7918 100.298 94.0539H99.7737L99.872 93.4642C99.6099 93.9228 99.184 94.1522 98.7908 94.1522C98.1684 94.1522 97.8735 93.6608 97.8735 93.0055C97.8735 91.9244 98.6926 90.9088 99.7737 90.9088C99.9703 90.9088 100.2 90.9415 100.331 91.0071L100.593 89.5328H101.117ZM100.232 91.4657C100.134 91.3674 99.9703 91.3347 99.7409 91.3347C99.0202 91.3347 98.3977 92.0882 98.3977 92.9072C98.3977 93.3004 98.5615 93.6935 99.0202 93.6935C99.4133 93.6935 99.9375 93.2349 100.069 92.5469L100.232 91.4657ZM104.295 89.8276C104.59 89.7621 104.917 89.7294 105.212 89.7294C105.671 89.7294 105.998 89.8276 106.228 90.0242C106.424 90.2208 106.555 90.4501 106.555 90.7122C106.555 91.2692 106.097 91.6951 105.638 91.8261C106.064 91.9572 106.359 92.2848 106.359 92.7762C106.359 93.2349 106.129 93.5625 105.867 93.7918C105.54 94.0539 105.048 94.1522 104.459 94.1522L103.541 94.1194L104.295 89.8276ZM104.131 93.6608L104.59 93.6935C105.212 93.6935 105.835 93.4314 105.835 92.7434C105.835 92.2192 105.409 91.9899 104.917 91.9899H104.491L104.131 93.6608ZM104.524 91.5968H104.95C105.54 91.5968 106.064 91.2692 106.064 90.7777C106.064 90.3518 105.736 90.188 105.278 90.188L104.819 90.2208L104.524 91.5968ZM109.438 94.1194L109.537 93.3331C109.209 93.9556 108.75 94.1849 108.324 94.1849C107.8 94.1849 107.473 93.7263 107.473 93.2021C107.473 92.0882 108.259 91.0071 109.602 91.0071C109.897 91.0071 110.257 91.0398 110.454 91.1381L110.126 92.7434C110.028 93.3004 109.995 93.8246 109.995 94.1522H109.438V94.1194ZM109.799 91.3674L109.438 91.3347C108.652 91.3347 107.964 92.1537 107.964 93.0055C107.964 93.3659 108.095 93.6935 108.521 93.6935C108.98 93.6935 109.471 93.1038 109.602 92.2848L109.799 91.3674ZM111.306 94.1194L111.732 91.9244L111.863 91.0071H112.321L112.223 91.5968C112.485 91.1381 112.911 90.9088 113.37 90.9088C113.73 90.9088 114.156 91.1381 114.156 91.7606L114.091 92.2848L113.73 94.0539H113.173L113.501 92.2848L113.534 91.8589C113.534 91.564 113.403 91.3347 113.042 91.3347C112.682 91.3347 112.125 91.7606 111.994 92.5469L111.732 94.0539H111.306V94.1194ZM115.335 94.1194L116.187 89.5983H116.711L116.154 92.4158C116.253 92.3175 116.384 92.1865 116.417 92.0882L117.53 91.0071H118.153L116.81 92.2848L117.694 94.1194H117.105L116.384 92.6124L115.958 92.9728L115.729 94.1522H115.335V94.1194ZM120.643 94.1194L121.134 91.4002H120.741L120.807 91.0071H121.233L121.265 90.8105C121.364 90.3518 121.495 89.9915 121.789 89.7294C121.953 89.5328 122.248 89.4345 122.51 89.4345C122.74 89.4345 122.871 89.5 122.936 89.5328L122.772 89.9587C122.707 89.8932 122.609 89.8932 122.477 89.8932C122.052 89.8932 121.822 90.3191 121.724 90.8105V91.0071H122.412L122.314 91.4002H121.658L121.134 94.1194H120.643ZM125.885 92.2192C125.885 93.2021 125.197 94.1849 124.148 94.1849C123.395 94.1849 122.969 93.5952 122.969 92.9072C122.969 91.9244 123.69 90.9415 124.705 90.9415C125.524 90.9088 125.885 91.564 125.885 92.2192ZM123.526 92.8745C123.526 93.3659 123.788 93.7263 124.247 93.7263C124.902 93.7263 125.361 92.9072 125.361 92.2192C125.361 91.8589 125.164 91.3674 124.607 91.3674C123.985 91.3347 123.526 92.1537 123.526 92.8745ZM126.868 94.1194L127.228 92.0882C127.326 91.6951 127.359 91.2692 127.392 91.0071H127.85L127.785 91.6951C127.949 91.2692 128.309 90.9415 128.735 90.9415H128.866L128.768 91.4657H128.637C128.178 91.4657 127.785 91.9899 127.621 92.7434L127.359 94.1194H126.868ZM132.109 92.7434L131.421 94.1194H130.864L133.125 89.8276H133.747L134.37 94.1194H133.813L133.616 92.7434H132.109ZM133.584 92.2848L133.387 91.0398C133.354 90.8105 133.354 90.4829 133.289 90.2535L132.928 91.0398L132.306 92.2848H133.584ZM135.451 94.1194L135.943 91.4002H135.549L135.648 91.0071H136.041L136.106 90.8105C136.172 90.3518 136.336 89.9915 136.598 89.7294C136.762 89.5328 137.056 89.4345 137.318 89.4345C137.548 89.4345 137.679 89.5 137.744 89.5328L137.613 89.9587C137.515 89.8932 137.417 89.8932 137.286 89.8932C136.86 89.8932 136.631 90.3191 136.565 90.8105L136.499 90.9415H137.187L137.089 91.3674H136.401L135.91 94.0539H135.451V94.1194ZM137.777 94.1194L138.138 92.0882L138.334 91.0071H138.793L138.694 91.6951C138.891 91.2692 139.251 90.9415 139.645 90.9415H139.808L139.71 91.4657H139.579C139.12 91.4657 138.694 91.9899 138.563 92.7434L138.301 94.1194H137.777ZM140.398 94.1194L140.988 91.0071H141.545L140.955 94.1194H140.398ZM141.086 90.1225C141.086 89.9587 141.217 89.7621 141.446 89.7621C141.61 89.7621 141.774 89.8932 141.774 90.0897C141.774 90.3191 141.61 90.4501 141.381 90.4501C141.217 90.4501 141.086 90.3191 141.086 90.1225ZM144.559 93.9556C144.362 94.0539 144.035 94.1522 143.641 94.1522C142.822 94.1522 142.462 93.5952 142.462 92.9728C142.462 91.9244 143.216 90.9415 144.329 90.9415C144.592 90.9415 144.886 91.0398 144.952 91.1054L144.821 91.4985C144.69 91.4657 144.559 91.3674 144.329 91.3674C143.51 91.3674 142.986 92.1537 142.986 92.8745C142.986 93.3659 143.281 93.6935 143.773 93.6935C144.1 93.6935 144.329 93.5952 144.493 93.4969L144.559 93.9556ZM147.671 94.1194L147.737 93.3331C147.442 93.9556 146.983 94.1849 146.557 94.1849C146 94.1849 145.705 93.7263 145.705 93.2021C145.705 92.0882 146.459 91.0071 147.835 91.0071C148.13 91.0071 148.49 91.0398 148.654 91.1381L148.359 92.7434C148.261 93.3004 148.195 93.8246 148.195 94.1522H147.671V94.1194ZM148.032 91.3674L147.671 91.3347C146.885 91.3347 146.197 92.1537 146.197 93.0055C146.197 93.3659 146.328 93.6935 146.754 93.6935C147.213 93.6935 147.704 93.1038 147.835 92.2848L148.032 91.3674ZM94.7939 71.4156L92.8282 80.5234C92.2385 82.4891 91.1574 83.865 88.8641 83.9633C86.8984 83.9633 86.1121 82.6529 86.6035 79.9009L88.3399 71.4156H85.4569L83.4584 81.1458C83.098 84.8806 85.2931 85.929 88.6348 85.8307C91.8126 85.7324 94.0077 84.2909 95.2526 81.4079L97.4476 71.4156H94.7939ZM119.07 76.0023L120.217 80.7199H115.958L119.07 76.0023ZM119.955 71.4156L110.29 85.5031H112.911L114.746 82.7839H120.774L121.364 85.5031H124.476L121.036 71.4156H119.955ZM129.357 85.6014H134.894C139.874 85.3721 140.955 83.1115 139.35 79.3439L133.289 67.517L129.357 85.6014ZM142.953 63.8149C137.974 64.0443 136.925 66.3376 138.531 70.0724L144.559 81.8993L148.49 63.8149H142.953ZM101.248 83.734L102.264 78.9836H103.41C105.081 78.9836 106.49 79.5733 106.49 81.1458C106.49 83.046 104.622 83.8323 102.526 83.8323L101.248 83.734ZM103.443 73.2175H104.819C106.326 73.2175 107.243 73.5779 107.243 74.7901C107.243 76.2316 105.867 77.1489 103.803 77.1489H102.657L103.443 73.2175ZM101.248 71.4156L101.019 71.4484L98.1029 85.5686H103.705C105.605 85.5686 106.686 85.0445 107.407 84.6186C108.554 83.865 109.373 82.6529 109.668 81.1786C110.028 79.1801 108.652 78.1318 106.948 77.968C108.685 77.5748 110.159 76.2971 110.257 74.4625C110.487 71.4156 107.047 71.4156 107.047 71.4156H101.248Z" fill="#D71920"/>
</g>
<defs>
<filter id="filter0_d_1723_2283" x="0.0566406" y="0" width="230" height="166" filterUnits="userSpaceOnUse" color-interpolation-filters="sRGB">
<feFlood flood-opacity="0" result="BackgroundImageFix"/>
<feColorMatrix in="SourceAlpha" type="matrix" values="0 0 0 0 0 0 0 0 0 0 0 0 0 0 0 0 0 0 127 0" result="hardAlpha"/>
<feOffset dy="4"/>
<feGaussianBlur stdDeviation="2"/>
<feComposite in2="hardAlpha" operator="out"/>
<feColorMatrix type="matrix" values="0 0 0 0 0.572549 0 0 0 0 0.790196 0 0 0 0 0.819608 0 0 0 1 0"/>
<feBlend mode="normal" in2="BackgroundImageFix" result="effect1_dropShadow_1723_2283"/>
<feBlend mode="normal" in="SourceGraphic" in2="effect1_dropShadow_1723_2283" result="shape"/>
</filter>
</defs>
</svg>
