<svg width="158" height="37" viewBox="0 0 158 37" fill="none" xmlns="http://www.w3.org/2000/svg">
<path d="M53.7868 12.5908H51.2744V25.303H53.7868V12.5908Z" fill="#2A3362"/>
<path d="M63.5109 20.7929C63.5109 22.5474 62.3631 23.3356 60.8347 23.3356C59.3064 23.3356 58.2849 22.5474 58.2849 20.8819V16.3516H55.7725V21.4554C55.7725 23.9966 57.3928 25.4827 60.0877 25.4827C61.7814 25.4827 62.728 24.8693 63.3627 24.1761H63.5093L63.7277 25.3048H66.0389V16.3516H63.5109V20.7929Z" fill="#2A3362"/>
<path d="M88.1557 23.5317C86.317 23.5317 85.2799 22.7081 85.1161 21.5089H93.0901C93.1268 21.2595 93.1451 21.0078 93.1446 20.7559C93.1275 17.5353 90.6494 16.1719 87.9982 16.1719C84.9212 16.1719 82.6084 17.9815 82.6084 20.9C82.6084 23.6743 84.8307 25.4825 88.1619 25.4825C90.9488 25.4825 92.8047 24.2663 93.1883 22.403H90.7055C90.3952 23.1376 89.5031 23.5317 88.1557 23.5317ZM87.9997 18.1242C89.6029 18.1242 90.5309 18.822 90.6774 19.8111H85.1707C85.4062 18.8634 86.3357 18.1242 87.9919 18.1242H87.9997Z" fill="#2A3362"/>
<path d="M97.4135 17.6365H97.2575L97.0205 16.3467H94.7373V25.3045H97.2497V21.4552C97.2497 19.7176 98.2681 18.7514 100.163 18.7514C100.507 18.7467 100.851 18.7765 101.189 18.8403V16.3513H100.838C99.1633 16.3513 98.1231 16.6917 97.4135 17.6365Z" fill="#2A3362"/>
<path d="M113.525 22.5106H113.38L111.231 16.9067H108.645L106.534 22.4937H106.37L104.367 16.3516H101.872L104.949 25.3048H107.681L109.866 19.5921H110.011L112.16 25.3048H114.91L117.987 16.3516H115.492L113.525 22.5106Z" fill="#2A3362"/>
<path d="M127.987 22.6973V19.7007C127.987 17.2653 125.893 16.1733 123.288 16.1733C120.522 16.1733 118.792 17.4631 118.555 19.3939H121.067C121.25 18.552 121.978 18.0873 123.288 18.0873C124.598 18.0873 125.472 18.5704 125.472 19.555V19.7835L121.375 20.0902C119.481 20.2344 118.1 21.0579 118.1 22.8124C118.1 24.6205 119.684 25.4793 122.014 25.4793C123.895 25.4793 125.041 24.964 125.743 24.1865H125.868C126.262 25.0606 127.062 25.3014 127.932 25.3014H128.988V23.4779H128.751C128.223 23.4779 127.987 23.228 127.987 22.6973ZM125.473 21.748C125.473 23.1636 123.758 23.6282 122.287 23.6282C121.286 23.6282 120.631 23.3783 120.631 22.6973C120.631 22.0839 121.195 21.7848 122.034 21.7128L125.475 21.4628L125.473 21.748Z" fill="#2A3362"/>
<path d="M137.275 16.3516L134.343 22.8342H134.179L131.212 16.3516H128.498L132.74 25.3048H135.745L139.968 16.3516H137.275Z" fill="#2A3362"/>
<path d="M148 22.403C147.688 23.1376 146.797 23.5317 145.45 23.5317C143.611 23.5317 142.574 22.7081 142.41 21.5089H150.384C150.421 21.2595 150.439 21.0078 150.439 20.7559C150.422 17.5353 147.944 16.1719 145.293 16.1719C142.216 16.1719 139.904 17.9815 139.904 20.9C139.904 23.6743 142.125 25.4825 145.456 25.4825C148.243 25.4825 150.099 24.2663 150.483 22.403H148ZM145.286 18.1242C146.889 18.1242 147.817 18.822 147.964 19.8111H142.459C142.697 18.8634 143.624 18.1242 145.28 18.1242H145.286Z" fill="#2A3362"/>
<path d="M47.1915 15.6921C47.1915 14.9039 47.756 14.5649 48.4843 14.5649C48.8231 14.568 49.1598 14.616 49.4856 14.7076L49.9051 12.9163C49.2969 12.7048 48.6568 12.5959 48.0118 12.5942C46.1544 12.5942 44.6619 13.5619 44.6619 15.5664V16.3516H42.4941V18.3131H44.6619V25.3048H47.1915V18.3116H50.0236V16.3516H47.1915V15.6921Z" fill="#2A3362"/>
<path d="M71.5826 13.8271H69.2433L69.1123 16.3515H67.1348V18.313H69.0655V22.7267C69.0655 24.2297 69.8452 25.4872 72.1845 25.4872C72.791 25.4872 73.3956 25.4214 73.9874 25.2909V23.4061C73.6462 23.4813 73.2983 23.5234 72.9487 23.5319C71.6933 23.5319 71.5841 22.8341 71.5841 22.2958V18.3084H74.0794V16.3515H71.5826V13.8271Z" fill="#2A3362"/>
<path d="M79.473 13.8271H77.1415L77.0105 16.3515H75.0283V18.313H76.959V22.7267C76.959 24.2297 77.7388 25.4872 80.0781 25.4872C80.6832 25.4854 81.2862 25.418 81.8763 25.2863V23.4061C81.5351 23.4813 81.1872 23.5234 80.8376 23.5319C79.5822 23.5319 79.473 22.8341 79.473 22.2958V18.3084H81.9761V16.3515H79.473V13.8271Z" fill="#2A3362"/>
<path d="M7.52148 12.2523C7.52148 10.8153 7.9488 9.58837 8.84553 8.70654L10.4051 10.2402C8.66931 11.9409 10.1852 17.2288 15.1274 22.0935C20.0695 26.9581 25.4499 28.4472 27.1842 26.7434L28.7437 28.277C25.818 31.1541 19.1541 29.1128 13.5756 23.6256C9.7064 19.8191 7.52148 15.5005 7.52148 12.2523Z" fill="#009A46"/>
<path d="M17.3562 29.5986C15.8949 29.5986 14.6473 29.1784 13.749 28.2966L15.3086 26.763C17.0412 28.4668 22.4185 26.9762 27.3654 22.1131C32.3122 17.25 33.825 11.9621 32.0923 10.2582L33.6519 8.72461C36.5791 11.6017 34.5018 18.1548 28.9218 23.6405C25.051 27.4516 20.6593 29.5986 17.3562 29.5986Z" fill="#FF5805"/>
<path d="M29.4375 21.446C28.4909 18.7652 26.5571 15.9004 23.9916 13.3792C18.4132 7.89189 11.7492 5.84912 8.82355 8.72771C8.61613 8.93322 8.79548 9.44084 9.22591 9.86412C9.65635 10.2874 10.1726 10.4622 10.38 10.2583C12.1142 8.55441 17.4915 10.0451 22.4368 14.9097C24.7761 17.2101 26.5196 19.7789 27.3602 22.156C28.0963 24.2402 28.0246 25.9211 27.1668 26.7646C26.9579 26.9685 27.1388 27.4777 27.5676 27.8994C27.9965 28.3212 28.5143 28.4991 28.7233 28.2936C30.222 26.8198 30.4762 24.3844 29.4375 21.446Z" fill="#F5AFCB"/>
<path d="M33.6489 8.72777C32.1471 7.2509 29.6737 7.00092 26.6825 8.02384C23.958 8.95321 21.0432 10.8564 18.4793 13.3777C12.9008 18.8634 10.8235 25.4166 13.7492 28.2952C13.9582 28.4991 14.4744 28.3228 14.9048 27.901C15.3353 27.4793 15.5146 26.9701 15.3056 26.7646C13.5683 25.0608 15.0889 19.7729 20.0357 14.9082C22.375 12.6078 24.9873 10.8932 27.4045 10.0666C29.524 9.34428 31.2332 9.4133 32.0925 10.2568C32.2999 10.4608 32.8177 10.2844 33.2466 9.86111C33.6754 9.43783 33.8564 8.93174 33.6489 8.72777Z" fill="#FF9B00"/>
</svg>
