<svg width="172" height="40" viewBox="0 0 172 40" fill="none" xmlns="http://www.w3.org/2000/svg">
<path d="M17.8059 2.49473C17.8147 2.70126 17.9309 2.8954 18.1633 3.28366L19.5008 5.51816C19.7343 5.90834 19.8511 6.10343 19.9988 6.20434C20.1409 6.30139 20.2678 6.34216 20.4398 6.34608C20.6187 6.35017 20.8557 6.24735 21.3295 6.04172C22.7798 5.41236 24.3642 5.13184 25.9543 5.2314C27.9801 5.35824 29.9198 6.09599 31.5178 7.34739C33.1158 8.59878 34.2969 10.3051 34.9055 12.2412C35.5142 14.1774 35.5217 16.2526 34.927 18.1931C34.3324 20.1336 33.1636 21.8484 31.5747 23.1113C29.9858 24.3741 28.0514 25.1259 26.0267 25.2673C24.0019 25.4088 21.9818 24.9333 20.2327 23.9036C18.8598 23.0954 17.7044 21.9754 16.8557 20.6417C16.5784 20.2059 16.4397 19.988 16.2893 19.8912C16.1446 19.7981 16.0166 19.7608 15.8445 19.7616C15.6656 19.7624 15.4596 19.8586 15.0475 20.0509L12.6878 21.1527C12.2777 21.3441 12.0727 21.4398 11.9497 21.606C11.8473 21.7443 11.7857 21.9394 11.7901 22.1115C11.7954 22.3181 11.8995 22.499 12.1077 22.8607C13.4211 25.1421 15.307 27.0517 17.5883 28.3948C20.2453 29.959 23.3141 30.6813 26.3899 30.4664C29.4658 30.2516 32.4043 29.1096 34.818 27.1911C37.2316 25.2727 39.0072 22.6678 39.9105 19.7199C40.8138 16.7721 40.8024 13.6197 39.8779 10.6785C38.9533 7.73722 37.159 5.14522 34.7315 3.24422C32.304 1.34322 29.3574 0.222496 26.2801 0.0298198C23.6379 -0.135615 21.0059 0.389791 18.6398 1.54391C18.2646 1.7269 18.077 1.81839 17.9569 1.98663C17.8569 2.12668 17.7986 2.3228 17.8059 2.49473Z" fill="#2594A3"/>
<path d="M22.7737 37.5053C22.765 37.2988 22.6488 37.1046 22.4164 36.7164L21.0789 34.4819C20.8454 34.0917 20.7286 33.8966 20.5808 33.7957C20.4387 33.6986 20.3119 33.6579 20.1398 33.6539C19.9609 33.6499 19.724 33.7527 19.2502 33.9583C17.9074 34.541 16.4483 34.8252 14.9746 34.7844C13.0647 34.7314 11.2095 34.1347 9.62695 33.0642C8.0444 31.9937 6.80015 30.494 6.0403 28.741C5.28046 26.9881 5.03658 25.0548 5.33728 23.1681C5.63799 21.2814 6.47081 19.5197 7.73794 18.0897C9.00508 16.6598 10.6539 15.6211 12.4909 15.0956C14.3278 14.57 16.2765 14.5795 18.1083 15.1228C19.5217 15.542 20.8202 16.2657 21.9153 17.2369C22.3017 17.5796 22.495 17.751 22.6662 17.8027C22.831 17.8525 22.9642 17.8532 23.1295 17.8051C23.3013 17.7551 23.4729 17.606 23.8162 17.3077L25.782 15.5996C26.1236 15.3028 26.2944 15.1544 26.367 14.9609C26.4273 14.7997 26.4329 14.5952 26.3814 14.431C26.3195 14.2338 26.1697 14.0885 25.87 13.798C24.1083 12.0901 21.9553 10.8277 19.5906 10.1262C16.8079 9.30087 13.8476 9.28653 11.0571 10.0849C8.26661 10.8832 5.76185 12.4611 3.83695 14.6333C1.91204 16.8055 0.646907 19.4818 0.190101 22.3478C-0.266705 25.2139 0.103784 28.1508 1.25806 30.8137C2.41234 33.4766 4.30248 35.7549 6.70654 37.381C9.1106 39.0072 11.9288 39.9137 14.8301 39.9941C17.2958 40.0625 19.7345 39.5318 21.9399 38.4561C22.3151 38.2731 22.5026 38.1816 22.6228 38.0134C22.7228 37.8734 22.781 37.6772 22.7737 37.5053Z" fill="#2594A3"/>
<path d="M60.2457 29.3068C58.8267 29.3068 57.6026 28.9936 56.5735 28.3672C55.5508 27.7344 54.7614 26.8523 54.2053 25.7209C53.6555 24.5831 53.3807 23.2599 53.3807 21.7514C53.3807 20.2429 53.6555 18.9134 54.2053 17.7628C54.7614 16.6058 55.5348 15.7045 56.5256 15.0589C57.5227 14.407 58.6861 14.081 60.0156 14.081C60.7827 14.081 61.5401 14.2088 62.288 14.4645C63.0359 14.7202 63.7166 15.1357 64.3303 15.7109C64.9439 16.2798 65.4329 17.0341 65.7972 17.9737C66.1616 18.9134 66.3438 20.0703 66.3438 21.4446V22.4034H54.9915V20.4474H64.0426C64.0426 19.6165 63.8764 18.875 63.544 18.223C63.218 17.571 62.7514 17.0565 62.1442 16.6793C61.5433 16.3022 60.8338 16.1136 60.0156 16.1136C59.1143 16.1136 58.3345 16.3374 57.6761 16.7848C57.0241 17.2259 56.5224 17.8011 56.1708 18.5107C55.8192 19.2202 55.6435 19.9808 55.6435 20.7926V22.0966C55.6435 23.2088 55.8352 24.1516 56.2188 24.9251C56.6087 25.6921 57.1488 26.277 57.8391 26.6797C58.5295 27.076 59.3317 27.2741 60.2457 27.2741C60.8402 27.2741 61.3771 27.1911 61.8565 27.0249C62.3423 26.8523 62.761 26.5966 63.1126 26.2578C63.4641 25.9126 63.7358 25.4844 63.9276 24.973L66.1136 25.5866C65.8835 26.3281 65.4968 26.9801 64.9535 27.5426C64.4102 28.0987 63.739 28.5334 62.94 28.8466C62.141 29.1534 61.2429 29.3068 60.2457 29.3068ZM71.0779 14.2727L74.6063 20.294L78.1347 14.2727H80.7426L75.987 21.6364L80.7426 29H78.1347L74.6063 23.2855L71.0779 29H68.4699L73.1489 21.6364L68.4699 14.2727H71.0779ZM89.3479 29.3068C87.9672 29.3068 86.7783 28.9808 85.7812 28.3288C84.784 27.6768 84.017 26.7788 83.48 25.6346C82.9431 24.4904 82.6746 23.1832 82.6746 21.7131C82.6746 20.2173 82.9495 18.8974 83.4992 17.7532C84.0553 16.6026 84.8287 15.7045 85.8195 15.0589C86.8167 14.407 87.98 14.081 89.3096 14.081C90.3451 14.081 91.2783 14.2727 92.1093 14.6562C92.9403 15.0398 93.621 15.5767 94.1515 16.267C94.6821 16.9574 95.0113 17.7628 95.1391 18.6832H92.8763C92.7037 18.0121 92.3202 17.4176 91.7258 16.8999C91.1377 16.3757 90.3451 16.1136 89.3479 16.1136C88.4658 16.1136 87.6924 16.3437 87.0276 16.804C86.3692 17.2578 85.8547 17.9002 85.4839 18.7312C85.1196 19.5558 84.9374 20.5241 84.9374 21.6364C84.9374 22.7741 85.1164 23.7649 85.4743 24.6087C85.8387 25.4524 86.3501 26.1076 87.0084 26.5742C87.6732 27.0408 88.453 27.2741 89.3479 27.2741C89.936 27.2741 90.4697 27.1719 90.9491 26.9673C91.4285 26.7628 91.8344 26.4688 92.1668 26.0852C92.4992 25.7017 92.7357 25.2415 92.8763 24.7045H95.1391C95.0113 25.5739 94.6949 26.3569 94.1899 27.0536C93.6913 27.744 93.0297 28.2937 92.2052 28.7028C91.387 29.1055 90.4346 29.3068 89.3479 29.3068Z" fill="#2594A3"/>
<path d="M104.737 29.2781C103.184 29.2781 101.851 28.9585 100.739 28.3192C99.6327 27.68 98.7826 26.7915 98.1881 25.6538C97.5937 24.5096 97.2964 23.1864 97.2964 21.6843C97.2964 20.1758 97.5937 18.8526 98.1881 17.7148C98.789 16.5707 99.6423 15.679 100.748 15.0398C101.86 14.4006 103.187 14.081 104.727 14.081C106.089 14.081 107.274 14.3271 108.284 14.8192C109.301 15.3114 110.093 16.0082 110.662 16.9094C111.237 17.8043 111.541 18.8558 111.573 20.0639H107.191C107.102 19.3097 106.846 18.7184 106.424 18.2901C106.009 17.8619 105.465 17.6477 104.794 17.6477C104.251 17.6477 103.775 17.8011 103.366 18.108C102.957 18.4084 102.637 18.8558 102.407 19.4503C102.183 20.0384 102.071 20.767 102.071 21.6364C102.071 22.5057 102.183 23.2408 102.407 23.8416C102.637 24.4361 102.957 24.8867 103.366 25.1935C103.775 25.494 104.251 25.6442 104.794 25.6442C105.229 25.6442 105.612 25.5515 105.945 25.3661C106.284 25.1808 106.562 24.9091 106.779 24.5511C106.996 24.1868 107.134 23.7457 107.191 23.228H111.573C111.528 24.4425 111.225 25.5036 110.662 26.4112C110.106 27.3189 109.323 28.0252 108.313 28.5302C107.31 29.0288 106.117 29.2781 104.737 29.2781ZM120.847 29.2781C119.3 29.2781 117.971 28.9616 116.858 28.3288C115.753 27.6896 114.899 26.8011 114.298 25.6634C113.704 24.5192 113.407 23.1928 113.407 21.6843C113.407 20.1694 113.704 18.843 114.298 17.7053C114.899 16.5611 115.753 15.6726 116.858 15.0398C117.971 14.4006 119.3 14.081 120.847 14.081C122.394 14.081 123.72 14.4006 124.826 15.0398C125.938 15.6726 126.792 16.5611 127.386 17.7053C127.987 18.843 128.287 20.1694 128.287 21.6843C128.287 23.1928 127.987 24.5192 127.386 25.6634C126.792 26.8011 125.938 27.6896 124.826 28.3288C123.72 28.9616 122.394 29.2781 120.847 29.2781ZM120.876 25.7401C121.438 25.7401 121.915 25.5675 122.305 25.2223C122.694 24.8771 122.992 24.3977 123.196 23.7841C123.407 23.1705 123.513 22.4609 123.513 21.6555C123.513 20.8374 123.407 20.1214 123.196 19.5078C122.992 18.8942 122.694 18.4148 122.305 18.0696C121.915 17.7244 121.438 17.5518 120.876 17.5518C120.294 17.5518 119.802 17.7244 119.399 18.0696C119.003 18.4148 118.699 18.8942 118.488 19.5078C118.284 20.1214 118.182 20.8374 118.182 21.6555C118.182 22.4609 118.284 23.1705 118.488 23.7841C118.699 24.3977 119.003 24.8771 119.399 25.2223C119.802 25.5675 120.294 25.7401 120.876 25.7401ZM130.689 29V14.2727H135.148V16.9766H135.311C135.618 16.0817 136.135 15.3754 136.864 14.8576C137.593 14.3398 138.462 14.081 139.472 14.081C140.495 14.081 141.37 14.343 142.099 14.8672C142.828 15.3913 143.291 16.0945 143.489 16.9766H143.643C143.918 16.1009 144.455 15.4009 145.254 14.8768C146.053 14.3462 146.995 14.081 148.082 14.081C149.475 14.081 150.607 14.5284 151.476 15.4233C152.346 16.3118 152.78 17.5327 152.78 19.0859V29H148.092V20.1598C148.092 19.4247 147.903 18.8654 147.526 18.4819C147.149 18.092 146.66 17.897 146.059 17.897C145.413 17.897 144.905 18.108 144.534 18.5298C144.17 18.9453 143.988 19.5046 143.988 20.2077V29H139.482V20.1119C139.482 19.4279 139.296 18.8878 138.925 18.4915C138.555 18.0952 138.066 17.897 137.458 17.897C137.049 17.897 136.688 17.9961 136.375 18.1942C136.062 18.386 135.816 18.6609 135.637 19.0188C135.464 19.3768 135.378 19.7987 135.378 20.2844V29H130.689ZM155.685 34.5227V14.2727H160.326V16.7944H160.47C160.662 16.3469 160.933 15.9155 161.285 15.5C161.643 15.0845 162.097 14.7457 162.646 14.4837C163.202 14.2152 163.867 14.081 164.641 14.081C165.663 14.081 166.619 14.3494 167.507 14.8864C168.402 15.4233 169.125 16.2511 169.674 17.3697C170.224 18.4883 170.499 19.9137 170.499 21.646C170.499 23.3143 170.234 24.7109 169.703 25.8359C169.179 26.9609 168.469 27.8047 167.575 28.3672C166.686 28.9297 165.699 29.2109 164.612 29.2109C163.87 29.2109 163.228 29.0895 162.685 28.8466C162.141 28.6037 161.684 28.2841 161.314 27.8878C160.949 27.4915 160.668 27.0664 160.47 26.6126H160.374V34.5227H155.685ZM160.278 21.6364C160.278 22.429 160.384 23.1193 160.594 23.7074C160.812 24.2955 161.122 24.7525 161.525 25.0785C161.934 25.3981 162.423 25.5579 162.991 25.5579C163.567 25.5579 164.056 25.3981 164.458 25.0785C164.861 24.7525 165.165 24.2955 165.369 23.7074C165.58 23.1193 165.686 22.429 165.686 21.6364C165.686 20.8437 165.58 20.1566 165.369 19.5749C165.165 18.9933 164.861 18.5426 164.458 18.223C164.062 17.9034 163.573 17.7436 162.991 17.7436C162.416 17.7436 161.927 17.9002 161.525 18.2134C161.122 18.5266 160.812 18.9741 160.594 19.5558C160.384 20.1374 160.278 20.831 160.278 21.6364Z" fill="#7E7F83"/>
</svg>
