<svg width="106" height="25" viewBox="0 0 106 25" fill="none" xmlns="http://www.w3.org/2000/svg">
<g clip-path="url(#clip0_1468_1886)">
<path fill-rule="evenodd" clip-rule="evenodd" d="M12.6727 25C19.6717 25 25.3454 19.4036 25.3454 12.5C25.3454 5.59644 19.6717 0 12.6727 0C5.67378 0 0 5.59644 0 12.5C0 19.4036 5.67378 25 12.6727 25ZM17.2462 19.0416C15.9452 19.9325 14.3656 20.4546 12.6625 20.4546C8.21427 20.4546 4.60829 16.8932 4.60829 12.5C4.60829 8.10686 8.21427 4.5455 12.6625 4.5455C17.1107 4.5455 20.7167 8.10686 20.7167 12.5C20.7167 13.4807 20.537 14.42 20.2084 15.2874C18.9337 14.831 17.5129 14.6945 16.2119 15.0027C16.7298 14.2899 17.0347 13.4159 17.0347 12.4716C17.0347 10.071 15.0643 8.12497 12.6337 8.12497C10.203 8.12497 8.23263 10.071 8.23263 12.4716C8.23263 14.8721 10.203 16.8181 12.6337 16.8181C13.194 16.8181 13.7298 16.7147 14.2227 16.5262C15.4559 17.2321 16.5191 18.2452 17.2462 19.0416ZM21.4398 17.9629C20.8652 18.8581 20.1536 19.6593 19.3341 20.3377C18.4364 19.1693 16.6216 17.405 14.6185 16.2784C16.4694 14.9098 19.3365 15.785 21.4398 17.9629Z" fill="#3E2284"/>
<g opacity="0.15">
<path opacity="0.15" d="M24.3007 7.52183C22.3524 3.10045 17.8882 0.00704956 12.6906 0C7.43266 0.00713347 2.9252 3.17269 1.01367 7.67636C2.16431 8.75395 3.4695 9.67242 4.89308 10.3961C5.82714 7.02386 8.9518 4.54547 12.6626 4.54547C16.3447 4.54547 19.4497 6.98572 20.41 10.318C21.8419 9.57181 23.1513 8.62739 24.3007 7.52183Z" fill="white"/>
<path opacity="0.15" d="M16.9582 11.6576C16.5723 9.64611 14.7831 8.125 12.6342 8.125C10.4749 8.125 8.67882 9.66075 8.30469 11.6866C9.66858 12.0394 11.1001 12.2272 12.5762 12.2272C14.0921 12.2272 15.5612 12.0291 16.9582 11.6576Z" fill="white"/>
</g>
<path d="M37.9294 6.05615C36.137 6.05615 34.6637 6.66179 33.5096 7.84879C32.3802 9.03582 31.8154 10.6104 31.8154 12.5726C31.8154 14.5348 32.3802 16.1095 33.5096 17.2965C34.6637 18.4835 36.137 19.0891 37.9294 19.0891C39.5256 19.0891 40.7042 18.6531 41.5145 17.7567V25H45.0748V6.2984H41.7107V7.60654C40.9252 6.56487 39.6728 6.05615 37.9294 6.05615ZM38.5187 9.08426C40.3111 9.08426 41.5145 10.3197 41.5145 12.2819V12.8633C41.5145 14.8255 40.3111 16.061 38.5187 16.061C36.6771 16.061 35.4495 14.7771 35.4495 12.5726C35.4495 10.3682 36.6771 9.08426 38.5187 9.08426Z" fill="#3E2284"/>
<path d="M58.6138 6.29834H55.0287V13.372C55.0287 14.8255 54.2187 15.7945 52.8681 15.7945C51.5177 15.7945 50.8302 14.9951 50.8302 13.4205V6.29834H47.2451V14.1714C47.2451 17.248 49.013 19.089 51.935 19.089C53.4819 19.089 54.587 18.5803 55.2253 17.5629V18.8226H58.6138V6.29834Z" fill="#3E2284"/>
<path d="M62.6581 0.0725413C60.8657 -0.0243581 59.7609 2.49502 61.1357 3.70625C61.946 4.50567 63.3701 4.50567 64.1804 3.70625C64.598 3.29445 64.819 2.78573 64.819 2.20432C64.819 1.01731 63.8614 0.0725413 62.6581 0.0725413ZM64.4507 6.29831H60.8657V18.8225H64.4507V6.29831Z" fill="#3E2284"/>
<path d="M79.3104 0H75.7499V7.38856C74.964 6.49225 73.7609 6.0562 72.1651 6.0562C70.3724 6.0562 68.8993 6.66184 67.7452 7.84884C66.6156 9.03587 66.0508 10.6105 66.0508 12.5727C66.0508 14.5349 66.6156 16.1095 67.7452 17.2965C68.8993 18.4835 70.3724 19.0891 72.1651 19.0891C73.8592 19.0891 75.2343 18.4351 75.9464 17.5388V18.8227H79.3104V0ZM72.7544 9.08431C74.5468 9.08431 75.7499 10.3198 75.7499 12.282V12.8391C75.7499 14.8498 74.5468 16.0368 72.7544 16.0368C70.9127 16.0368 69.6848 14.7771 69.6848 12.5727C69.6848 10.3682 70.9127 9.08431 72.7544 9.08431Z" fill="#3E2284"/>
<path d="M86.5625 6.05615C85.0156 6.05615 83.7388 6.51643 82.7319 7.43699C81.7498 8.33329 81.2588 9.37496 81.2588 10.5377L84.8436 10.6831C84.8436 9.78679 85.4577 9.03582 86.6115 9.03582C87.7166 9.03582 88.2566 9.68987 88.2566 10.9738V11.4583L85.9977 11.5794C82.6092 11.7248 80.915 12.9845 80.915 15.3827C80.915 17.781 82.5109 19.0891 85.1384 19.0891C86.4642 19.0891 87.5446 18.6531 88.3794 17.8052V18.8226H91.8417V11.0949C91.8417 7.80035 90 6.05615 86.5625 6.05615ZM88.2566 14.3168C88.2566 15.6007 87.3235 16.3517 85.9732 16.3517C84.9911 16.3517 84.4998 15.9641 84.4998 15.2131C84.4998 14.3895 85.1139 13.9535 86.3415 13.905L88.2566 13.7839V14.3168Z" fill="#3E2284"/>
<path d="M105.44 6.29834H101.364L99.007 10.1259L96.6498 6.29834H92.5737L96.4778 12.4999L92.5244 18.8226H96.6005L99.007 14.9224L101.438 18.8226H105.538L101.511 12.4999L105.44 6.29834Z" fill="#3E2284"/>
</g>
<defs>
<clipPath id="clip0_1468_1886">
<rect width="105.556" height="25" fill="white"/>
</clipPath>
</defs>
</svg>
