<svg width="231" height="166" viewBox="0 0 231 166" fill="none" xmlns="http://www.w3.org/2000/svg">
<g filter="url(#filter0_d_1723_2283)">
<rect width="222" height="158" transform="translate(4.05664)" fill="white"/>
<path d="M82.5408 89.7621L82.0494 92.3175C81.9839 92.5141 81.9839 92.6779 81.9839 92.8745C81.9839 93.4314 82.3115 93.6935 82.7702 93.6935C83.3599 93.6935 83.7858 93.3004 83.9496 92.3175L84.4738 89.7621H84.998L84.5065 92.3175C84.2772 93.5952 83.6547 94.1194 82.7374 94.1194C81.9839 94.1194 81.4597 93.7263 81.4597 92.8417L81.4925 92.2192L81.9511 89.7294H82.5408V89.7621ZM85.7515 94.1194L86.1446 91.9244C86.2429 91.564 86.2429 91.2692 86.3084 91.0071H86.7671L86.6688 91.5968C86.9309 91.1381 87.3568 90.9088 87.8155 90.9088C88.1758 90.9088 88.569 91.1381 88.569 91.7606L88.5362 92.2848L88.1758 94.0539H87.6189L87.9465 92.2848L87.9793 91.8589C87.9793 91.564 87.8482 91.3347 87.4879 91.3347C87.1275 91.3347 86.5705 91.7606 86.4395 92.5469L86.1446 94.0539H85.7515V94.1194ZM89.7156 94.1194L90.3053 91.0071H90.8623L90.2726 94.1194H89.7156ZM90.4036 90.1225C90.4036 89.9587 90.6002 89.7621 90.764 89.7621C90.9606 89.7621 91.0916 89.8932 91.0916 90.0897C91.0916 90.3191 90.9606 90.4501 90.7313 90.4501C90.5347 90.4501 90.4036 90.3191 90.4036 90.1225ZM93.1556 90.188L93.0246 91.0071H93.7453L93.647 91.4002H92.9263L92.6642 92.9072C92.5987 93.1038 92.5987 93.2349 92.5987 93.4314C92.5987 93.5952 92.6969 93.6935 92.8935 93.6935H93.1228L93.0573 94.1194L92.6642 94.1522C92.2055 94.1522 92.009 93.8901 92.009 93.5625L92.0417 92.9728L92.3693 91.4002H91.9107L92.009 91.0071H92.4676L92.5987 90.3191L93.1556 90.188ZM96.5956 93.9228C96.3662 94.0539 95.9731 94.1522 95.58 94.1522C94.7609 94.1522 94.4005 93.5952 94.4005 92.9072C94.4005 91.9899 95.0885 90.9088 96.0714 90.9088C96.6611 90.9088 96.9887 91.2692 96.9887 91.6951C96.9887 92.5141 96.0714 92.7434 94.9247 92.6779C94.892 92.8417 94.9247 93.1038 94.9903 93.3004C95.1213 93.5625 95.3506 93.6935 95.6783 93.6935C96.0386 93.6935 96.3007 93.5625 96.4973 93.4642L96.5956 93.9228ZM95.9731 91.3347C95.4817 91.3347 95.1213 91.8261 94.9903 92.2848C95.8093 92.2848 96.4318 92.1865 96.4318 91.6951C96.4318 91.4657 96.268 91.3347 95.9731 91.3347ZM101.117 89.5328L100.429 93.1038C100.363 93.4314 100.298 93.7918 100.298 94.0539H99.7735L99.8717 93.4642C99.6096 93.9228 99.1837 94.1522 98.7906 94.1522C98.1681 94.1522 97.8733 93.6608 97.8733 93.0055C97.8733 91.9244 98.6923 90.9088 99.7735 90.9088C99.97 90.9088 100.199 90.9415 100.33 91.0071L100.592 89.5328H101.117ZM100.232 91.4657C100.134 91.3674 99.97 91.3347 99.7407 91.3347C99.0199 91.3347 98.3975 92.0882 98.3975 92.9072C98.3975 93.3004 98.5613 93.6935 99.0199 93.6935C99.4131 93.6935 99.9373 93.2349 100.068 92.5469L100.232 91.4657ZM104.295 89.8276C104.589 89.7621 104.917 89.7294 105.212 89.7294C105.671 89.7294 105.998 89.8276 106.227 90.0242C106.424 90.2208 106.555 90.4501 106.555 90.7122C106.555 91.2692 106.096 91.6951 105.638 91.8261C106.064 91.9572 106.359 92.2848 106.359 92.7762C106.359 93.2349 106.129 93.5625 105.867 93.7918C105.539 94.0539 105.048 94.1522 104.458 94.1522L103.541 94.1194L104.295 89.8276ZM104.131 93.6608L104.589 93.6935C105.212 93.6935 105.834 93.4314 105.834 92.7434C105.834 92.2192 105.408 91.9899 104.917 91.9899H104.491L104.131 93.6608ZM104.524 91.5968H104.95C105.539 91.5968 106.064 91.2692 106.064 90.7777C106.064 90.3518 105.736 90.188 105.277 90.188L104.819 90.2208L104.524 91.5968ZM109.438 94.1194L109.536 93.3331C109.209 93.9556 108.75 94.1849 108.324 94.1849C107.8 94.1849 107.472 93.7263 107.472 93.2021C107.472 92.0882 108.259 91.0071 109.602 91.0071C109.897 91.0071 110.257 91.0398 110.454 91.1381L110.126 92.7434C110.028 93.3004 109.995 93.8246 109.995 94.1522H109.438V94.1194ZM109.799 91.3674L109.438 91.3347C108.652 91.3347 107.964 92.1537 107.964 93.0055C107.964 93.3659 108.095 93.6935 108.521 93.6935C108.979 93.6935 109.471 93.1038 109.602 92.2848L109.799 91.3674ZM111.306 94.1194L111.731 91.9244L111.862 91.0071H112.321L112.223 91.5968C112.485 91.1381 112.911 90.9088 113.37 90.9088C113.73 90.9088 114.156 91.1381 114.156 91.7606L114.09 92.2848L113.73 94.0539H113.173L113.501 92.2848L113.533 91.8589C113.533 91.564 113.402 91.3347 113.042 91.3347C112.682 91.3347 112.125 91.7606 111.994 92.5469L111.731 94.0539H111.306V94.1194ZM115.335 94.1194L116.187 89.5983H116.711L116.154 92.4158C116.253 92.3175 116.384 92.1865 116.416 92.0882L117.53 91.0071H118.153L116.809 92.2848L117.694 94.1194H117.104L116.384 92.6124L115.958 92.9728L115.728 94.1522H115.335V94.1194ZM120.643 94.1194L121.134 91.4002H120.741L120.806 91.0071H121.232L121.265 90.8105C121.363 90.3518 121.494 89.9915 121.789 89.7294C121.953 89.5328 122.248 89.4345 122.51 89.4345C122.739 89.4345 122.87 89.5 122.936 89.5328L122.772 89.9587C122.707 89.8932 122.608 89.8932 122.477 89.8932C122.051 89.8932 121.822 90.3191 121.724 90.8105V91.0071H122.412L122.313 91.4002H121.658L121.134 94.1194H120.643ZM125.884 92.2192C125.884 93.2021 125.196 94.1849 124.148 94.1849C123.395 94.1849 122.969 93.5952 122.969 92.9072C122.969 91.9244 123.689 90.9415 124.705 90.9415C125.524 90.9088 125.884 91.564 125.884 92.2192ZM123.526 92.8745C123.526 93.3659 123.788 93.7263 124.246 93.7263C124.902 93.7263 125.36 92.9072 125.36 92.2192C125.36 91.8589 125.164 91.3674 124.607 91.3674C123.984 91.3347 123.526 92.1537 123.526 92.8745ZM126.867 94.1194L127.228 92.0882C127.326 91.6951 127.359 91.2692 127.391 91.0071H127.85L127.785 91.6951C127.948 91.2692 128.309 90.9415 128.735 90.9415H128.866L128.767 91.4657H128.636C128.178 91.4657 127.785 91.9899 127.621 92.7434L127.359 94.1194H126.867ZM132.109 92.7434L131.421 94.1194H130.864L133.125 89.8276H133.747L134.37 94.1194H133.813L133.616 92.7434H132.109ZM133.583 92.2848L133.387 91.0398C133.354 90.8105 133.354 90.4829 133.289 90.2535L132.928 91.0398L132.306 92.2848H133.583ZM135.451 94.1194L135.942 91.4002H135.549L135.647 91.0071H136.041L136.106 90.8105C136.172 90.3518 136.335 89.9915 136.597 89.7294C136.761 89.5328 137.056 89.4345 137.318 89.4345C137.548 89.4345 137.679 89.5 137.744 89.5328L137.613 89.9587C137.515 89.8932 137.417 89.8932 137.285 89.8932C136.86 89.8932 136.63 90.3191 136.565 90.8105L136.499 90.9415H137.187L137.089 91.3674H136.401L135.91 94.0539H135.451V94.1194ZM137.777 94.1194L138.137 92.0882L138.334 91.0071H138.793L138.694 91.6951C138.891 91.2692 139.251 90.9415 139.644 90.9415H139.808L139.71 91.4657H139.579C139.12 91.4657 138.694 91.9899 138.563 92.7434L138.301 94.1194H137.777ZM140.398 94.1194L140.988 91.0071H141.544L140.955 94.1194H140.398ZM141.086 90.1225C141.086 89.9587 141.217 89.7621 141.446 89.7621C141.61 89.7621 141.774 89.8932 141.774 90.0897C141.774 90.3191 141.61 90.4501 141.381 90.4501C141.217 90.4501 141.086 90.3191 141.086 90.1225ZM144.559 93.9556C144.362 94.0539 144.034 94.1522 143.641 94.1522C142.822 94.1522 142.462 93.5952 142.462 92.9728C142.462 91.9244 143.215 90.9415 144.329 90.9415C144.591 90.9415 144.886 91.0398 144.952 91.1054L144.821 91.4985C144.69 91.4657 144.559 91.3674 144.329 91.3674C143.51 91.3674 142.986 92.1537 142.986 92.8745C142.986 93.3659 143.281 93.6935 143.772 93.6935C144.1 93.6935 144.329 93.5952 144.493 93.4969L144.559 93.9556ZM147.671 94.1194L147.736 93.3331C147.442 93.9556 146.983 94.1849 146.557 94.1849C146 94.1849 145.705 93.7263 145.705 93.2021C145.705 92.0882 146.459 91.0071 147.835 91.0071C148.13 91.0071 148.49 91.0398 148.654 91.1381L148.359 92.7434C148.261 93.3004 148.195 93.8246 148.195 94.1522H147.671V94.1194ZM148.031 91.3674L147.671 91.3347C146.885 91.3347 146.197 92.1537 146.197 93.0055C146.197 93.3659 146.328 93.6935 146.754 93.6935C147.212 93.6935 147.704 93.1038 147.835 92.2848L148.031 91.3674ZM94.7937 71.4156L92.828 80.5234C92.2383 82.4891 91.1572 83.865 88.8638 83.9633C86.8981 83.9633 86.1119 82.6529 86.6033 79.9009L88.3397 71.4156H85.4566L83.4582 81.1458C83.0978 84.8806 85.2928 85.929 88.6345 85.8307C91.8124 85.7324 94.0074 84.2909 95.2524 81.4079L97.4474 71.4156H94.7937ZM119.07 76.0023L120.217 80.7199H115.958L119.07 76.0023ZM119.955 71.4156L110.29 85.5031H112.911L114.746 82.7839H120.774L121.363 85.5031H124.476L121.036 71.4156H119.955ZM129.357 85.6014H134.894C139.874 85.3721 140.955 83.1115 139.349 79.3439L133.289 67.517L129.357 85.6014ZM142.953 63.8149C137.973 64.0443 136.925 66.3376 138.53 70.0724L144.559 81.8993L148.49 63.8149H142.953ZM101.248 83.734L102.263 78.9836H103.41C105.081 78.9836 106.49 79.5733 106.49 81.1458C106.49 83.046 104.622 83.8323 102.525 83.8323L101.248 83.734ZM103.443 73.2175H104.819C106.326 73.2175 107.243 73.5779 107.243 74.7901C107.243 76.2316 105.867 77.1489 103.803 77.1489H102.656L103.443 73.2175ZM101.248 71.4156L101.018 71.4484L98.1026 85.5686H103.705C105.605 85.5686 106.686 85.0445 107.407 84.6186C108.554 83.865 109.373 82.6529 109.667 81.1786C110.028 79.1801 108.652 78.1318 106.948 77.968C108.685 77.5748 110.159 76.2971 110.257 74.4625C110.486 71.4156 107.047 71.4156 107.047 71.4156H101.248Z" fill="#D71920"/>
</g>
<defs>
<filter id="filter0_d_1723_2283" x="0.0566406" y="0" width="230" height="166" filterUnits="userSpaceOnUse" color-interpolation-filters="sRGB">
<feFlood flood-opacity="0" result="BackgroundImageFix"/>
<feColorMatrix in="SourceAlpha" type="matrix" values="0 0 0 0 0 0 0 0 0 0 0 0 0 0 0 0 0 0 127 0" result="hardAlpha"/>
<feOffset dy="4"/>
<feGaussianBlur stdDeviation="2"/>
<feComposite in2="hardAlpha" operator="out"/>
<feColorMatrix type="matrix" values="0 0 0 0 0.572549 0 0 0 0 0.790196 0 0 0 0 0.819608 0 0 0 1 0"/>
<feBlend mode="normal" in2="BackgroundImageFix" result="effect1_dropShadow_1723_2283"/>
<feBlend mode="normal" in="SourceGraphic" in2="effect1_dropShadow_1723_2283" result="shape"/>
</filter>
</defs>
</svg>
