<svg width="68" height="31" viewBox="0 0 68 31" fill="none" xmlns="http://www.w3.org/2000/svg">
<path d="M1.6368 26.2621L1.14537 28.8175C1.07985 29.0141 1.07985 29.1779 1.07985 29.3745C1.07985 29.9314 1.40747 30.1935 1.86613 30.1935C2.45584 30.1935 2.88174 29.8004 3.04555 28.8175L3.56973 26.2621H4.09392L3.60249 28.8175C3.37316 30.0952 2.75069 30.6194 1.83337 30.6194C1.07985 30.6194 0.555664 30.2263 0.555664 29.3417L0.588426 28.7192L1.04709 26.2294H1.6368V26.2621ZM4.84743 30.6194L5.24057 28.4244C5.33886 28.064 5.33886 27.7692 5.40438 27.5071H5.86304L5.76476 28.0968C6.02685 27.6381 6.45275 27.4088 6.91142 27.4088C7.27179 27.4088 7.66493 27.6381 7.66493 28.2606L7.63217 28.7848L7.27179 30.5539H6.71485L7.04246 28.7848L7.07522 28.3589C7.07522 28.064 6.94418 27.8347 6.5838 27.8347C6.22342 27.8347 5.66647 28.2606 5.53543 29.0469L5.24057 30.5539H4.84743V30.6194ZM8.81159 30.6194L9.4013 27.5071H9.95824L9.36854 30.6194H8.81159ZM9.49958 26.6225C9.49958 26.4587 9.69615 26.2621 9.85996 26.2621C10.0565 26.2621 10.1876 26.3932 10.1876 26.5897C10.1876 26.8191 10.0565 26.9501 9.8272 26.9501C9.63063 26.9501 9.49958 26.8191 9.49958 26.6225ZM12.2516 26.688L12.1205 27.5071H12.8413L12.743 27.9002H12.0222L11.7601 29.4072C11.6946 29.6038 11.6946 29.7349 11.6946 29.9314C11.6946 30.0952 11.7929 30.1935 11.9895 30.1935H12.2188L12.1533 30.6194L11.7601 30.6522C11.3015 30.6522 11.1049 30.3901 11.1049 30.0625L11.1377 29.4728L11.4653 27.9002H11.0066L11.1049 27.5071H11.5636L11.6946 26.8191L12.2516 26.688ZM15.6915 30.4228C15.4622 30.5539 15.0691 30.6522 14.6759 30.6522C13.8569 30.6522 13.4965 30.0952 13.4965 29.4072C13.4965 28.4899 14.1845 27.4088 15.1673 27.4088C15.757 27.4088 16.0847 27.7692 16.0847 28.1951C16.0847 29.0141 15.1673 29.2434 14.0207 29.1779C13.9879 29.3417 14.0207 29.6038 14.0862 29.8004C14.2173 30.0625 14.4466 30.1935 14.7742 30.1935C15.1346 30.1935 15.3967 30.0625 15.5932 29.9642L15.6915 30.4228ZM15.0691 27.8347C14.5776 27.8347 14.2173 28.3261 14.0862 28.7848C14.9052 28.7848 15.5277 28.6865 15.5277 28.1951C15.5277 27.9657 15.3639 27.8347 15.0691 27.8347ZM20.2126 26.0328L19.5246 29.6038C19.4591 29.9314 19.3936 30.2918 19.3936 30.5539H18.8694L18.9677 29.9642C18.7056 30.4228 18.2797 30.6522 17.8866 30.6522C17.2641 30.6522 16.9692 30.1608 16.9692 29.5055C16.9692 28.4244 17.7883 27.4088 18.8694 27.4088C19.066 27.4088 19.2953 27.4415 19.4263 27.5071L19.6884 26.0328H20.2126ZM19.3281 27.9657C19.2298 27.8674 19.066 27.8347 18.8366 27.8347C18.1159 27.8347 17.4934 28.5882 17.4934 29.4072C17.4934 29.8004 17.6572 30.1935 18.1159 30.1935C18.509 30.1935 19.0332 29.7349 19.1643 29.0469L19.3281 27.9657ZM23.3905 26.3276C23.6854 26.2621 24.013 26.2294 24.3078 26.2294C24.7665 26.2294 25.0941 26.3276 25.3234 26.5242C25.52 26.7208 25.6511 26.9501 25.6511 27.2122C25.6511 27.7692 25.1924 28.1951 24.7337 28.3261C25.1596 28.4572 25.4545 28.7848 25.4545 29.2762C25.4545 29.7349 25.2252 30.0625 24.9631 30.2918C24.6354 30.5539 24.144 30.6522 23.5543 30.6522L22.637 30.6194L23.3905 26.3276ZM23.2267 30.1608L23.6854 30.1935C24.3078 30.1935 24.9303 29.9314 24.9303 29.2434C24.9303 28.7192 24.5044 28.4899 24.013 28.4899H23.5871L23.2267 30.1608ZM23.6198 28.0968H24.0457C24.6354 28.0968 25.1596 27.7692 25.1596 27.2777C25.1596 26.8518 24.832 26.688 24.3733 26.688L23.9147 26.7208L23.6198 28.0968ZM28.5341 30.6194L28.6324 29.8331C28.3047 30.4556 27.8461 30.6849 27.4202 30.6849C26.896 30.6849 26.5684 30.2263 26.5684 29.7021C26.5684 28.5882 27.3547 27.5071 28.6979 27.5071C28.9927 27.5071 29.3531 27.5398 29.5497 27.6381L29.2221 29.2434C29.1238 29.8004 29.091 30.3246 29.091 30.6522H28.5341V30.6194ZM28.8945 27.8674L28.5341 27.8347C27.7478 27.8347 27.0598 28.6537 27.0598 29.5055C27.0598 29.8659 27.1908 30.1935 27.6167 30.1935C28.0754 30.1935 28.5668 29.6038 28.6979 28.7848L28.8945 27.8674ZM30.4015 30.6194L30.8274 28.4244L30.9584 27.5071H31.4171L31.3188 28.0968C31.5809 27.6381 32.0068 27.4088 32.4655 27.4088C32.8258 27.4088 33.2517 27.6381 33.2517 28.2606L33.1862 28.7848L32.8258 30.5539H32.2689L32.5965 28.7848L32.6293 28.3589C32.6293 28.064 32.4982 27.8347 32.1378 27.8347C31.7775 27.8347 31.2205 28.2606 31.0895 29.0469L30.8274 30.5539H30.4015V30.6194ZM34.4312 30.6194L35.283 26.0983H35.8071L35.2502 28.9158C35.3485 28.8175 35.4795 28.6865 35.5123 28.5882L36.6262 27.5071H37.2487L35.9054 28.7848L36.79 30.6194H36.2003L35.4795 29.1124L35.0536 29.4728L34.8243 30.6522H34.4312V30.6194ZM39.7385 30.6194L40.23 27.9002H39.8368L39.9023 27.5071H40.3283L40.361 27.3105C40.4593 26.8518 40.5903 26.4915 40.8852 26.2294C41.049 26.0328 41.3439 25.9345 41.606 25.9345C41.8353 25.9345 41.9663 26 42.0319 26.0328L41.868 26.4587C41.8025 26.3932 41.7042 26.3932 41.5732 26.3932C41.1473 26.3932 40.918 26.8191 40.8197 27.3105V27.5071H41.5077L41.4094 27.9002H40.7542L40.23 30.6194H39.7385ZM44.9804 28.7192C44.9804 29.7021 44.2924 30.6849 43.244 30.6849C42.4905 30.6849 42.0646 30.0952 42.0646 29.4072C42.0646 28.4244 42.7854 27.4415 43.801 27.4415C44.62 27.4088 44.9804 28.064 44.9804 28.7192ZM42.6216 29.3745C42.6216 29.8659 42.8837 30.2263 43.3423 30.2263C43.9976 30.2263 44.4562 29.4072 44.4562 28.7192C44.4562 28.3589 44.2596 27.8674 43.7027 27.8674C43.0802 27.8347 42.6216 28.6537 42.6216 29.3745ZM45.9632 30.6194L46.3236 28.5882C46.4219 28.1951 46.4547 27.7692 46.4874 27.5071H46.9461L46.8806 28.1951C47.0444 27.7692 47.4048 27.4415 47.8307 27.4415H47.9617L47.8634 27.9657H47.7324C47.2737 27.9657 46.8806 28.4899 46.7168 29.2434L46.4547 30.6194H45.9632ZM51.2051 29.2434L50.5171 30.6194H49.9602L52.2207 26.3276H52.8432L53.4657 30.6194H52.9087L52.7121 29.2434H51.2051ZM52.6794 28.7848L52.4828 27.5398C52.45 27.3105 52.45 26.9829 52.3845 26.7535L52.0241 27.5398L51.4017 28.7848H52.6794ZM54.5468 30.6194L55.0382 27.9002H54.6451L54.7434 27.5071H55.1365L55.202 27.3105C55.2675 26.8518 55.4314 26.4915 55.6934 26.2294C55.8573 26.0328 56.1521 25.9345 56.4142 25.9345C56.6435 25.9345 56.7746 26 56.8401 26.0328L56.7091 26.4587C56.6108 26.3932 56.5125 26.3932 56.3814 26.3932C55.9555 26.3932 55.7262 26.8191 55.6607 27.3105L55.5952 27.4415H56.2832L56.1849 27.8674H55.4969L55.0054 30.5539H54.5468V30.6194ZM56.8729 30.6194L57.2332 28.5882L57.4298 27.5071H57.8885L57.7902 28.1951C57.9868 27.7692 58.3471 27.4415 58.7403 27.4415H58.9041L58.8058 27.9657H58.6747C58.2161 27.9657 57.7902 28.4899 57.6591 29.2434L57.397 30.6194H56.8729ZM59.4938 30.6194L60.0835 27.5071H60.6404L60.0507 30.6194H59.4938ZM60.1818 26.6225C60.1818 26.4587 60.3128 26.2621 60.5422 26.2621C60.706 26.2621 60.8698 26.3932 60.8698 26.5897C60.8698 26.8191 60.706 26.9501 60.4766 26.9501C60.3128 26.9501 60.1818 26.8191 60.1818 26.6225ZM63.6545 30.4556C63.4579 30.5539 63.1303 30.6522 62.7372 30.6522C61.9181 30.6522 61.5578 30.0952 61.5578 29.4728C61.5578 28.4244 62.3113 27.4415 63.4252 27.4415C63.6873 27.4415 63.9821 27.5398 64.0477 27.6054L63.9166 27.9985C63.7856 27.9657 63.6545 27.8674 63.4252 27.8674C62.6061 27.8674 62.082 28.6537 62.082 29.3745C62.082 29.8659 62.3768 30.1935 62.8682 30.1935C63.1959 30.1935 63.4252 30.0952 63.589 29.9969L63.6545 30.4556ZM66.7669 30.6194L66.8324 29.8331C66.5375 30.4556 66.0789 30.6849 65.653 30.6849C65.096 30.6849 64.8012 30.2263 64.8012 29.7021C64.8012 28.5882 65.5547 27.5071 66.9307 27.5071C67.2255 27.5071 67.5859 27.5398 67.7497 27.6381L67.4549 29.2434C67.3566 29.8004 67.2911 30.3246 67.2911 30.6522H66.7669V30.6194ZM67.1272 27.8674L66.7669 27.8347C65.9806 27.8347 65.2926 28.6537 65.2926 29.5055C65.2926 29.8659 65.4236 30.1935 65.8495 30.1935C66.3082 30.1935 66.7996 29.6038 66.9307 28.7848L67.1272 27.8674ZM13.8896 7.91563L11.9239 17.0234C11.3342 18.9891 10.2531 20.365 7.95979 20.4633C5.99409 20.4633 5.20781 19.1529 5.69924 16.4009L7.4356 7.91563H4.55258L2.55412 17.6458C2.19374 21.3806 4.38877 22.429 7.73046 22.3307C10.9083 22.2324 13.1034 20.7909 14.3483 17.9079L16.5433 7.91563H13.8896ZM38.166 12.5023L39.3126 17.2199H35.0536L38.166 12.5023ZM39.0505 7.91563L29.3859 22.0031H32.0068L33.8415 19.2839H39.8696L40.4593 22.0031H43.5716L40.1317 7.91563H39.0505ZM48.4531 22.1014H53.9898C58.9696 21.8721 60.0507 19.6115 58.4454 15.8439L52.3845 4.017L48.4531 22.1014ZM62.0492 0.314941C57.0694 0.544273 56.0211 2.83758 57.6264 6.57241L63.6545 18.3993L67.5859 0.314941H62.0492ZM20.3437 20.234L21.3593 15.4836H22.5059C24.1768 15.4836 25.5855 16.0733 25.5855 17.6458C25.5855 19.546 23.7181 20.3323 21.6214 20.3323L20.3437 20.234ZM22.5387 9.71752H23.9147C25.4217 9.71752 26.339 10.0779 26.339 11.2901C26.339 12.7316 24.9631 13.6489 22.8991 13.6489H21.7524L22.5387 9.71752ZM20.3437 7.91563L20.1143 7.94839L17.1986 22.0686H22.8008C24.701 22.0686 25.7821 21.5445 26.5029 21.1186C27.6495 20.365 28.4686 19.1529 28.7634 17.6786C29.1238 15.6801 27.7478 14.6318 26.0442 14.468C27.7806 14.0748 29.2548 12.7971 29.3531 10.9625C29.5824 7.91563 26.1425 7.91563 26.1425 7.91563H20.3437Z" fill="#D71920"/>
</svg>
